<?xml version="1.0" encoding="UTF-8"?>
<svg version="1.1" xmlns="http://www.w3.org/2000/svg" width="120" height="120">
<path d="M0 0 C0.99 0 1.98 0 3 0 C3.66 0.99 4.32 1.98 5 3 C5.99 3 6.98 3 8 3 C8 3.99 8 4.98 8 6 C8.99 6.33 9.98 6.66 11 7 C10.979375 7.94875 10.95875 8.8975 10.9375 9.875 C10.77448174 12.90666283 10.77448174 12.90666283 12 15 C12.66 14.01 13.32 13.02 14 12 C13.505 11.505 13.505 11.505 13 11 C12.69186422 8.07271007 12.56425165 6.57439555 14.375 4.1875 C16 3 16 3 18 3 C18.33 2.01 18.66 1.02 19 0 C19.66 0 20.32 0 21 0 C23 2 23 2 23.23046875 3.91015625 C23.11111111 9.88888889 23.11111111 9.88888889 22 11 C22.02389158 13.45948786 22.02389158 13.45948786 23 16 C23.825 16.45375 24.65 16.9075 25.5 17.375 C28 19 28 19 28.875 22.375 C28.98349401 25.52132642 28.82300154 27.9823277 28 31 C28.66 31 29.32 31 30 31 C30.99 33.97 30.99 33.97 32 37 C32.36351563 36.15115234 32.36351563 36.15115234 32.734375 35.28515625 C33.06953125 34.55167969 33.4046875 33.81820312 33.75 33.0625 C34.07484375 32.33160156 34.3996875 31.60070312 34.734375 30.84765625 C36 29 36 29 38.0390625 28.15625 C39.00972656 28.07890625 39.00972656 28.07890625 40 28 C41.625 29.4375 41.625 29.4375 43 31 C43.66 31 44.32 31 45 31 C45.28875 30.38125 45.5775 29.7625 45.875 29.125 C47 27 47 27 49 25 C51.625 24.875 51.625 24.875 54 25 C55.13636364 29.54545455 55.13636364 29.54545455 54.4375 31.875 C53.77867626 34.23720779 53.77867626 34.23720779 55 37.4375 C55.98865053 40.9595675 56.25765189 42.61401414 55 46 C51.75790636 48.16139576 50.74322232 48.28794018 47 48 C46.34 47.67 45.68 47.34 45 47 C43.33499557 46.65846063 41.66821323 46.32550502 40 46 C38.515 45.505 38.515 45.505 37 45 C36.34 45.99 35.68 46.98 35 48 C32.375 48.1875 32.375 48.1875 30 48 C29.43853206 51.50917465 28.99070739 54.75374575 29.125 58.3125 C29.08375 59.199375 29.0425 60.08625 29 61 C25.54337669 63.30441554 24.05142119 63.25860135 20 63 C19.01 62.505 19.01 62.505 18 62 C17.01 62.495 17.01 62.495 16 63 C9.52941176 63.35294118 9.52941176 63.35294118 6 61 C3.48400985 61.33652369 3.48400985 61.33652369 1 62 C0.01 62 -0.98 62 -2 62 C-2.78375 62.226875 -3.5675 62.45375 -4.375 62.6875 C-7.81715293 63.09728011 -9.24123835 61.97054404 -12 60 C-12.495 60.825 -12.99 61.65 -13.5 62.5 C-16 65 -16 65 -18.046875 65.33203125 C-20.03425598 65.31441262 -22.01940609 65.16504949 -24 65 C-24.375 62.9375 -24.375 62.9375 -24 60 C-22.56869361 58.15176652 -20.99568418 56.49081055 -19.40234375 54.78125 C-17.46692948 52.3228965 -17.15014002 50.07787039 -17 47 C-18.2375 47.495 -18.2375 47.495 -19.5 48 C-23.66901329 49.19114665 -26.6759325 49.28354541 -31 49 C-31.99 48.34 -32.98 47.68 -34 47 C-34.47943795 43.35627158 -33.81883764 41.1324426 -32 38 C-31.62875 37.2575 -31.2575 36.515 -30.875 35.75 C-30.58625 35.1725 -30.2975 34.595 -30 34 C-31.32 33.34 -32.64 32.68 -34 32 C-34 30.68 -34 29.36 -34 28 C-33.34 28 -32.68 28 -32 28 C-32 27.01 -32 26.02 -32 25 C-25.9453125 24.8046875 -25.9453125 24.8046875 -24 25 C-21.13725236 27.86274764 -21.0384992 31.10388111 -21 35 C-21.9375 37.5 -21.9375 37.5 -23 39 C-22.67 39.33 -22.34 39.66 -22 40 C-21.75765625 39.21753906 -21.5153125 38.43507812 -21.265625 37.62890625 C-20.93046875 36.61699219 -20.5953125 35.60507812 -20.25 34.5625 C-19.92515625 33.55316406 -19.6003125 32.54382812 -19.265625 31.50390625 C-18 29 -18 29 -15.859375 28.15234375 C-15.24578125 28.10207031 -14.6321875 28.05179688 -14 28 C-13.01 29.65 -12.02 31.3 -11 33 C-9.35 31.68 -7.7 30.36 -6 29 C-6.33 28.67 -6.66 28.34 -7 28 C-7.07244053 25.98035801 -7.08377188 23.95832876 -7.0625 21.9375 C-7.05347656 20.83277344 -7.04445313 19.72804688 -7.03515625 18.58984375 C-7.02355469 17.73519531 -7.01195313 16.88054688 -7 16 C-7.66 16 -8.32 16 -9 16 C-9 14.68 -9 13.36 -9 12 C-8.34 12 -7.68 12 -7 12 C-5.12456646 8.13236554 -5.12456646 8.13236554 -6 4 C-4.68 4 -3.36 4 -2 4 C-1.34 2.68 -0.68 1.36 0 0 Z M-5 11 C-5.66 11.66 -6.32 12.32 -7 13 C-5.68 12.67 -4.36 12.34 -3 12 C-3.66 11.67 -4.32 11.34 -5 11 Z M-28 30 C-27 32 -27 32 -27 32 Z M-23 31 C-22 33 -22 33 -22 33 Z M-2 34 C-1.67 34.66 -1.34 35.32 -1 36 C-0.67 35.34 -0.34 34.68 0 34 C-0.66 34 -1.32 34 -2 34 Z M-10 35 C-9 37 -9 37 -9 37 Z M19 35 C20 38 20 38 20 38 Z M7 36 C7 37.65 7 39.3 7 41 C9.18490007 38.32357511 9.18490007 38.32357511 9 36 C8.34 36 7.68 36 7 36 Z M47 36 C47 36.66 47 37.32 47 38 C47.99 37.67 48.98 37.34 50 37 C49.01 36.67 48.02 36.34 47 36 Z M-9 37 C-8.67 38.65 -8.34 40.3 -8 42 C-7.67 40.68 -7.34 39.36 -7 38 C-7.66 37.67 -8.32 37.34 -9 37 Z M-1 38 C-1.33 39.98 -1.66 41.96 -2 44 C-0.68 44.33 0.64 44.66 2 45 C1.34 42.69 0.68 40.38 0 38 C-0.33 38 -0.66 38 -1 38 Z M45 38 C45.33 39.32 45.66 40.64 46 42 C46.33 40.68 46.66 39.36 47 38 C46.34 38 45.68 38 45 38 Z M-17 40 C-17 40.99 -17 41.98 -17 43 C-16.01 43 -15.02 43 -14 43 C-13.34 43 -12.68 43 -12 43 C-12.33 42.01 -12.66 41.02 -13 40 C-14.32 40 -15.64 40 -17 40 Z M11 41 C11 41.66 11 42.32 11 43 C11.99 42.67 12.98 42.34 14 42 C13.01 41.67 12.02 41.34 11 41 Z M16 41 C15.67 41.99 15.34 42.98 15 44 C16.98 44 18.96 44 21 44 C20.67 43.34 20.34 42.68 20 42 C19.01 42.33 18.02 42.66 17 43 C16.67 42.34 16.34 41.68 16 41 Z M24 41 C24 41.66 24 42.32 24 43 C24.99 43.33 25.98 43.66 27 44 C27.66 44.66 28.32 45.32 29 46 C29 45.34 29 44.68 29 44 C29.66 43.67 30.32 43.34 31 43 C28.69 42.34 26.38 41.68 24 41 Z M-22 42 C-22 42.66 -22 43.32 -22 44 C-21.01 43.67 -20.02 43.34 -19 43 C-19.99 42.67 -20.98 42.34 -22 42 Z M-9 42 C-9.66 42.66 -10.32 43.32 -11 44 C-9.68 44.33 -8.36 44.66 -7 45 C-7.33 44.01 -7.66 43.02 -8 42 C-8.33 42 -8.66 42 -9 42 Z M-12 46 C-12 48.64 -12 51.28 -12 54 C-11.67 54 -11.34 54 -11 54 C-11 51.36 -11 48.72 -11 46 C-11.33 46 -11.66 46 -12 46 Z M-7 46 C-7.20970559 50.14093698 -7.20970559 50.14093698 -6 54 C-5.34 54 -4.68 54 -4 54 C-3.67 51.36 -3.34 48.72 -3 46 C-3.99 46 -4.98 46 -6 46 C-6.33 46 -6.66 46 -7 46 Z M5 46 C5.33 46.99 5.66 47.98 6 49 C6.33 48.01 6.66 47.02 7 46 C6.34 46 5.68 46 5 46 Z M19 47 C20 49 20 49 20 49 Z M26 47 C25.01 47.66 24.02 48.32 23 49 C24.32 49 25.64 49 27 49 C26.67 48.34 26.34 47.68 26 47 Z M0 50 C-0.33 51.98 -0.66 53.96 -1 56 C-0.34 56 0.32 56 1 56 C1 54.02 1 52.04 1 50 C0.67 50 0.34 50 0 50 Z M9 50 C10 52 10 52 10 52 Z M18 50 C15.36 50.66 12.72 51.32 10 52 C10.33 52.66 10.66 53.32 11 54 C13.64 54 16.28 54 19 54 C18.67 52.68 18.34 51.36 18 50 Z M23 53 C27 54 27 54 27 54 Z M5 54 C5 54.66 5 55.32 5 56 C5.66 55.67 6.32 55.34 7 55 C6.34 54.67 5.68 54.34 5 54 Z " fill="#E72277" transform="translate(50,26)"/>
<path d="M0 0 C0.99 0 1.98 0 3 0 C3.66 0.99 4.32 1.98 5 3 C5.99 3 6.98 3 8 3 C8 3.99 8 4.98 8 6 C8.99 6.33 9.98 6.66 11 7 C10.979375 7.94875 10.95875 8.8975 10.9375 9.875 C10.77448174 12.90666283 10.77448174 12.90666283 12 15 C12.66 14.01 13.32 13.02 14 12 C13.67 11.67 13.34 11.34 13 11 C12.69186422 8.07271007 12.56425165 6.57439555 14.375 4.1875 C16 3 16 3 18 3 C18.33 2.01 18.66 1.02 19 0 C19.66 0 20.32 0 21 0 C23 2 23 2 23.23046875 3.91015625 C23.11111111 9.88888889 23.11111111 9.88888889 22 11 C22.02389158 13.45948786 22.02389158 13.45948786 23 16 C23.825 16.45375 24.65 16.9075 25.5 17.375 C28 19 28 19 28.875 22.375 C28.98349401 25.52132642 28.82300154 27.9823277 28 31 C28.66 31 29.32 31 30 31 C30 31.66 30 32.32 30 33 C29.34 33 28.68 33 28 33 C28 33.66 28 34.32 28 35 C27.01 35 26.02 35 25 35 C25 35.66 25 36.32 25 37 C24.34 37 23.68 37 23 37 C23 33 23 33 24 32 C23.01 32 22.02 32 21 32 C20.34 33.32 19.68 34.64 19 36 C16 35 16 35 14.8125 32.9375 C14.544375 32.298125 14.27625 31.65875 14 31 C13.01 31 12.02 31 11 31 C10.01 33.475 10.01 33.475 9 36 C7.5 34.625 7.5 34.625 6 33 C6 32.34 6 31.68 6 31 C5.13375 31.04125 4.2675 31.0825 3.375 31.125 C-0.18082733 30.99330269 -4.34796836 30.65203164 -7 28 C-7.07244053 25.98035801 -7.08377188 23.95832876 -7.0625 21.9375 C-7.05347656 20.83277344 -7.04445312 19.72804688 -7.03515625 18.58984375 C-7.02355469 17.73519531 -7.01195312 16.88054688 -7 16 C-7.66 16 -8.32 16 -9 16 C-9 14.68 -9 13.36 -9 12 C-8.34 12 -7.68 12 -7 12 C-5.12456646 8.13236554 -5.12456646 8.13236554 -6 4 C-4.68 4 -3.36 4 -2 4 C-1.34 2.68 -0.68 1.36 0 0 Z M-5 11 C-5.66 11.66 -6.32 12.32 -7 13 C-5.68 12.67 -4.36 12.34 -3 12 C-3.66 11.67 -4.32 11.34 -5 11 Z " fill="#EECD57" transform="translate(50,26)"/>
<path d="M0 0 C6.0546875 -0.1953125 6.0546875 -0.1953125 8 0 C10.86274764 2.86274764 10.9615008 6.10388111 11 10 C10.0625 12.5 10.0625 12.5 9 14 C9.33 14.33 9.66 14.66 10 15 C10.24234375 14.21753906 10.4846875 13.43507813 10.734375 12.62890625 C11.06953125 11.61699219 11.4046875 10.60507812 11.75 9.5625 C12.07484375 8.55316406 12.3996875 7.54382812 12.734375 6.50390625 C14 4 14 4 16.140625 3.15234375 C16.75421875 3.10207031 17.3678125 3.05179688 18 3 C18.433125 3.825 18.86625 4.65 19.3125 5.5 C19.869375 6.325 20.42625 7.15 21 8 C21.99 8 22.98 8 24 8 C25.64453125 9.11328125 25.64453125 9.11328125 27 11 C27.51171875 13.91796875 27.51171875 13.91796875 27.6875 17.1875 C27.75324219 18.27417969 27.81898437 19.36085938 27.88671875 20.48046875 C27.92410156 21.31191406 27.96148437 22.14335938 28 23 C27.34 22.67 26.68 22.34 26 22 C25.67 23.65 25.34 25.3 25 27 C24.67 27 24.34 27 24 27 C24 25.02 24 23.04 24 21 C23.34 21 22.68 21 22 21 C22.06960937 21.70125 22.13921875 22.4025 22.2109375 23.125 C22.57409222 29.48885411 22.07411955 33.66383326 17.8671875 38.60546875 C14.58042941 41.06022322 11.95782436 40.54590681 8 40 C7.625 37.9375 7.625 37.9375 8 35 C9.43130639 33.15176652 11.00431582 31.49081055 12.59765625 29.78125 C14.53307052 27.3228965 14.84985998 25.07787039 15 22 C14.175 22.33 13.35 22.66 12.5 23 C8.33098671 24.19114665 5.3240675 24.28354541 1 24 C0.01 23.34 -0.98 22.68 -2 22 C-2.47943795 18.35627158 -1.81883764 16.1324426 0 13 C0.37125 12.2575 0.7425 11.515 1.125 10.75 C1.41375 10.1725 1.7025 9.595 2 9 C0.68 8.34 -0.64 7.68 -2 7 C-2 5.68 -2 4.36 -2 3 C-1.34 3 -0.68 3 0 3 C0 2.01 0 1.02 0 0 Z M4 5 C5 7 5 7 5 7 Z M9 6 C10 8 10 8 10 8 Z M22 10 C23 12 23 12 23 12 Z M23 12 C23.33 13.65 23.66 15.3 24 17 C24.33 15.68 24.66 14.36 25 13 C24.34 12.67 23.68 12.34 23 12 Z M15 15 C15 15.99 15 16.98 15 18 C15.99 18 16.98 18 18 18 C18.66 18 19.32 18 20 18 C19.67 17.01 19.34 16.02 19 15 C17.68 15 16.36 15 15 15 Z M10 17 C10 17.66 10 18.32 10 19 C10.99 18.67 11.98 18.34 13 18 C12.01 17.67 11.02 17.34 10 17 Z M23 17 C22.34 17.66 21.68 18.32 21 19 C22.32 19.33 23.64 19.66 25 20 C24.67 19.01 24.34 18.02 24 17 C23.67 17 23.34 17 23 17 Z M20 21 C20 23.64 20 26.28 20 29 C20.33 29 20.66 29 21 29 C21 26.36 21 23.72 21 21 C20.67 21 20.34 21 20 21 Z " fill="#D16075" transform="translate(18,51)"/>
<path d="M0 0 C0.99 0.66 1.98 1.32 3 2 C5.64106542 2.31730856 5.64106542 2.31730856 8.5 2.25 C9.4590625 2.25515625 10.418125 2.2603125 11.40625 2.265625 C14.23622897 2.17982609 14.23622897 2.17982609 17 0 C16.6875 2.375 16.6875 2.375 16 5 C12.75790636 7.16139576 11.74322232 7.28794018 8 7 C7.34 6.67 6.68 6.34 6 6 C4.33499557 5.65846063 2.66821323 5.32550502 1 5 C0.01 4.67 -0.98 4.34 -2 4 C-2.66 4.99 -3.32 5.98 -4 7 C-6.625 7.1875 -6.625 7.1875 -9 7 C-9.56146794 10.50917465 -10.00929261 13.75374575 -9.875 17.3125 C-9.91625 18.199375 -9.9575 19.08625 -10 20 C-13.45662331 22.30441554 -14.94857881 22.25860135 -19 22 C-19.66 21.67 -20.32 21.34 -21 21 C-21.66 21.33 -22.32 21.66 -23 22 C-29.47058824 22.35294118 -29.47058824 22.35294118 -33 20 C-35.51599015 20.33652369 -35.51599015 20.33652369 -38 21 C-38.99 21 -39.98 21 -41 21 C-42.2065625 21.3403125 -42.2065625 21.3403125 -43.4375 21.6875 C-46 22 -46 22 -48.3125 20.75 C-50 19 -50 19 -50 16 C-47.02148438 16.43945312 -47.02148438 16.43945312 -44.04296875 16.87890625 C-41.7974658 17.13904799 -41.7974658 17.13904799 -39 16 C-38.38125 16.165 -37.7625 16.33 -37.125 16.5 C-34.93923417 17.17768588 -34.93923417 17.17768588 -32.5 16.4375 C-30 16 -30 16 -28.125 17 C-24.94394363 18.49696771 -22.36558388 17.64722767 -19 17 C-19 16.01 -19 15.02 -19 14 C-19.66 13.67 -20.32 13.34 -21 13 C-21 12.01 -21 11.02 -21 10 C-23.64 10.33 -26.28 10.66 -29 11 C-28.67 9.68 -28.34 8.36 -28 7 C-26.02 6.67 -24.04 6.34 -22 6 C-22 5.01 -22 4.02 -22 3 C-18.33333333 3 -14.66666667 3 -11 3 C-9.47291748 2.71962656 -7.95201166 2.40432553 -6.4375 2.0625 C-5.65246094 1.88847656 -4.86742187 1.71445313 -4.05859375 1.53515625 C-1.95638746 1.06477289 -1.95638746 1.06477289 0 0 Z M-20 6 C-19 8 -19 8 -19 8 Z M-13 6 C-13.99 6.66 -14.98 7.32 -16 8 C-14.68 8 -13.36 8 -12 8 C-12.33 7.34 -12.66 6.68 -13 6 Z M-16 12 C-12 13 -12 13 -12 13 Z " fill="#EC2077" transform="translate(89,67)"/>
<path d="M0 0 C6.0546875 -0.1953125 6.0546875 -0.1953125 8 0 C10.86274764 2.86274764 10.9615008 6.10388111 11 10 C10.0625 12.5 10.0625 12.5 9 14 C9.33 14.33 9.66 14.66 10 15 C10.24234375 14.21753906 10.4846875 13.43507813 10.734375 12.62890625 C11.06953125 11.61699219 11.4046875 10.60507812 11.75 9.5625 C12.07484375 8.55316406 12.3996875 7.54382812 12.734375 6.50390625 C14 4 14 4 16.140625 3.15234375 C16.75421875 3.10207031 17.3678125 3.05179688 18 3 C20.97068161 7.3852919 22.45941767 11.98491285 24 17 C23.01 17 22.02 17 21 17 C21 16.34 21 15.68 21 15 C18.06556598 15.26656572 18.06556598 15.26656572 15 16 C14.34 16.99 13.68 17.98 13 19 C12.01 18.67 11.02 18.34 10 18 C9.34 18.66 8.68 19.32 8 20 C5 20.25 5 20.25 2 20 C1.34 19.34 0.68 18.68 0 18 C0.54347826 11.91304348 0.54347826 11.91304348 2 9 C0.68 8.34 -0.64 7.68 -2 7 C-2 5.68 -2 4.36 -2 3 C-1.34 3 -0.68 3 0 3 C0 2.01 0 1.02 0 0 Z M4 5 C5 7 5 7 5 7 Z M9 6 C10 8 10 8 10 8 Z " fill="#E5378F" transform="translate(18,51)"/>
<path d="M0 0 C1.32 0.33 2.64 0.66 4 1 C3.98839844 1.68707031 3.97679687 2.37414063 3.96484375 3.08203125 C3.95582031 3.98308594 3.94679687 4.88414063 3.9375 5.8125 C3.92589844 6.70582031 3.91429687 7.59914063 3.90234375 8.51953125 C3.88990033 11.13413791 3.88990033 11.13413791 5 14 C7.00016466 15.20882096 7.00016466 15.20882096 9 16 C9.33 15.34 9.66 14.68 10 14 C13.63 14 17.26 14 21 14 C21.66 12.68 22.32 11.36 23 10 C23.99 10 24.98 10 26 10 C26.33 10.66 26.66 11.32 27 12 C27.66 12 28.32 12 29 12 C29.33 11.01 29.66 10.02 30 9 C30.99 9 31.98 9 33 9 C33.495 11.475 33.495 11.475 34 14 C34.20970559 9.85906302 34.20970559 9.85906302 33 6 C34.32 6.33 35.64 6.66 37 7 C37.76173392 11.3164922 38.16063604 14.74433453 37 19 C37.66 19 38.32 19 39 19 C39 19.66 39 20.32 39 21 C38.34 21 37.68 21 37 21 C37 21.66 37 22.32 37 23 C36.01 23 35.02 23 34 23 C34 23.66 34 24.32 34 25 C33.34 25 32.68 25 32 25 C32 21 32 21 33 20 C32.01 20 31.02 20 30 20 C29.34 21.32 28.68 22.64 28 24 C25 23 25 23 23.8125 20.9375 C23.544375 20.298125 23.27625 19.65875 23 19 C22.01 19 21.02 19 20 19 C19.01 21.475 19.01 21.475 18 24 C16.5 22.625 16.5 22.625 15 21 C15 20.34 15 19.68 15 19 C14.13375 19.04125 13.2675 19.0825 12.375 19.125 C8.81917267 18.99330269 4.65203164 18.65203164 2 16 C1.92755947 13.98035801 1.91622812 11.95832876 1.9375 9.9375 C1.94652344 8.83277344 1.95554688 7.72804688 1.96484375 6.58984375 C1.97644531 5.73519531 1.98804688 4.88054688 2 4 C1.34 4 0.68 4 0 4 C0 2.68 0 1.36 0 0 Z " fill="#EC348B" transform="translate(41,38)"/>
<path d="M0 0 C0.66 0 1.32 0 2 0 C4 2 4 2 4.23046875 3.91015625 C4.11111111 9.88888889 4.11111111 9.88888889 3 11 C3.41755959 14.25696479 3.63443291 15.63443291 6 18 C7.35439668 20.70879335 7.06501451 23.00933268 7 26 C6.34 26.33 5.68 26.66 5 27 C5 25.02 5 23.04 5 21 C4.01 21.33 3.02 21.66 2 22 C2 22.99 2 23.98 2 25 C0.68 24.67 -0.64 24.34 -2 24 C-2 23.34 -2 22.68 -2 22 C-3.65 22.66 -5.3 23.32 -7 24 C-7.33 23.01 -7.66 22.02 -8 21 C-7.01 21 -6.02 21 -5 21 C-5 20.01 -5 19.02 -5 18 C-5.66 17.67 -6.32 17.34 -7 17 C-6.835 16.195625 -6.67 15.39125 -6.5 14.5625 C-6.00564516 12.02893144 -5.98730227 11.16083793 -6.1875 8.625 C-6 6 -6 6 -4.625 4.1875 C-3 3 -3 3 -1 3 C-0.67 2.01 -0.34 1.02 0 0 Z " fill="#E19F71" transform="translate(69,26)"/>
<path d="M0 0 C0.78375 0.04125 1.5675 0.0825 2.375 0.125 C3.23277549 3.55610196 3.34191464 5.74079877 2.375 9.125 C2.705 9.455 3.035 9.785 3.375 10.125 C3.41580783 12.12458364 3.41754356 14.12545254 3.375 16.125 C3.045 16.125 2.715 16.125 2.375 16.125 C2.375 14.475 2.375 12.825 2.375 11.125 C1.385 11.62 1.385 11.62 0.375 12.125 C0.375 12.785 0.375 13.445 0.375 14.125 C-0.615 13.795 -1.605 13.465 -2.625 13.125 C-3.945 13.125 -5.265 13.125 -6.625 13.125 C-6.955 14.445 -7.285 15.765 -7.625 17.125 C-7.955 15.145 -8.285 13.165 -8.625 11.125 C-10.935 10.795 -13.245 10.465 -15.625 10.125 C-15.955 10.785 -16.285 11.445 -16.625 12.125 C-16.13921457 9.00209365 -15.6263988 6.12919641 -14.625 3.125 C-11.625 3.125 -11.625 3.125 -10.0625 4.625 C-9.588125 5.12 -9.11375 5.615 -8.625 6.125 C-7.965 6.125 -7.305 6.125 -6.625 6.125 C-6.191875 5.196875 -6.191875 5.196875 -5.75 4.25 C-4.16515329 1.25640067 -3.47581022 0.16551477 0 0 Z " fill="#EC277B" transform="translate(101.625,50.875)"/>
<path d="M0 0 C1.65 0 3.3 0 5 0 C5.103125 0.639375 5.20625 1.27875 5.3125 1.9375 C5.6528125 2.9584375 5.6528125 2.9584375 6 4 C6.99 4.33 7.98 4.66 9 5 C9.33 3.68 9.66 2.36 10 1 C10.66 1 11.32 1 12 1 C12.33 3.31 12.66 5.62 13 8 C13.66 8 14.32 8 15 8 C15.33 9.98 15.66 11.96 16 14 C13.525 13.505 13.525 13.505 11 13 C11 12.34 11 11.68 11 11 C10.34 11 9.68 11 9 11 C9 10.34 9 9.68 9 9 C6.36 9 3.72 9 1 9 C1.33 10.32 1.66 11.64 2 13 C-0.86177057 14.43088528 -2.93375773 13.59991697 -6 13 C-6 9.7 -6 6.4 -6 3 C-5.34 3 -4.68 3 -4 3 C-3.67 4.98 -3.34 6.96 -3 9 C-2.01 6.03 -1.02 3.06 0 0 Z " fill="#F41C77" transform="translate(60,57)"/>
<path d="M0 0 C2.97851562 0.43945312 2.97851562 0.43945312 5.95703125 0.87890625 C8.2025342 1.13904799 8.2025342 1.13904799 11 0 C11.61875 0.165 12.2375 0.33 12.875 0.5 C15.06076583 1.17768588 15.06076583 1.17768588 17.5 0.4375 C20 0 20 0 21.87890625 0.99609375 C24.41413356 2.19600797 25.69595263 2.05262437 28.4375 1.625 C31.67196976 1.16749276 34.73151254 1 38 1 C38.66 0.67 39.32 0.34 40 0 C39.625 2.4375 39.625 2.4375 39 5 C36.26094655 6.36952673 34.02912668 6.12621361 31 6 C30.34 5.67 29.68 5.34 29 5 C28.01 5.495 28.01 5.495 27 6 C20.52941176 6.35294118 20.52941176 6.35294118 17 4 C14.48400985 4.33652369 14.48400985 4.33652369 12 5 C11.01 5 10.02 5 9 5 C8.195625 5.226875 7.39125 5.45375 6.5625 5.6875 C4 6 4 6 1.6875 4.75 C0 3 0 3 0 0 Z " fill="#B41D57" transform="translate(39,83)"/>
<path d="M0 0 C0.66 -0.33 1.32 -0.66 2 -1 C4.2477975 1.05233685 5.0022242 2.00667261 6 5 C5.0625 7.1875 5.0625 7.1875 4 9 C4 7.02 4 5.04 4 3 C3.34 3 2.68 3 2 3 C2 5.97 2 8.94 2 12 C1.01 12.33 0.02 12.66 -1 13 C-1.33 11.35 -1.66 9.7 -2 8 C-2.66 9.65 -3.32 11.3 -4 13 C-4.99 13 -5.98 13 -7 13 C-7.03738281 12.39671875 -7.07476562 11.7934375 -7.11328125 11.171875 C-7.56253341 5.00632228 -7.56253341 5.00632228 -11 0 C-6.60377463 -2.32741343 -4.54492273 -1.71697081 0 0 Z M-4 3 C-3.67 3.66 -3.34 4.32 -3 5 C-2.67 4.34 -2.34 3.68 -2 3 C-2.66 3 -3.32 3 -4 3 Z " fill="#EA3A7E" transform="translate(52,57)"/>
<path d="M0 0 C0.99 0.33 1.98 0.66 3 1 C3 1.66 3 2.32 3 3 C3.53625 2.773125 4.0725 2.54625 4.625 2.3125 C8.06081901 1.86041855 10.05766694 3.32821985 13 5 C13 5.66 13 6.32 13 7 C12.360625 7.268125 11.72125 7.53625 11.0625 7.8125 C8.66868314 8.88667752 8.66868314 8.88667752 8 12 C9.32 11.67 10.64 11.34 12 11 C12 11.66 12 12.32 12 13 C9.36 13 6.72 13 4 13 C3.67 13.99 3.34 14.98 3 16 C1.35 15.01 -0.3 14.02 -2 13 C-1.34 8.71 -0.68 4.42 0 0 Z " fill="#F3D73D" transform="translate(47,39)"/>
<path d="M0 0 C0.99 0 1.98 0 3 0 C4.85792772 3.71585545 4.44024672 7.94476964 4 12 C2.375 15.625 2.375 15.625 0 18 C-3.25 18.375 -3.25 18.375 -6 18 C-6.33 17.01 -6.66 16.02 -7 15 C-5.76856473 13.60215455 -4.53437365 12.20656102 -3.28125 10.828125 C-1.0130925 7.59185149 -0.57283972 3.84743095 0 0 Z " fill="#F9BF64" transform="translate(34,70)"/>
<path d="M0 0 C1.32 0.33 2.64 0.66 4 1 C3.98839844 1.68707031 3.97679687 2.37414063 3.96484375 3.08203125 C3.95582031 3.98308594 3.94679687 4.88414063 3.9375 5.8125 C3.92589844 6.70582031 3.91429687 7.59914063 3.90234375 8.51953125 C3.88990033 11.13413791 3.88990033 11.13413791 5 14 C7.00016466 15.20882096 7.00016466 15.20882096 9 16 C9.33 15.34 9.66 14.68 10 14 C13.63 14 17.26 14 21 14 C21.66 12.68 22.32 11.36 23 10 C23.99 10 24.98 10 26 10 C26.33 11.65 26.66 13.3 27 15 C22.32798795 16.20568053 17.78503708 16.09382426 13 16 C12.67 16.99 12.34 17.98 12 19 C4.25 18.25 4.25 18.25 2 16 C1.8046875 13.1796875 1.8046875 13.1796875 1.875 9.875 C1.89304688 8.77929688 1.91109375 7.68359375 1.9296875 6.5546875 C1.95289063 5.71164063 1.97609375 4.86859375 2 4 C1.34 4 0.68 4 0 4 C0 2.68 0 1.36 0 0 Z " fill="#DA703E" transform="translate(41,38)"/>
<path d="M0 0 C0.99 0.66 1.98 1.32 3 2 C5.64106542 2.31730856 5.64106542 2.31730856 8.5 2.25 C9.4590625 2.25515625 10.418125 2.2603125 11.40625 2.265625 C14.23622897 2.17982609 14.23622897 2.17982609 17 0 C16.6875 2.375 16.6875 2.375 16 5 C12.75790636 7.16139576 11.74322232 7.28794018 8 7 C7.34 6.67 6.68 6.34 6 6 C4.33499557 5.65846063 2.66821323 5.32550502 1 5 C0.01 4.67 -0.98 4.34 -2 4 C-2.99 5.485 -2.99 5.485 -4 7 C-7.125 7.1875 -7.125 7.1875 -10 7 C-10.33 6.34 -10.66 5.68 -11 5 C-8.42695125 1.71221548 -6.02309208 1.51358622 -2 1 C-1.34 0.67 -0.68 0.34 0 0 Z " fill="#AE1A51" transform="translate(89,67)"/>
<path d="M0 0 C6.0546875 -0.1953125 6.0546875 -0.1953125 8 0 C10.4805082 2.4805082 10.67338368 4.53958568 11.046875 7.95703125 C10.97894007 10.91786196 9.78972884 12.70914709 8 15 C7.34 14.67 6.68 14.34 6 14 C6.350625 13.29875 6.70125 12.5975 7.0625 11.875 C8.1639193 8.49731414 7.79516141 6.41919407 7 3 C6.01 3 5.02 3 4 3 C4.33 3.66 4.66 4.32 5 5 C4.59255295 7.0571802 4.10151304 9.09831097 3.5625 11.125 C3.27503906 12.22070312 2.98757812 13.31640625 2.69140625 14.4453125 C2.34916016 15.70988281 2.34916016 15.70988281 2 17 C2.66 17.33 3.32 17.66 4 18 C2.68 18 1.36 18 0 18 C0.875 11.25 0.875 11.25 2 9 C0.68 8.34 -0.64 7.68 -2 7 C-2 5.68 -2 4.36 -2 3 C-1.34 3 -0.68 3 0 3 C0 2.01 0 1.02 0 0 Z M9 6 C10 8 10 8 10 8 Z " fill="#CB3587" transform="translate(18,51)"/>
<path d="M0 0 C0.99 0 1.98 0 3 0 C3.66 0.99 4.32 1.98 5 3 C5.99 3 6.98 3 8 3 C8 3.99 8 4.98 8 6 C8.99 6.33 9.98 6.66 11 7 C10.34 7.66 9.68 8.32 9 9 C6.8359375 8.9765625 6.8359375 8.9765625 4.375 8.625 C3.55773438 8.51414062 2.74046875 8.40328125 1.8984375 8.2890625 C1.27195312 8.19367187 0.64546875 8.09828125 0 8 C0 8.66 0 9.32 0 10 C-2.31 10.66 -4.62 11.32 -7 12 C-6.649375 11.236875 -6.29875 10.47375 -5.9375 9.6875 C-4.67639116 6.95240621 -4.67639116 6.95240621 -6 4 C-4.68 4 -3.36 4 -2 4 C-1.34 2.68 -0.68 1.36 0 0 Z " fill="#87BC6C" transform="translate(50,26)"/>
<path d="M0 0 C1.98 0 3.96 0 6 0 C6.05447047 1.41623216 6.09300508 2.83308191 6.125 4.25 C6.14820313 5.03890625 6.17140625 5.8278125 6.1953125 6.640625 C5.9828378 9.20731941 5.28654105 10.7916067 4 13 C4.99 13.33 5.98 13.66 7 14 C6.67 15.32 6.34 16.64 6 18 C4.02 18 2.04 18 0 18 C0 13.55963835 0.9699471 9.29603365 1.7578125 4.93359375 C1.83773438 3.96550781 1.91765625 2.99742188 2 2 C1.34 1.34 0.68 0.68 0 0 Z " fill="#F61B96" transform="translate(20,53)"/>
<path d="M0 0 C0.66 0 1.32 0 2 0 C4 2 4 2 4.1953125 3.9453125 C4.13020833 5.96354167 4.06510417 7.98177083 4 10 C0.7 10.33 -2.6 10.66 -6 11 C-6 6 -6 6 -4.625 4.1875 C-3 3 -3 3 -1 3 C-0.67 2.01 -0.34 1.02 0 0 Z " fill="#96975E" transform="translate(69,26)"/>
<path d="M0 0 C1.65 0 3.3 0 5 0 C5.85777549 3.43110196 5.96691464 5.61579877 5 9 C5.33 9.33 5.66 9.66 6 10 C6.04080783 11.99958364 6.04254356 14.00045254 6 16 C5.67 16 5.34 16 5 16 C5 14.35 5 12.7 5 11 C4.01 11.495 4.01 11.495 3 12 C3 12.66 3 13.32 3 14 C0 13 0 13 -2 10 C-1.01 10 -0.02 10 1 10 C0.34 8.35 -0.32 6.7 -1 5 C0.65 4.01 2.3 3.02 4 2 C2.35 2 0.7 2 -1 2 C-0.67 1.34 -0.34 0.68 0 0 Z " fill="#E53081" transform="translate(99,51)"/>
<path d="M0 0 C0.66 0 1.32 0 2 0 C1.40072174 3.35595828 0.15377564 5.37801226 -2 8 C-2.66 7.34 -3.32 6.68 -4 6 C-4.99 6 -5.98 6 -7 6 C-7.66 7.65 -8.32 9.3 -9 11 C-10.5 9.625 -10.5 9.625 -12 8 C-12 7.34 -12 6.68 -12 6 C-12.66 6 -13.32 6 -14 6 C-14 5.01 -14 4.02 -14 3 C-9.38 2.67 -4.76 2.34 0 2 C0 1.34 0 0.68 0 0 Z " fill="#FA7763" transform="translate(68,51)"/>
<path d="M0 0 C1.485 0.99 1.485 0.99 3 2 C5.0492094 2.45139459 5.0492094 2.45139459 7.1875 2.625 C8.445625 2.74875 9.70375 2.8725 11 3 C11.33 2.34 11.66 1.68 12 1 C13.65 1.33 15.3 1.66 17 2 C15.54984894 5.74622356 15.54984894 5.74622356 13.375 6.75 C4.09090909 7.72727273 4.09090909 7.72727273 0 5 C-0.1875 2.375 -0.1875 2.375 0 0 Z " fill="#B72E63" transform="translate(16,68)"/>
<path d="M0 0 C2.03448779 0.41740567 4.05401678 0.90895178 6.0625 1.4375 C7.71958984 1.86869141 7.71958984 1.86869141 9.41015625 2.30859375 C10.26480469 2.53675781 11.11945313 2.76492187 12 3 C12 3.66 12 4.32 12 5 C4.7618892 8.2676908 4.7618892 8.2676908 1.6875 7.1875 C1.130625 6.795625 0.57375 6.40375 0 6 C-0.99 6 -1.98 6 -3 6 C-1.125 1.125 -1.125 1.125 0 0 Z " fill="#E91E72" transform="translate(58,78)"/>
<path d="M0 0 C0.66 0.33 1.32 0.66 2 1 C1.67 2.65 1.34 4.3 1 6 C1.66 6 2.32 6 3 6 C3.66 7.32 4.32 8.64 5 10 C5.66 9.67 6.32 9.34 7 9 C7 10.32 7 11.64 7 13 C6.01 13 5.02 13 4 13 C3.67 13.99 3.34 14.98 3 16 C1.35 15.01 -0.3 14.02 -2 13 C-1.34 8.71 -0.68 4.42 0 0 Z " fill="#F5BC31" transform="translate(47,39)"/>
<path d="M0 0 C1.32 0.33 2.64 0.66 4 1 C3.98839844 1.68707031 3.97679687 2.37414063 3.96484375 3.08203125 C3.95582031 3.98308594 3.94679687 4.88414063 3.9375 5.8125 C3.92589844 6.70582031 3.91429687 7.59914063 3.90234375 8.51953125 C3.88990033 11.13413791 3.88990033 11.13413791 5 14 C7.49759982 15.69882448 7.49759982 15.69882448 10 17 C9.67 17.66 9.34 18.32 9 19 C3.125 17.125 3.125 17.125 2 16 C1.92755947 13.98035801 1.91622812 11.95832876 1.9375 9.9375 C1.94652344 8.83277344 1.95554688 7.72804688 1.96484375 6.58984375 C1.97644531 5.73519531 1.98804688 4.88054688 2 4 C1.34 4 0.68 4 0 4 C0 2.68 0 1.36 0 0 Z " fill="#B05F61" transform="translate(41,38)"/>
<path d="M0 0 C0.99 0.33 1.98 0.66 3 1 C1.68 1.33 0.36 1.66 -1 2 C-1 3.32 -1 4.64 -1 6 C-0.34 6 0.32 6 1 6 C1 5.34 1 4.68 1 4 C1.99 4 2.98 4 4 4 C4 3.34 4 2.68 4 2 C4.66 2 5.32 2 6 2 C5.49396008 4.16874252 5.00016187 5.99967627 4 8 C4.66 8.66 5.32 9.32 6 10 C1.25 9.125 1.25 9.125 -1 8 C-1.33 9.32 -1.66 10.64 -2 12 C-2 8.37 -2 4.74 -2 1 C-1.34 0.67 -0.68 0.34 0 0 Z " fill="#F00F74" transform="translate(74,57)"/>
<path d="M0 0 C1.91796875 0.6953125 1.91796875 0.6953125 4 2 C4.86328125 4.2421875 4.86328125 4.2421875 5.3125 6.875 C5.47363281 7.73867187 5.63476562 8.60234375 5.80078125 9.4921875 C5.99682591 11.96004384 5.75591323 13.66156338 5 16 C4.67 15.67 4.34 15.34 4 15 C3.67 16.65 3.34 18.3 3 20 C2.67 20 2.34 20 2 20 C2.02320313 19.02417969 2.04640625 18.04835938 2.0703125 17.04296875 C2.08835938 15.77066406 2.10640625 14.49835938 2.125 13.1875 C2.14820313 11.92292969 2.17140625 10.65835938 2.1953125 9.35546875 C2.27581918 5.8661976 2.27581918 5.8661976 0 3 C0 2.01 0 1.02 0 0 Z " fill="#C4396B" transform="translate(40,58)"/>
<path d="M0 0 C0.33 0.99 0.66 1.98 1 3 C3.97 3.33 6.94 3.66 10 4 C8 6 8 6 4.5625 6.25 C1 6 1 6 -2 4 C-4.64632287 4.3121764 -4.64632287 4.3121764 -7 5 C-7 4.34 -7 3.68 -7 3 C-6.01 3 -5.02 3 -4 3 C-4 2.34 -4 1.68 -4 1 C-2.68 0.67 -1.36 0.34 0 0 Z " fill="#9F1D51" transform="translate(58,83)"/>
<path d="M0 0 C0.66 0 1.32 0 2 0 C2.99 2.97 3.98 5.94 5 9 C4.01 9 3.02 9 2 9 C1.67 8.34 1.34 7.68 1 7 C-1.91652174 6.83318891 -1.91652174 6.83318891 -5 7 C-5.66 7.66 -6.32 8.32 -7 9 C-6.67 7.02 -6.34 5.04 -6 3 C-5.67 3.66 -5.34 4.32 -5 5 C-3.35 4.67 -1.7 4.34 0 4 C0 2.68 0 1.36 0 0 Z " fill="#E6187E" transform="translate(37,59)"/>
<path d="M0 0 C3.875 1.75 3.875 1.75 5 4 C5.039992 5.99960012 5.04346799 8.00047242 5 10 C4.01 10.495 4.01 10.495 3 11 C3 9.02 3 7.04 3 5 C2.01 5.33 1.02 5.66 0 6 C0 6.99 0 7.98 0 9 C-0.99 9 -1.98 9 -3 9 C-2.44271087 5.65626525 -1.64826111 2.96687001 0 0 Z " fill="#EBE7B2" transform="translate(71,42)"/>
<path d="M0 0 C1.65 0 3.3 0 5 0 C6 4.75 6 4.75 6 7 C5.236875 6.773125 4.47375 6.54625 3.6875 6.3125 C2.800625 6.209375 1.91375 6.10625 1 6 C0.01 6.99 -0.98 7.98 -2 9 C-1.34 6.03 -0.68 3.06 0 0 Z " fill="#F52683" transform="translate(60,57)"/>
<path d="M0 0 C0.99 0 1.98 0 3 0 C2.67 2.64 2.34 5.28 2 8 C1.01 8.33 0.02 8.66 -1 9 C-1 10.65 -1 12.3 -1 14 C-1.99 14 -2.98 14 -4 14 C-4.33 13.34 -4.66 12.68 -5 12 C-4.2578125 10.1953125 -4.2578125 10.1953125 -3.125 8.125 C-1.6560009 5.42327438 -0.6354956 3.01522382 0 0 Z " fill="#D65543" transform="translate(71,47)"/>
<path d="M0 0 C0.99 0.33 1.98 0.66 3 1 C3 3.97 3 6.94 3 10 C2.34 9.01 1.68 8.02 1 7 C-1.64 7.33 -4.28 7.66 -7 8 C-6.67 6.68 -6.34 5.36 -6 4 C-4.02 3.67 -2.04 3.34 0 3 C0 2.01 0 1.02 0 0 Z " fill="#BE2B62" transform="translate(67,70)"/>
<path d="M0 0 C0.33 0.66 0.66 1.32 1 2 C2.65 2 4.3 2 6 2 C5.85831863 3.43791516 5.71148957 4.8753237 5.5625 6.3125 C5.48128906 7.11300781 5.40007813 7.91351563 5.31640625 8.73828125 C5 11 5 11 4 14 C4.66 14.33 5.32 14.66 6 15 C4.68 15 3.36 15 2 15 C2.875 8.25 2.875 8.25 4 6 C2.68 5.34 1.36 4.68 0 4 C0 2.68 0 1.36 0 0 Z " fill="#E32B80" transform="translate(16,54)"/>
<path d="M0 0 C1.32 0 2.64 0 4 0 C4 0.99 4 1.98 4 3 C3.01 3 2.02 3 1 3 C1.33 4.65 1.66 6.3 2 8 C1.01 8 0.02 8 -1 8 C-1 7.34 -1 6.68 -1 6 C-2.32 6.33 -3.64 6.66 -5 7 C-4.67 5.68 -4.34 4.36 -4 3 C-2.68 2.67 -1.36 2.34 0 2 C0 1.34 0 0.68 0 0 Z " fill="#B4BB46" transform="translate(60,44)"/>
<path d="M0 0 C3.63 0.33 7.26 0.66 11 1 C10.67 3.31 10.34 5.62 10 8 C8.02 7.34 6.04 6.68 4 6 C4.33 5.34 4.66 4.68 5 4 C5.66 4 6.32 4 7 4 C7 3.34 7 2.68 7 2 C5.68 2 4.36 2 3 2 C2.67 2.99 2.34 3.98 2 5 C1.34 4.67 0.68 4.34 0 4 C0.66 3.01 1.32 2.02 2 1 C1.34 0.67 0.68 0.34 0 0 Z " fill="#E5D047" transform="translate(50,34)"/>
<path d="M0 0 C0 0.66 0 1.32 0 2 C-0.99 2.33 -1.98 2.66 -3 3 C-3.66 2.67 -4.32 2.34 -5 2 C-4.98839844 2.77085938 -4.97679687 3.54171875 -4.96484375 4.3359375 C-4.95130859 5.84027344 -4.95130859 5.84027344 -4.9375 7.375 C-4.92589844 8.37273437 -4.91429687 9.37046875 -4.90234375 10.3984375 C-5 13 -5 13 -6 15 C-8.475 14.01 -8.475 14.01 -11 13 C-10.34 12.67 -9.68 12.34 -9 12 C-8.34786708 9.97536745 -8.34786708 9.97536745 -8 8 C-8 8.66 -8 9.32 -8 10 C-7.34 10 -6.68 10 -6 10 C-6 7.03 -6 4.06 -6 1 C-4 0 -4 0 0 0 Z " fill="#E2347B" transform="translate(60,70)"/>
<path d="M0 0 C0.33 0 0.66 0 1 0 C1.36334661 7.38804781 1.36334661 7.38804781 -0.1875 10 C-2.55995679 11.30894168 -4.3335118 11.21620175 -7 11 C-6.67 9.68 -6.34 8.36 -6 7 C-4.35 6.67 -2.7 6.34 -1 6 C-0.67 4.02 -0.34 2.04 0 0 Z " fill="#F5CE3B" transform="translate(34,76)"/>
<path d="M0 0 C0.66 0.33 1.32 0.66 2 1 C0.5 3.5 0.5 3.5 -2 6 C-4.80138565 6.45442324 -7.13800875 6.23849927 -10 6 C-10 4.35 -10 2.7 -10 1 C-9.01 1.495 -9.01 1.495 -8 2 C-5 2.25 -5 2.25 -2 2 C-1.34 1.34 -0.68 0.68 0 0 Z " fill="#A54257" transform="translate(36,85)"/>
<path d="M0 0 C1.875 1.4375 1.875 1.4375 2.625 4.5625 C2.74875 5.985625 2.74875 5.985625 2.875 7.4375 C2.215 7.1075 1.555 6.7775 0.875 6.4375 C0.875 5.7775 0.875 5.1175 0.875 4.4375 C-1.105 4.4375 -3.085 4.4375 -5.125 4.4375 C-5.455 5.0975 -5.785 5.7575 -6.125 6.4375 C-5.795 4.4575 -5.465 2.4775 -5.125 0.4375 C-2.125 -0.5625 -2.125 -0.5625 0 0 Z " fill="#FD1A80" transform="translate(91.125,60.5625)"/>
<path d="M0 0 C0.66 0.33 1.32 0.66 2 1 C1.67 2.98 1.34 4.96 1 7 C0.071875 7.12375 0.071875 7.12375 -0.875 7.25 C-3.18437567 7.81258459 -3.18437567 7.81258459 -4.25 10.0625 C-4.4975 10.701875 -4.745 11.34125 -5 12 C-5.66 12 -6.32 12 -7 12 C-6.649375 11.236875 -6.29875 10.47375 -5.9375 9.6875 C-4.67639116 6.95240621 -4.67639116 6.95240621 -6 4 C-4.68 4 -3.36 4 -2 4 C-1.34 2.68 -0.68 1.36 0 0 Z " fill="#8DC67F" transform="translate(50,26)"/>
<path d="M0 0 C1.32 0.33 2.64 0.66 4 1 C5 7.625 5 7.625 5 11 C3.35 11 1.7 11 0 11 C0.08378906 10.37351562 0.16757813 9.74703125 0.25390625 9.1015625 C0.35574219 8.28429688 0.45757812 7.46703125 0.5625 6.625 C0.66691406 5.81289063 0.77132812 5.00078125 0.87890625 4.1640625 C1.18237328 1.95100814 1.18237328 1.95100814 0 0 Z " fill="#85976D" transform="translate(74,44)"/>
<path d="M0 0 C0.99 0 1.98 0 3 0 C3.125 2.875 3.125 2.875 3 6 C2.34 6.66 1.68 7.32 1 8 C-0.32 8 -1.64 8 -3 8 C-3.33 6.68 -3.66 5.36 -4 4 C-2.35 3.67 -0.7 3.34 1 3 C0.67 2.01 0.34 1.02 0 0 Z " fill="#F01478" transform="translate(101,62)"/>
<path d="M0 0 C1.98 0 3.96 0 6 0 C6 0.66 6 1.32 6 2 C5.34 2 4.68 2 4 2 C4.33 4.97 4.66 7.94 5 11 C4.34 11 3.68 11 3 11 C1.38935371 7.34920174 0.55105909 3.9492568 0 0 Z " fill="#EE1878" transform="translate(43,57)"/>
<path d="M0 0 C1.32 0 2.64 0 4 0 C4 0.66 4 1.32 4 2 C3.01 2.495 3.01 2.495 2 3 C3.65 3.99 5.3 4.98 7 6 C6.67 4.68 6.34 3.36 6 2 C8.7839183 3.39195915 8.97898997 5.15575779 10 8 C3.6 7.50769231 3.6 7.50769231 0.5625 4.9375 C-0.2109375 3.9784375 -0.2109375 3.9784375 -1 3 C-0.67 2.01 -0.34 1.02 0 0 Z " fill="#FCE061" transform="translate(53,36)"/>
<path d="M0 0 C1.65 0 3.3 0 5 0 C4.67 1.98 4.34 3.96 4 6 C3.34 6 2.68 6 2 6 C2 6.66 2 7.32 2 8 C1.34 8 0.68 8 0 8 C0 5.36 0 2.72 0 0 Z " fill="#F48C4A" transform="translate(66,38)"/>
<path d="M0 0 C0.86625 0.37125 0.86625 0.37125 1.75 0.75 C-1.25 2.75 -1.25 2.75 -3.25 3.75 C-2.92 5.4 -2.59 7.05 -2.25 8.75 C-3.57 9.08 -4.89 9.41 -6.25 9.75 C-6.58102914 6.1086795 -6.67019439 4.33527075 -4.5 1.3125 C-2.25 -0.25 -2.25 -0.25 0 0 Z " fill="#ED127A" transform="translate(102.25,52.25)"/>
<path d="M0 0 C1.9375 0.375 1.9375 0.375 4 1 C4.33 1.66 4.66 2.32 5 3 C5.66 2.67 6.32 2.34 7 2 C7 3.32 7 4.64 7 6 C4.69 5.67 2.38 5.34 0 5 C0 3.35 0 1.7 0 0 Z " fill="#F9C212" transform="translate(47,46)"/>
<path d="M0 0 C3.3 0 6.6 0 10 0 C9.67 0.99 9.34 1.98 9 3 C6.36 3 3.72 3 1 3 C0.67 2.01 0.34 1.02 0 0 Z " fill="#A7235C" transform="translate(18,72)"/>
<path d="M0 0 C0.99 0.33 1.98 0.66 3 1 C4.125 8.625 4.125 8.625 3 12 C1.68 11.01 0.36 10.02 -1 9 C-0.01 9 0.98 9 2 9 C2 8.34 2 7.68 2 7 C1.34 6.67 0.68 6.34 0 6 C0.66 6 1.32 6 2 6 C1.34 4.02 0.68 2.04 0 0 Z " fill="#C43E6E" transform="translate(75,69)"/>
<path d="M0 0 C0.99 0.33 1.98 0.66 3 1 C1.68 2.65 0.36 4.3 -1 6 C-1 5.34 -1 4.68 -1 4 C-2.65 4.66 -4.3 5.32 -6 6 C-6.33 5.01 -6.66 4.02 -7 3 C-6.01 3 -5.02 3 -4 3 C-4 2.34 -4 1.68 -4 1 C-2.68 1.33 -1.36 1.66 0 2 C0 1.34 0 0.68 0 0 Z " fill="#CCB56B" transform="translate(68,44)"/>
<path d="M0 0 C1.65 0 3.3 0 5 0 C5.59732819 2.76264289 6 5.16032769 6 8 C4.68 7.67 3.36 7.34 2 7 C2 6.34 2 5.68 2 5 C2.66 5 3.32 5 4 5 C4 4.01 4 3.02 4 2 C2.35 2 0.7 2 -1 2 C-0.67 1.34 -0.34 0.68 0 0 Z " fill="#CB467D" transform="translate(99,51)"/>
<path d="M0 0 C0 3.66666667 0 7.33333333 0 11 C-0.66 11 -1.32 11 -2 11 C-3.4606285 8.35261084 -4 7.10551666 -4 4 C-3.34 4 -2.68 4 -2 4 C-1.34 2.68 -0.68 1.36 0 0 Z " fill="#D1487F" transform="translate(97,53)"/>
<path d="M0 0 C0.33 0 0.66 0 1 0 C1.66 2.31 2.32 4.62 3 7 C2.21625 7.12375 1.4325 7.2475 0.625 7.375 C-2.14057822 7.79117993 -2.14057822 7.79117993 -4 10 C-3.67 8.35 -3.34 6.7 -3 5 C-2.01 5 -1.02 5 0 5 C0 3.35 0 1.7 0 0 Z " fill="#F2696D" transform="translate(73,50)"/>
<path d="M0 0 C0.99 0 1.98 0 3 0 C3 2.64 3 5.28 3 8 C2.38125 7.525625 1.7625 7.05125 1.125 6.5625 C-0.90705546 4.97582559 -0.90705546 4.97582559 -3 4 C-3 3.34 -3 2.68 -3 2 C-2.01 2 -1.02 2 0 2 C0 1.34 0 0.68 0 0 Z " fill="#9ABC71" transform="translate(70,28)"/>
<path d="M0 0 C0.33 0.66 0.66 1.32 1 2 C2.155 2.165 3.31 2.33 4.5 2.5 C5.655 2.665 6.81 2.83 8 3 C8.33 3.66 8.66 4.32 9 5 C6.75 5.6875 6.75 5.6875 4 6 C1.6875 4.75 1.6875 4.75 0 3 C0 2.01 0 1.02 0 0 Z " fill="#A01F54" transform="translate(39,83)"/>
<path d="M0 0 C1.21236328 0.01353516 1.21236328 0.01353516 2.44921875 0.02734375 C3.37154297 0.04474609 3.37154297 0.04474609 4.3125 0.0625 C3.9825 1.0525 3.6525 2.0425 3.3125 3.0625 C-1.4375 3.1875 -1.4375 3.1875 -3.6875 2.0625 C-5.01610925 1.71080932 -6.34908328 1.37479724 -7.6875 1.0625 C-4.80538698 0.10179566 -2.98899956 -0.04331883 0 0 Z " fill="#A01C50" transform="translate(98.6875,70.9375)"/>
<path d="M0 0 C0.66 0.99 1.32 1.98 2 3 C4.05925139 3.72382467 4.05925139 3.72382467 6 4 C5.01 5.485 5.01 5.485 4 7 C2.68 6.67 1.36 6.34 0 6 C0 5.01 0 4.02 0 3 C-0.66 2.67 -1.32 2.34 -2 2 C-1.34 2 -0.68 2 0 2 C0 1.34 0 0.68 0 0 Z " fill="#EF156B" transform="translate(70,78)"/>
<path d="M0 0 C0.625 1.875 0.625 1.875 1 4 C0.34 4.66 -0.32 5.32 -1 6 C-4.01305957 5.61121812 -5.39685311 4.73543126 -8 3 C-6.865625 2.690625 -5.73125 2.38125 -4.5625 2.0625 C-1.21224901 1.37075469 -1.21224901 1.37075469 0 0 Z " fill="#B82963" transform="translate(105,67)"/>
<path d="M0 0 C-0.33 1.32 -0.66 2.64 -1 4 C-2.98 4 -4.96 4 -7 4 C-7.33 3.34 -7.66 2.68 -8 2 C-5.09399739 0.74335022 -3.20395416 0 0 0 Z " fill="#EF207D" transform="translate(27,67)"/>
<path d="M0 0 C0.66 0.33 1.32 0.66 2 1 C2.4140625 3.06640625 2.4140625 3.06640625 2.625 5.5625 C2.69976562 6.38878906 2.77453125 7.21507813 2.8515625 8.06640625 C2.92503906 9.02353516 2.92503906 9.02353516 3 10 C2.34 10 1.68 10 1 10 C0.63883954 8.5225254 0.28624952 7.04295325 -0.0625 5.5625 C-0.25972656 4.73878906 -0.45695312 3.91507813 -0.66015625 3.06640625 C-0.82837891 2.04353516 -0.82837891 2.04353516 -1 1 C-0.67 0.67 -0.34 0.34 0 0 Z " fill="#BF3766" transform="translate(50,60)"/>
<path d="M0 0 C0.66 0.66 1.32 1.32 2 2 C1.625 4.125 1.625 4.125 1 6 C-0.65 6.33 -2.3 6.66 -4 7 C-3.34 5.35 -2.68 3.7 -2 2 C-1.34 2 -0.68 2 0 2 C0 1.34 0 0.68 0 0 Z " fill="#FC1F94" transform="translate(36,57)"/>
<path d="M0 0 C0.99 0 1.98 0 3 0 C3.33 1.65 3.66 3.3 4 5 C2.35 5 0.7 5 -1 5 C-0.67 3.35 -0.34 1.7 0 0 Z " fill="#DC523C" transform="translate(64,48)"/>
<path d="M0 0 C2.64 0 5.28 0 8 0 C8 0.33 8 0.66 8 1 C5.69 1 3.38 1 1 1 C1 1.66 1 2.32 1 3 C2.32 3.33 3.64 3.66 5 4 C2.92446352 4.5534764 1.15634036 5 -1 5 C-0.67 3.35 -0.34 1.7 0 0 Z " fill="#D84499" transform="translate(18,51)"/>
<path d="M0 0 C0.33 0.66 0.66 1.32 1 2 C1.66 2 2.32 2 3 2 C3 3.65 3 5.3 3 7 C0.525 6.01 0.525 6.01 -2 5 C-1.34 4.67 -0.68 4.34 0 4 C0 2.68 0 1.36 0 0 Z " fill="#DB2E75" transform="translate(51,78)"/>
<path d="M0 0 C0.33 1.98 0.66 3.96 1 6 C-0.65 5.67 -2.3 5.34 -4 5 C-4.33 3.68 -4.66 2.36 -5 1 C-2 0 -2 0 0 0 Z " fill="#F92C86" transform="translate(75,65)"/>
<path d="M0 0 C1.76462683 3.08809695 2 4.23312136 2 8 C-0.475 7.01 -0.475 7.01 -3 6 C-2.01 4.02 -1.02 2.04 0 0 Z " fill="#E22F77" transform="translate(80,59)"/>
<path d="M0 0 C0.66 0.66 1.32 1.32 2 2 C1.625 4.125 1.625 4.125 1 6 C0.67 5.01 0.34 4.02 0 3 C-1.98 3 -3.96 3 -6 3 C-5.67 2.34 -5.34 1.68 -5 1 C-3.35 1.33 -1.7 1.66 0 2 C0 1.34 0 0.68 0 0 Z " fill="#F3096E" transform="translate(92,62)"/>
<path d="M0 0 C0.33 0.66 0.66 1.32 1 2 C2.65 2 4.3 2 6 2 C5.67 2.99 5.34 3.98 5 5 C3.35 4.67 1.7 4.34 0 4 C0 2.68 0 1.36 0 0 Z " fill="#B42F6B" transform="translate(16,54)"/>
<path d="M0 0 C0 0.66 0 1.32 0 2 C-0.66 2 -1.32 2 -2 2 C-1.34 3.32 -0.68 4.64 0 6 C-2.475 5.01 -2.475 5.01 -5 4 C-4.67 3.01 -4.34 2.02 -4 1 C-2 0 -2 0 0 0 Z " fill="#FB3F90" transform="translate(103,54)"/>
<path d="M0 0 C1.67542976 0.28604898 3.34385343 0.61781233 5 1 C4.01 1.33 3.02 1.66 2 2 C0.78130071 4.50447516 0.78130071 4.50447516 0 7 C-0.66 6.67 -1.32 6.34 -2 6 C-2 5.34 -2 4.68 -2 4 C-1.34 4 -0.68 4 0 4 C-0.33 3.01 -0.66 2.02 -1 1 C-0.67 0.67 -0.34 0.34 0 0 Z " fill="#FD6F77" transform="translate(59,55)"/>
<path d="M0 0 C0.66 0 1.32 0 2 0 C2.33 1.98 2.66 3.96 3 6 C1.02 6.99 1.02 6.99 -1 8 C-0.649375 7.236875 -0.29875 6.47375 0.0625 5.6875 C1.32360884 2.95240621 1.32360884 2.95240621 0 0 Z " fill="#95B185" transform="translate(44,30)"/>
<path d="M0 0 C0.99 0.99 1.98 1.98 3 3 C1.68 3 0.36 3 -1 3 C-0.67 2.01 -0.34 1.02 0 0 Z " fill="#9F6071" transform="translate(42,31)"/>
</svg>
