<?xml version="1.0" encoding="UTF-8"?>
<svg version="1.1" xmlns="http://www.w3.org/2000/svg" width="135" height="101">
<path d="M0 0 C3.6875 -0.25 3.6875 -0.25 7 0 C7.185625 0.639375 7.37125 1.27875 7.5625 1.9375 C8.94246056 4.42126213 8.94246056 4.42126213 12.625 4.75 C13.73875 4.8325 14.8525 4.915 16 5 C16.495 7.475 16.495 7.475 17 10 C17.99 10.33 18.98 10.66 20 11 C20.433125 10.071875 20.86625 9.14375 21.3125 8.1875 C22.74233387 5.48670268 23.8015891 3.99855536 26 2 C26.33 1.34 26.66 0.68 27 0 C28.98 0 30.96 0 33 0 C33.495 1.485 33.495 1.485 34 3 C36.50447516 4.21869929 36.50447516 4.21869929 39 5 C38.4745401 10.03099901 37.88582861 15.01721406 37 20 C36.7215625 21.670625 36.7215625 21.670625 36.4375 23.375 C36.293125 24.24125 36.14875 25.1075 36 26 C37.0828125 26.0928125 37.0828125 26.0928125 38.1875 26.1875 C41.8589027 27.24812745 43.47702938 29.19669931 46 32 C46.33 32.33 46.66 32.66 47 33 C47.4457809 38.01762683 47.35033491 42.44622611 45 47 C46.485 47.495 46.485 47.495 48 48 C48.33 48.66 48.66 49.32 49 50 C49.598125 49.05125 50.19625 48.1025 50.8125 47.125 C53 44 53 44 56 42 C60.25330603 42.27148762 62.80936889 43.17751864 66 46 C66.721875 45.071875 67.44375 44.14375 68.1875 43.1875 C70.54837449 40.39677442 72.54667225 38.39777552 76 37 C82.32142857 37.32142857 82.32142857 37.32142857 85 40 C85.42295126 44.38092203 85.37159268 48.77676538 85.37060547 53.17578125 C85.37497037 55.36017289 85.41125701 57.54252975 85.44921875 59.7265625 C85.4550887 61.1171806 85.4590569 62.50780829 85.4609375 63.8984375 C85.46915527 65.16349121 85.47737305 66.42854492 85.48583984 67.73193359 C84.91883915 71.54593925 84.02622074 72.69767802 81 75 C77.23844778 76.19127853 73.76202457 76.25400819 70 75 C70 74.34 70 73.68 70 73 C69.01 73.66 68.02 74.32 67 75 C64.4375 74.875 64.4375 74.875 62 74 C60.6875 71.9375 60.6875 71.9375 60 70 C58.68 70 57.36 70 56 70 C55.938125 70.61875 55.87625 71.2375 55.8125 71.875 C55 74 55 74 52.6875 75.25 C50 76 50 76 46 76 C46.02320312 76.94101563 46.04640625 77.88203125 46.0703125 78.8515625 C46.08835937 80.09679687 46.10640625 81.34203125 46.125 82.625 C46.14820312 83.85476562 46.17140625 85.08453125 46.1953125 86.3515625 C46.00046109 89.99138679 45.45336464 92.66753765 44 96 C40.48940414 98.53089469 38.64665751 99.04384119 34.3125 98.75 C31 98 31 98 28 97 C27.1646875 97.4640625 27.1646875 97.4640625 26.3125 97.9375 C22.91094784 99.50037531 19.63945253 99.59960329 16 99 C13.69600326 97.8820269 12.0189657 96.61517256 10 95 C9.34 95.66 8.68 96.32 8 97 C5.125 97.125 5.125 97.125 2 97 C-1.90225768 96.74549323 -1.90225768 96.74549323 -4.875 98.1875 C-8 99 -8 99 -11.1875 97.75 C-13.14519812 96.53187672 -15.08151389 95.27899074 -17 94 C-17.639375 94.969375 -18.27875 95.93875 -18.9375 96.9375 C-21 100 -21 100 -22 101 C-24.35313555 101.07271741 -26.70833668 101.08370868 -29.0625 101.0625 C-30.99802734 101.04896484 -30.99802734 101.04896484 -32.97265625 101.03515625 C-33.97167969 101.02355469 -34.97070312 101.01195313 -36 101 C-36.78954175 90.98159245 -36.78954175 90.98159245 -33.6875 87.125 C-32.800625 86.42375 -31.91375 85.7225 -31 85 C-28.68752705 81.69646721 -27.5701685 78.99117947 -27 75 C-28.36125 75.495 -28.36125 75.495 -29.75 76 C-35.50745241 77.63657645 -42.81474334 78.49142452 -48.3359375 75.90625 C-50.80632024 73.07632798 -50.4965774 70.88574528 -50.4375 67.1875 C-50.43621094 65.98480469 -50.43492188 64.78210938 -50.43359375 63.54296875 C-49.97158761 59.76783752 -48.88974889 57.27322553 -47 54 C-47.99 53.34 -48.98 52.68 -50 52 C-50.43359375 49.28515625 -50.43359375 49.28515625 -50.4375 46.0625 C-50.45683594 45.00160156 -50.47617187 43.94070312 -50.49609375 42.84765625 C-50 40 -50 40 -48.25 38.140625 C-43.78483435 35.87703408 -38.95435351 36.56569922 -34.1875 37.625 C-31.17058996 39.52134345 -29.78247154 41.96319664 -28 45 C-27.443125 44.319375 -26.88625 43.63875 -26.3125 42.9375 C-24 41 -24 41 -21.5625 40.9375 C-18.24654051 42.31241003 -16.3768858 44.35147011 -14 47 C-12.68 46.34 -11.36 45.68 -10 45 C-9.91925797 42.37438891 -9.8596377 39.75124324 -9.8125 37.125 C-9.78736328 36.37863281 -9.76222656 35.63226563 -9.73632812 34.86328125 C-9.6701236 32.43778172 -9.6701236 32.43778172 -10 29 C-10.99 28.34 -11.98 27.68 -13 27 C-13.27807587 24.30595309 -13.37234777 21.87586168 -13.3125 19.1875 C-13.31572266 18.47529297 -13.31894531 17.76308594 -13.32226562 17.02929688 C-13.27880165 12.75797388 -13.20095863 8.20095863 -10 5 C-8.88625 4.896875 -7.7725 4.79375 -6.625 4.6875 C-2.94408623 4.41812084 -2.94408623 4.41812084 -1.5 1.9375 C-1.005 1.298125 -0.51 0.65875 0 0 Z M19 17 C19 18.65 19 20.3 19 22 C19.66 21.67 20.32 21.34 21 21 C20.34 19.68 19.68 18.36 19 17 Z M20 80 C19.34 80.66 18.68 81.32 18 82 C20.31 82 22.62 82 25 82 C22.32357511 79.81509993 22.32357511 79.81509993 20 80 Z " fill="#F4ABCD" transform="translate(50,0)"/>
<path d="M0 0 C0.495 1.485 0.495 1.485 1 3 C1.66 3 2.32 3 3 3 C4.125 8.75 4.125 8.75 3 11 C3.721875 11.061875 4.44375 11.12375 5.1875 11.1875 C8.8589027 12.24812745 10.47702938 14.19669931 13 17 C13.33 17.33 13.66 17.66 14 18 C14.4457809 23.01762683 14.35033491 27.44622611 12 32 C12.99 32.33 13.98 32.66 15 33 C15.33 33.66 15.66 34.32 16 35 C16.598125 34.05125 17.19625 33.1025 17.8125 32.125 C20 29 20 29 23 27 C27.25330603 27.27148762 29.80936889 28.17751864 33 31 C33.721875 30.071875 34.44375 29.14375 35.1875 28.1875 C37.54837449 25.39677442 39.54667225 23.39777552 43 22 C49.32142857 22.32142857 49.32142857 22.32142857 52 25 C52.42295126 29.38092203 52.37159268 33.77676538 52.37060547 38.17578125 C52.37497037 40.36017289 52.41125701 42.54252975 52.44921875 44.7265625 C52.4550887 46.1171806 52.4590569 47.50780829 52.4609375 48.8984375 C52.46915527 50.16349121 52.47737305 51.42854492 52.48583984 52.73193359 C51.91883915 56.54593925 51.02622074 57.69767802 48 60 C44.23844778 61.19127853 40.76202457 61.25400819 37 60 C37 59.34 37 58.68 37 58 C36.01 58.66 35.02 59.32 34 60 C31.4375 59.875 31.4375 59.875 29 59 C27.6875 56.9375 27.6875 56.9375 27 55 C25.68 55 24.36 55 23 55 C22.9071875 55.928125 22.9071875 55.928125 22.8125 56.875 C22 59 22 59 19.875 60.1875 C16.59815309 61.11356543 13.37905283 61.60246437 10 62 C10 59 10 59 11 58 C9.01487051 54.88794071 9.01487051 54.88794071 5.8125 53.25 C5.214375 53.1675 4.61625 53.085 4 53 C3.67 51.35 3.34 49.7 3 48 C3 49.65 3 51.3 3 53 C0.03 53 -2.94 53 -6 53 C-6.495 51.02 -6.495 51.02 -7 49 C-8.27875 48.938125 -9.5575 48.87625 -10.875 48.8125 C-11.59429687 48.77769531 -12.31359375 48.74289063 -13.0546875 48.70703125 C-13.69664063 48.80371094 -14.33859375 48.90039062 -15 49 C-15.66 49.99 -16.32 50.98 -17 52 C-17.66 52 -18.32 52 -19 52 C-19 48.7 -19 45.4 -19 42 C-19.99 42.495 -19.99 42.495 -21 43 C-21.46651207 45.12576782 -21.46651207 45.12576782 -21.625 47.5625 C-21.69976562 48.38878906 -21.77453125 49.21507812 -21.8515625 50.06640625 C-21.90054688 50.70449219 -21.94953125 51.34257813 -22 52 C-22.33 52 -22.66 52 -23 52 C-23.33 46.72 -23.66 41.44 -24 36 C-25.98 35.34 -27.96 34.68 -30 34 C-30 35.65 -30 37.3 -30 39 C-31.65 39 -33.3 39 -35 39 C-34.67 43.29 -34.34 47.58 -34 52 C-35.98 52.495 -35.98 52.495 -38 53 C-39.72316831 49.55366338 -39.29307486 45.55730063 -39.42578125 41.75 C-39.69545665 38.85966586 -39.69545665 38.85966586 -42.04296875 37.625 C-42.68878906 37.41875 -43.33460937 37.2125 -44 37 C-44 35.68 -44 34.36 -44 33 C-40.73012965 32.77412227 -37.45920719 32.57233395 -34.1875 32.375 C-32.7943457 32.27832031 -32.7943457 32.27832031 -31.37304688 32.1796875 C-30.48037109 32.128125 -29.58769531 32.0765625 -28.66796875 32.0234375 C-27.84578857 31.97106934 -27.0236084 31.91870117 -26.17651367 31.86474609 C-24 32 -24 32 -21 34 C-20.8125 37.125 -20.8125 37.125 -21 40 C-18.21249856 38.60624928 -18.10733713 36.83755139 -17 34 C-15 32 -15 32 -12.6875 31.5625 C-8.84353785 32.18826128 -7.40965818 34.03956281 -5 37 C-5 37.99 -5 38.98 -5 40 C-4.34 40 -3.68 40 -3 40 C-3 38.02 -3 36.04 -3 34 C-2.30132812 33.67386719 -1.60265625 33.34773438 -0.8828125 33.01171875 C0.02726562 32.57472656 0.93734375 32.13773438 1.875 31.6875 C2.77992187 31.25824219 3.68484375 30.82898438 4.6171875 30.38671875 C7.26449476 29.0800612 7.26449476 29.0800612 9 26 C9.07905064 23.66800612 9.08798769 21.33167378 9 19 C8.34 18.67 7.68 18.34 7 18 C7.268125 19.051875 7.53625 20.10375 7.8125 21.1875 C8 25 8 25 5.5625 27.9375 C4.716875 28.618125 3.87125 29.29875 3 30 C3.33 26.7 3.66 23.4 4 20 C1.54775306 20.10613836 1.54775306 20.10613836 -1 21 C-2.37466625 23.47636012 -2.37466625 23.47636012 -3 26 C-3.66 26 -4.32 26 -5 26 C-5.1875 22.6875 -5.1875 22.6875 -5 19 C-4.505 18.5875 -4.01 18.175 -3.5 17.75 C-1.11211351 14.96413243 -1.68565048 11.79598289 -1.8125 8.3125 C-1.82603516 7.61060547 -1.83957031 6.90871094 -1.85351562 6.18554688 C-1.88879818 4.45670171 -1.94260417 2.72825235 -2 1 C-1.34 0.67 -0.68 0.34 0 0 Z " fill="#FAC1DC" transform="translate(83,15)"/>
<path d="M0 0 C3.6875 -0.25 3.6875 -0.25 7 0 C7.185625 0.639375 7.37125 1.27875 7.5625 1.9375 C8.94246056 4.42126213 8.94246056 4.42126213 12.625 4.75 C13.73875 4.8325 14.8525 4.915 16 5 C16.33 6.65 16.66 8.3 17 10 C17.99 10.33 18.98 10.66 20 11 C20.433125 10.071875 20.86625 9.14375 21.3125 8.1875 C22.74233387 5.48670268 23.8015891 3.99855536 26 2 C26.33 1.34 26.66 0.68 27 0 C28.98 0 30.96 0 33 0 C33.495 1.485 33.495 1.485 34 3 C36.50447516 4.21869929 36.50447516 4.21869929 39 5 C38.88490339 6.41750563 38.75746342 7.83401169 38.625 9.25 C38.55539063 10.03890625 38.48578125 10.8278125 38.4140625 11.640625 C37.98492887 14.085877 37.21399362 15.84836903 36 18 C35.34 18 34.68 18 34 18 C33.505 17.01 33.505 17.01 33 16 C32.34 16 31.68 16 31 16 C31.15984375 16.54527344 31.3196875 17.09054688 31.484375 17.65234375 C32.07322599 20.33340014 32.2051966 22.8182915 32.25 25.5625 C32.27578125 26.51253906 32.3015625 27.46257813 32.328125 28.44140625 C31.94065567 31.46274447 31.18280792 32.01258409 29 34 C28.26958147 37.61023099 28.26958147 37.61023099 28 41 C30.7839183 39.60804085 30.97898997 37.84424221 32 35 C33.65 35 35.3 35 37 35 C37 37.97 37 40.94 37 44 C39.60334924 41.28817788 39.99456691 40.10866187 40.1875 36.25 C40.125625 35.1775 40.06375 34.105 40 33 C40.99 33.33 41.98 33.66 43 34 C43.30260773 37.85824861 43.3752043 40.31212545 41.5 43.75 C39.04744706 45.95729765 37.85133891 46.49365955 34.8125 47.4375 C32.72788854 48.03654662 32.72788854 48.03654662 31 49 C29.85968434 52.07797583 29.85968434 52.07797583 30 55 C29.34 55 28.68 55 28 55 C26.96210419 53.35666496 25.96432076 51.68756133 25 50 C23.17296773 47.7508092 23.17296773 47.7508092 20.5 47.75 C17.82703227 47.7508092 17.82703227 47.7508092 16 50 C15.29289322 51.64991582 14.62056011 53.31562256 14 55 C13.34 55 12.68 55 12 55 C12 53.02 12 51.04 12 49 C10.75283203 48.81824219 10.75283203 48.81824219 9.48046875 48.6328125 C8.39378906 48.46523438 7.30710937 48.29765625 6.1875 48.125 C5.10855469 47.96257813 4.02960937 47.80015625 2.91796875 47.6328125 C0 47 0 47 -3 45 C-3 45.66 -3 46.32 -3 47 C-5.375 47.1875 -5.375 47.1875 -8 47 C-10.75498278 42.86752582 -10.0716004 39.12709851 -9.83398438 34.36132812 C-9.73945564 32.13936708 -9.73945564 32.13936708 -10 29 C-10.99 28.34 -11.98 27.68 -13 27 C-13.27807587 24.30595309 -13.37234777 21.87586168 -13.3125 19.1875 C-13.31572266 18.47529297 -13.31894531 17.76308594 -13.32226562 17.02929688 C-13.27880165 12.75797388 -13.20095863 8.20095863 -10 5 C-8.88625 4.896875 -7.7725 4.79375 -6.625 4.6875 C-2.94408623 4.41812084 -2.94408623 4.41812084 -1.5 1.9375 C-1.005 1.298125 -0.51 0.65875 0 0 Z M19 17 C19 18.65 19 20.3 19 22 C19.66 21.67 20.32 21.34 21 21 C20.34 19.68 19.68 18.36 19 17 Z " fill="#F7F5F4" transform="translate(50,0)"/>
<path d="M0 0 C2.2421875 -0.3984375 2.2421875 -0.3984375 4.875 -0.375 C5.73867187 -0.38273437 6.60234375 -0.39046875 7.4921875 -0.3984375 C10.47265783 0.07509517 11.86272682 0.88734978 14 3 C14.25 6.1875 14.25 6.1875 14 9 C16.33071879 9.41870553 16.33071879 9.41870553 19 9 C20.38232443 7.37373596 21.71937515 5.7074998 23 4 C23.99 4 24.98 4 26 4 C26.556875 5.11375 27.11375 6.2275 27.6875 7.375 C29.63376736 10.80512368 31.13518401 11.9099237 35 13 C35.99 13.66 36.98 14.32 38 15 C38.44140625 17.49609375 38.44140625 17.49609375 38.5625 20.4375 C38.76180361 25.00118369 38.76180361 25.00118369 41 29 C40.625 32.1875 40.625 32.1875 40 35 C35.81717647 30.81717647 35.71089533 26.04422807 35.44140625 20.40234375 C34.92304135 17.58115423 33.85849763 16.14594526 32 14 C31.91087781 17.83225427 32.12132271 21.26562152 33 25 C31.68 25 30.36 25 29 25 C29 24.01 29 23.02 29 22 C27.72125 22.103125 26.4425 22.20625 25.125 22.3125 C24.40570312 22.37050781 23.68640625 22.42851563 22.9453125 22.48828125 C20.60480784 22.87393036 20.60480784 22.87393036 19 26 C18.01 26 17.02 26 16 26 C16 22.66666667 16 19.33333333 16 16 C14.40861915 20.17737474 13.78721942 23.53160785 14 28 C16.31 28 18.62 28 21 28 C21 29.65 21 31.3 21 33 C14.17923146 35.89365938 7.39468054 37.09154474 0 36 C-2.328125 34.90234375 -2.328125 34.90234375 -4 33 C-4.49609375 29.85546875 -4.49609375 29.85546875 -4.4375 26.1875 C-4.43621094 24.98480469 -4.43492187 23.78210938 -4.43359375 22.54296875 C-3.97158761 18.76783752 -2.88974889 16.27322553 -1 13 C-1.99 12.34 -2.98 11.68 -4 11 C-4.40843923 8.28796348 -4.13336867 5.7562858 -4 3 C-3.34 3 -2.68 3 -2 3 C-1.34 2.01 -0.68 1.02 0 0 Z " fill="#FBBEDB" transform="translate(4,41)"/>
<path d="M0 0 C0.99 0.33 1.98 0.66 3 1 C3 1.99 3 2.98 3 4 C3.99 4 4.98 4 6 4 C6 5.65 6 7.3 6 9 C6.99 9.33 7.98 9.66 9 10 C8.34 11.32 7.68 12.64 7 14 C6.34 14 5.68 14 5 14 C4.505 13.01 4.505 13.01 4 12 C3.34 12 2.68 12 2 12 C2.23976563 12.81791016 2.23976563 12.81791016 2.484375 13.65234375 C3.07322599 16.33340014 3.2051966 18.8182915 3.25 21.5625 C3.27578125 22.51253906 3.3015625 23.46257813 3.328125 24.44140625 C2.94065567 27.46274447 2.18280792 28.01258409 0 30 C-0.73041853 33.61023099 -0.73041853 33.61023099 -1 37 C1.7839183 35.60804085 1.97898997 33.84424221 3 31 C4.65 31 6.3 31 8 31 C8 33.97 8 36.94 8 40 C10.60334924 37.28817788 10.99456691 36.10866187 11.1875 32.25 C11.125625 31.1775 11.06375 30.105 11 29 C11.99 29.33 12.98 29.66 14 30 C14.30260773 33.85824861 14.3752043 36.31212545 12.5 39.75 C10.04744706 41.95729765 8.85133891 42.49365955 5.8125 43.4375 C3.72788854 44.03654662 3.72788854 44.03654662 2 45 C0.85968434 48.07797583 0.85968434 48.07797583 1 51 C0.34 51 -0.32 51 -1 51 C-2.03789581 49.35666496 -3.03567924 47.68756133 -4 46 C-5.82703227 43.7508092 -5.82703227 43.7508092 -8.5 43.75 C-11.17296773 43.7508092 -11.17296773 43.7508092 -13 46 C-13.70710678 47.64991582 -14.37943989 49.31562256 -15 51 C-15.66 51 -16.32 51 -17 51 C-17 49.02 -17 47.04 -17 45 C-19.97 44.67 -22.94 44.34 -26 44 C-26.33 42.35 -26.66 40.7 -27 39 C-28.98 39.495 -28.98 39.495 -31 40 C-33.56761548 37.38521048 -33.9956345 36.05471424 -34.29296875 32.328125 C-34.27316751 30.96843965 -34.23759202 29.6089066 -34.1875 28.25 C-34.17396484 27.55261719 -34.16042969 26.85523437 -34.14648438 26.13671875 C-34.1112945 24.42414459 -34.05749155 22.71197059 -34 21 C-33.34 21 -32.68 21 -32 21 C-31.67 20.01 -31.34 19.02 -31 18 C-31 18.66 -31 19.32 -31 20 C-30.01 20 -29.02 20 -28 20 C-28.62759865 22.92879371 -29.58622659 25.36095629 -31 28 C-28.525 28.99 -28.525 28.99 -26 30 C-26 31.32 -26 32.64 -26 34 C-25.01 34 -24.02 34 -23 34 C-23 33.01 -23 32.02 -23 31 C-22.34 31 -21.68 31 -21 31 C-20.7834375 30.071875 -20.7834375 30.071875 -20.5625 29.125 C-20 27 -20 27 -19 25 C-17.02 25.33 -15.04 25.66 -13 26 C-13.495 25.54625 -13.99 25.0925 -14.5 24.625 C-16 23 -16 23 -16 21 C-17.65 21 -19.3 21 -21 21 C-21 19.68 -21 18.36 -21 17 C-18.69 17 -16.38 17 -14 17 C-11 23.625 -11 23.625 -11 27 C-9.02 27.33 -7.04 27.66 -5 28 C-5.01160156 27.14535156 -5.02320312 26.29070313 -5.03515625 25.41015625 C-5.04417969 24.30542969 -5.05320312 23.20070313 -5.0625 22.0625 C-5.07410156 20.96035156 -5.08570312 19.85820312 -5.09765625 18.72265625 C-5 16 -5 16 -4 15 C-3.92794489 13.31391034 -3.91613932 11.62499341 -3.9375 9.9375 C-3.94652344 9.01839844 -3.95554687 8.09929688 -3.96484375 7.15234375 C-3.97644531 6.44207031 -3.98804687 5.73179688 -4 5 C-2.68 5 -1.36 5 0 5 C0 3.35 0 1.7 0 0 Z " fill="#B9B649" transform="translate(79,4)"/>
<path d="M0 0 C3.3125 0.5625 3.3125 0.5625 6.3125 2.5625 C6.3125 3.2225 6.3125 3.8825 6.3125 4.5625 C4.4253125 4.4696875 4.4253125 4.4696875 2.5 4.375 C-0.01863951 4.39728885 -1.41745606 4.42747803 -3.6875 5.5625 C-5.32733879 8.84217758 -4.86595638 11.93388689 -4.6875 15.5625 C-2.04291621 16.88479189 -0.00988699 16.65927194 2.9375 16.625 C3.94039062 16.61597656 4.94328125 16.60695313 5.9765625 16.59765625 C7.13285156 16.58025391 7.13285156 16.58025391 8.3125 16.5625 C8.3125 18.2125 8.3125 19.8625 8.3125 21.5625 C8.9725 21.5625 9.6325 21.5625 10.3125 21.5625 C9.9825 17.2725 9.6525 12.9825 9.3125 8.5625 C8.9825 9.5525 8.6525 10.5425 8.3125 11.5625 C4.6825 11.8925 1.0525 12.2225 -2.6875 12.5625 C-2.3575 10.9125 -2.0275 9.2625 -1.6875 7.5625 C-0.945 7.418125 -0.2025 7.27375 0.5625 7.125 C2.83277739 6.66062508 5.07009479 6.14386431 7.3125 5.5625 C7.6425 4.2425 7.9725 2.9225 8.3125 1.5625 C9.3025 1.8925 10.2925 2.2225 11.3125 2.5625 C13.04574119 2.47788508 14.77642812 2.32645645 16.5 2.125 C17.40105469 2.02316406 18.30210938 1.92132813 19.23046875 1.81640625 C19.91753906 1.73261719 20.60460937 1.64882812 21.3125 1.5625 C21.3125 2.5525 21.3125 3.5425 21.3125 4.5625 C19.3325 4.5625 17.3525 4.5625 15.3125 4.5625 C15.3125 6.2125 15.3125 7.8625 15.3125 9.5625 C17.6225 9.5625 19.9325 9.5625 22.3125 9.5625 C21.9825 10.8825 21.6525 12.2025 21.3125 13.5625 C19.3325 13.5625 17.3525 13.5625 15.3125 13.5625 C15.3125 14.5525 15.3125 15.5425 15.3125 16.5625 C17.6225 16.5625 19.9325 16.5625 22.3125 16.5625 C22.8075 18.5425 22.8075 18.5425 23.3125 20.5625 C23.9725 20.5625 24.6325 20.5625 25.3125 20.5625 C25.1875 23.875 25.1875 23.875 24.3125 27.5625 C20.85083021 30.1999627 18.96858318 30.60698022 14.625 30.3125 C11.3125 29.5625 11.3125 29.5625 8.3125 28.5625 C7.755625 28.871875 7.19875 29.18125 6.625 29.5 C3.22344784 31.06287531 -0.04804747 31.16210329 -3.6875 30.5625 C-5.99149674 29.4445269 -7.6685343 28.17767256 -9.6875 26.5625 C-10.3475 27.2225 -11.0075 27.8825 -11.6875 28.5625 C-14.5625 28.6875 -14.5625 28.6875 -17.6875 28.5625 C-21.58975768 28.30799323 -21.58975768 28.30799323 -24.5625 29.75 C-27.6875 30.5625 -27.6875 30.5625 -30.875 29.3125 C-32.83269812 28.09437672 -34.76901389 26.84149074 -36.6875 25.5625 C-37.326875 26.531875 -37.96625 27.50125 -38.625 28.5 C-40.6875 31.5625 -40.6875 31.5625 -41.6875 32.5625 C-44.04063555 32.63521741 -46.39583668 32.64620868 -48.75 32.625 C-50.04035156 32.61597656 -51.33070312 32.60695312 -52.66015625 32.59765625 C-53.65917969 32.58605469 -54.65820312 32.57445312 -55.6875 32.5625 C-55.6875 30.2525 -55.6875 27.9425 -55.6875 25.5625 C-53.7075 26.5525 -53.7075 26.5525 -51.6875 27.5625 C-51.6875 28.2225 -51.6875 28.8825 -51.6875 29.5625 C-45.77593746 28.61325815 -45.77593746 28.61325815 -41.3125 24.9375 C-40.77625 24.15375 -40.24 23.37 -39.6875 22.5625 C-39.0275 22.5625 -38.3675 22.5625 -37.6875 22.5625 C-37.3575 20.9125 -37.0275 19.2625 -36.6875 17.5625 C-31.8125 21.3125 -31.8125 21.3125 -30.6875 23.5625 C-25.95209767 24.0734633 -25.95209767 24.0734633 -21.9375 22.0625 C-21.31875 21.32 -21.31875 21.32 -20.6875 20.5625 C-19.6975 20.5625 -18.7075 20.5625 -17.6875 20.5625 C-17.1925 21.5525 -17.1925 21.5525 -16.6875 22.5625 C-15.3675 22.5625 -14.0475 22.5625 -12.6875 22.5625 C-12.6875 21.5725 -12.6875 20.5825 -12.6875 19.5625 C-11.3675 19.5625 -10.0475 19.5625 -8.6875 19.5625 C-8.8525 19.0675 -9.0175 18.5725 -9.1875 18.0625 C-10.09450831 13.52745843 -10.79343589 9.65982841 -8.59375 5.48828125 C-5.89292196 1.94703597 -4.5101951 0.68799586 0 0 Z " fill="#F5C9DD" transform="translate(69.6875,68.4375)"/>
<path d="M0 0 C0 1.98 0 3.96 0 6 C2.78750144 4.60624928 2.89266287 2.83755139 4 0 C6 -2 6 -2 8.3125 -2.4375 C12.15646215 -1.81173872 13.59034182 0.03956281 16 3 C16 3.99 16 4.98 16 6 C16.66 6 17.32 6 18 6 C18 4.02 18 2.04 18 0 C18.33 0 18.66 0 19 0 C19 2.31 19 4.62 19 7 C18.01 7 17.02 7 16 7 C16.66 7.99 17.32 8.98 18 10 C18.99 7.03 19.98 4.06 21 1 C29.20908525 -0.32794026 29.20908525 -0.32794026 32.5625 1.0625 C34.61559833 3.82971948 34.41271966 5.62945608 34 9 C33 11.375 33 11.375 32 13 C32.99 13.66 33.98 14.32 35 15 C35 15.99 35 16.98 35 18 C31.28400809 18.20086443 30.22791555 18.1519437 27 16 C27 15.34 27 14.68 27 14 C26.01 14 25.02 14 24 14 C24 15.65 24 17.3 24 19 C21.03 19 18.06 19 15 19 C14.505 17.02 14.505 17.02 14 15 C12.72125 14.938125 11.4425 14.87625 10.125 14.8125 C9.40570313 14.77769531 8.68640625 14.74289063 7.9453125 14.70703125 C7.30335937 14.80371094 6.66140625 14.90039062 6 15 C5.34 15.99 4.68 16.98 4 18 C3.34 18 2.68 18 2 18 C2 14.7 2 11.4 2 8 C1.01 8.495 1.01 8.495 0 9 C-0.46651207 11.12576782 -0.46651207 11.12576782 -0.625 13.5625 C-0.69976562 14.38878906 -0.77453125 15.21507813 -0.8515625 16.06640625 C-0.90054688 16.70449219 -0.94953125 17.34257813 -1 18 C-1.33 18 -1.66 18 -2 18 C-2.33 12.72 -2.66 7.44 -3 2 C-4.98 1.34 -6.96 0.68 -9 0 C-9 1.65 -9 3.3 -9 5 C-10.65 5 -12.3 5 -14 5 C-13.67 9.29 -13.34 13.58 -13 18 C-14.32 18.33 -15.64 18.66 -17 19 C-18.72316831 15.55366338 -18.29307486 11.55730063 -18.42578125 7.75 C-18.69545665 4.85966586 -18.69545665 4.85966586 -21.04296875 3.625 C-21.68878906 3.41875 -22.33460937 3.2125 -23 3 C-23 1.68 -23 0.36 -23 -1 C-20.25034772 -1.19511725 -17.50057868 -1.38136433 -14.75 -1.5625 C-13.97269531 -1.61857422 -13.19539063 -1.67464844 -12.39453125 -1.73242188 C-11.64042969 -1.78076172 -10.88632812 -1.82910156 -10.109375 -1.87890625 C-9.41811523 -1.9260376 -8.72685547 -1.97316895 -8.01464844 -2.02172852 C-5.02619897 -1.9894973 -2.66338272 -1.33169136 0 0 Z " fill="#FEADC9" transform="translate(62,49)"/>
<path d="M0 0 C0.33 0.99 0.66 1.98 1 3 C1.66 3 2.32 3 3 3 C4.125 8.75 4.125 8.75 3 11 C4.0828125 11.0928125 4.0828125 11.0928125 5.1875 11.1875 C8.8589027 12.24812745 10.47702938 14.19669931 13 17 C13.33 17.33 13.66 17.66 14 18 C14.4457809 23.01762683 14.35033491 27.44622611 12 32 C13.485 32.495 13.485 32.495 15 33 C15.33 33.66 15.66 34.32 16 35 C16.598125 34.05125 17.19625 33.1025 17.8125 32.125 C20 29 20 29 23 27 C26.04519365 27.1903246 28.24618495 27.54771097 30.875 29.125 C32.611916 32.01986 32.18630572 34.70859897 32 38 C28.125 34.25 28.125 34.25 27 32 C24.525 32.495 24.525 32.495 22 33 C21.34 35.97 20.68 38.94 20 42 C19.34 42 18.68 42 18 42 C18 42.66 18 43.32 18 44 C16.125 43.875 16.125 43.875 14 43 C13.28293018 41.01751285 12.61709587 39.01584651 12 37 C8.64672361 34.76448241 8.09256343 34.82716472 4.3125 35.375 C2.889375 35.58125 1.46625 35.7875 0 36 C-0.66 38.97 -1.32 41.94 -2 45 C-2.99 44.34 -3.98 43.68 -5 43 C-5 42.34 -5 41.68 -5 41 C-4.01 41 -3.02 41 -2 41 C-2 38.36 -2 35.72 -2 33 C-1.45730469 32.82984375 -0.91460937 32.6596875 -0.35546875 32.484375 C2.84309317 31.40089817 5.43892457 30.490941 8 28.25 C9.39481701 25.11166172 9.19546522 22.38806386 9 19 C8.34 18.67 7.68 18.34 7 18 C7.4021875 19.5778125 7.4021875 19.5778125 7.8125 21.1875 C8 25 8 25 5.5625 27.9375 C4.2940625 28.9584375 4.2940625 28.9584375 3 30 C3.33 26.7 3.66 23.4 4 20 C1.54775306 20.10613836 1.54775306 20.10613836 -1 21 C-2.37466625 23.47636012 -2.37466625 23.47636012 -3 26 C-3.66 26 -4.32 26 -5 26 C-5.1875 22.6875 -5.1875 22.6875 -5 19 C-4.505 18.5875 -4.01 18.175 -3.5 17.75 C-1.11211351 14.96413243 -1.68565048 11.79598289 -1.8125 8.3125 C-1.82603516 7.61060547 -1.83957031 6.90871094 -1.85351562 6.18554688 C-1.88879818 4.45670171 -1.94260417 2.72825235 -2 1 C-1.34 0.67 -0.68 0.34 0 0 Z " fill="#FEEDF5" transform="translate(83,15)"/>
<path d="M0 0 C1.98 0 3.96 0 6 0 C6.495 1.485 6.495 1.485 7 3 C9.50447516 4.21869929 9.50447516 4.21869929 12 5 C12.125 10.75 12.125 10.75 11 13 C10.01 13 9.02 13 8 13 C8 11.35 8 9.7 8 8 C7.01 8 6.02 8 5 8 C4.505 6.515 4.505 6.515 4 5 C3.34 4.67 2.68 4.34 2 4 C2 5.65 2 7.3 2 9 C0.68 9 -0.64 9 -2 9 C-1.87431641 10.06541016 -1.87431641 10.06541016 -1.74609375 11.15234375 C-1.64425781 12.07144531 -1.54242188 12.99054687 -1.4375 13.9375 C-1.33308594 14.85402344 -1.22867188 15.77054688 -1.12109375 16.71484375 C-1.08113281 17.46894531 -1.04117188 18.22304688 -1 19 C-1.33 19.33 -1.66 19.66 -2 20 C-2.23427778 22.01594582 -2.41336124 24.038474 -2.5625 26.0625 C-2.64628906 27.16722656 -2.73007813 28.27195312 -2.81640625 29.41015625 C-2.90728516 30.69212891 -2.90728516 30.69212891 -3 32 C-4.98 31.67 -6.96 31.34 -9 31 C-9.99 28.03 -10.98 25.06 -12 22 C-14.31 22 -16.62 22 -19 22 C-19 22.66 -19 23.32 -19 24 C-17.35 24.33 -15.7 24.66 -14 25 C-14 25.66 -14 26.32 -14 27 C-13.01 27.33 -12.02 27.66 -11 28 C-11 28.66 -11 29.32 -11 30 C-12.98 29.67 -14.96 29.34 -17 29 C-17.66 30.98 -18.32 32.96 -19 35 C-19.66 35 -20.32 35 -21 35 C-21 35.99 -21 36.98 -21 38 C-21.99 38 -22.98 38 -24 38 C-24 36.68 -24 35.36 -24 34 C-25.65 33.34 -27.3 32.68 -29 32 C-28.37240135 29.07120629 -27.41377341 26.63904371 -26 24 C-27.65 24.33 -29.3 24.66 -31 25 C-30.45276317 21.62537285 -29.9451 19.91765 -28 17 C-27.01 17 -26.02 17 -25 17 C-25 16.34 -25 15.68 -25 15 C-20.71 15.33 -16.42 15.66 -12 16 C-11.67 16.99 -11.34 17.98 -11 19 C-10.01 19.33 -9.02 19.66 -8 20 C-6.64560332 22.70879335 -6.93498549 25.00933268 -7 28 C-6.34 28 -5.68 28 -5 28 C-5.02094727 27.39003174 -5.04189453 26.78006348 -5.06347656 26.15161133 C-5.14692861 23.37207706 -5.19875011 20.5928068 -5.25 17.8125 C-5.28351563 16.85279297 -5.31703125 15.89308594 -5.3515625 14.90429688 C-5.45120966 7.70478949 -5.45120966 7.70478949 -3.046875 3.94921875 C-2.03367187 2.98435547 -2.03367187 2.98435547 -1 2 C-0.67 1.34 -0.34 0.68 0 0 Z " fill="#FCD549" transform="translate(77,0)"/>
<path d="M0 0 C4.875 3.75 4.875 3.75 6 6 C10.73540233 6.5109633 10.73540233 6.5109633 14.75 4.5 C15.36875 3.7575 15.36875 3.7575 16 3 C16.99 3 17.98 3 19 3 C19.495 3.99 19.495 3.99 20 5 C20.7425 4.835 21.485 4.67 22.25 4.5 C25 4 25 4 29 4 C29.66 4.66 30.32 5.32 31 6 C33.99260229 6.24406724 33.99260229 6.24406724 37.375 6.125 C38.51710937 6.10695313 39.65921875 6.08890625 40.8359375 6.0703125 C42.40214844 6.03550781 42.40214844 6.03550781 44 6 C46.14596133 6 48.29243095 6.00843551 50.4375 6.0703125 C51.283125 6.08835937 52.12875 6.10640625 53 6.125 C53.845625 6.14820312 54.69125 6.17140625 55.5625 6.1953125 C58.17323163 5.98611926 59.75997977 5.31704893 62 4 C61.875 6.8125 61.875 6.8125 61 10 C57.52580718 12.56428518 55.63105043 13.04278308 51.3125 12.75 C48 12 48 12 45 11 C44.443125 11.309375 43.88625 11.61875 43.3125 11.9375 C39.91094784 13.50037531 36.63945253 13.59960329 33 13 C30.69600326 11.8820269 29.0189657 10.61517256 27 9 C26.34 9.66 25.68 10.32 25 11 C22.125 11.125 22.125 11.125 19 11 C15.09774232 10.74549323 15.09774232 10.74549323 12.125 12.1875 C9 13 9 13 5.8125 11.75 C3.85480188 10.53187672 1.91848611 9.27899074 0 8 C-0.639375 8.969375 -1.27875 9.93875 -1.9375 10.9375 C-4 14 -4 14 -5 15 C-7.35313555 15.07271741 -9.70833668 15.08370868 -12.0625 15.0625 C-13.35285156 15.05347656 -14.64320312 15.04445313 -15.97265625 15.03515625 C-16.97167969 15.02355469 -17.97070312 15.01195313 -19 15 C-19 12.69 -19 10.38 -19 8 C-17.02 8.99 -17.02 8.99 -15 10 C-15 10.66 -15 11.32 -15 12 C-9.08843746 11.05075815 -9.08843746 11.05075815 -4.625 7.375 C-3.820625 6.199375 -3.820625 6.199375 -3 5 C-2.34 5 -1.68 5 -1 5 C-0.67 3.35 -0.34 1.7 0 0 Z " fill="#B80958" transform="translate(33,86)"/>
<path d="M0 0 C4.0081291 0.89069536 4.81808281 1.75416596 7.3125 5.125 C7.869375 6.07375 8.42625 7.0225 9 8 C9.556875 7.319375 10.11375 6.63875 10.6875 5.9375 C13 4 13 4 15.4375 3.9375 C18.75345949 5.31241003 20.6231142 7.35147011 23 10 C24.65 9.01 26.3 8.02 28 7 C28.495 8.485 28.495 8.485 29 10 C30.65 10 32.3 10 34 10 C34 9.34 34 8.68 34 8 C35.98 8.66 37.96 9.32 40 10 C40 10.33 40 10.66 40 11 C35.38 11 30.76 11 26 11 C26.495 12.98 26.495 12.98 27 15 C27.66515625 15.26554687 28.3303125 15.53109375 29.015625 15.8046875 C29.67046875 16.19914062 30.3253125 16.59359375 31 17 C31.609375 20.2578125 31.609375 20.2578125 31.75 24.125 C31.83507813 26.04699219 31.83507813 26.04699219 31.921875 28.0078125 C31.94765625 28.99523437 31.9734375 29.98265625 32 31 C32.99 30.67 33.98 30.34 35 30 C35 25.71 35 21.42 35 17 C36.65 17 38.3 17 40 17 C40 15.35 40 13.7 40 12 C40.99 12.33 41.98 12.66 43 13 C42.67 16.63 42.34 20.26 42 24 C41.67 24 41.34 24 41 24 C41 22.35 41 20.7 41 19 C39.68 19 38.36 19 37 19 C37.66 23.29 38.32 27.58 39 32 C39.66 32 40.32 32 41 32 C40.34 33.32 39.68 34.64 39 36 C38.67 35.34 38.34 34.68 38 34 C37.01 34 36.02 34 35 34 C34.34 38.29 33.68 42.58 33 47 C31.02 47.495 31.02 47.495 29 48 C27 46 27 46 26.8046875 42.9609375 C26.82789063 41.77757812 26.85109375 40.59421875 26.875 39.375 C26.89304688 38.18648437 26.91109375 36.99796875 26.9296875 35.7734375 C26.95289063 34.85820313 26.97609375 33.94296875 27 33 C29 34 29 34 31 37 C30.34414811 33.39007621 30.34414811 33.39007621 29 30 C28.92966231 28.12620395 28.9156978 26.24998898 28.9375 24.375 C28.94652344 23.37210938 28.95554688 22.36921875 28.96484375 21.3359375 C28.97644531 20.56507812 28.98804688 19.79421875 29 19 C26.81226801 17.87129751 24.79185384 16.93400244 22.4375 16.1875 C19.33807171 14.67752211 18.45954429 13.07272481 17 10 C17 9.34 17 8.68 17 8 C13.73539027 9.80412643 12.11070205 10.83394693 10 14 C7.525 13.505 7.525 13.505 5 13 C4.896875 12.05125 4.79375 11.1025 4.6875 10.125 C4.31460705 6.70892499 4.31460705 6.70892499 1 5 C-1.4440104 4.64626379 -1.4440104 4.64626379 -4.0625 4.6875 C-4.94035156 4.67074219 -5.81820313 4.65398438 -6.72265625 4.63671875 C-7.47417969 4.75660156 -8.22570312 4.87648438 -9 5 C-9.99 6.485 -9.99 6.485 -11 8 C-11.66 7.67 -12.32 7.34 -13 7 C-12.6875 4.625 -12.6875 4.625 -12 2 C-7.92729747 -0.71513502 -4.76825154 -0.38684228 0 0 Z " fill="#FDF6F9" transform="translate(13,37)"/>
<path d="M0 0 C0.33 0 0.66 0 1 0 C0.38487182 5.00890086 -0.2717552 10.00632136 -1 15 C-0.01 15 0.98 15 2 15 C2.66 13.68 3.32 12.36 4 11 C6.64 11 9.28 11 12 11 C12.33 12.65 12.66 14.3 13 16 C12.34 16 11.68 16 11 16 C11.33 16.99 11.66 17.98 12 19 C12.66 19.33 13.32 19.66 14 20 C14 23.96 14 27.92 14 32 C11.525 32.495 11.525 32.495 9 33 C8.87625 34.0828125 8.87625 34.0828125 8.75 35.1875 C7.82300796 38.66372017 6.53791915 40.46208085 4 43 C0.66826429 44.1661075 -1.67971221 44.14492682 -5 43 C-5.66 42.67 -6.32 42.34 -7 42 C-6.70289725 38.5338012 -6.2608468 37.24674698 -3.6875 34.8125 C1.00154331 29.90536165 2.82227413 23.59526489 4 17 C1.69 17 -0.62 17 -3 17 C-4.72805471 10.37579029 -2.84964058 6.07841789 0 0 Z " fill="#FDE8F2" transform="translate(21,52)"/>
<path d="M0 0 C0.33 1.32 0.66 2.64 1 4 C1.66 4 2.32 4 3 4 C3.66 2.68 4.32 1.36 5 0 C7.64 0 10.28 0 13 0 C13.33 1.65 13.66 3.3 14 5 C15.670625 4.7215625 15.670625 4.7215625 17.375 4.4375 C21 4 21 4 23 5 C23 3.35 23 1.7 23 0 C23.99 0.33 24.98 0.66 26 1 C25.34 1 24.68 1 24 1 C24 2.32 24 3.64 24 5 C24.763125 5.144375 25.52625 5.28875 26.3125 5.4375 C29 6 29 6 32 7 C32 8.32 32 9.64 32 11 C31.34 11 30.68 11 30 11 C30 11.99 30 12.98 30 14 C30.99 14.33 31.98 14.66 33 15 C33 18.96 33 22.92 33 27 C32.01 26.67 31.02 26.34 30 26 C29.67 25.01 29.34 24.02 29 23 C26.69 22.67 24.38 22.34 22 22 C22 21.01 22 20.02 22 19 C23.98 18.67 25.96 18.34 28 18 C28.33 17.01 28.66 16.02 29 15 C26.69 15 24.38 15 22 15 C22 13.35 22 11.7 22 10 C23.98 10 25.96 10 28 10 C28 9.01 28 8.02 28 7 C24.7 7.33 21.4 7.66 18 8 C17.67 9.32 17.34 10.64 17 12 C17 10.35 17 8.7 17 7 C16.34 7 15.68 7 15 7 C14.67 8.65 14.34 10.3 14 12 C11.01758453 12.77321882 8.02419525 13.41196203 5 14 C5 15.32 5 16.64 5 18 C6.65 18 8.3 18 10 18 C10 17.67 10 17.34 10 17 C11.65 17 13.3 17 15 17 C15.33 15.68 15.66 14.36 16 13 C16.33 13 16.66 13 17 13 C17 17.62 17 22.24 17 27 C16.34 27 15.68 27 15 27 C15 25.35 15 23.7 15 22 C14.2265625 22.2475 14.2265625 22.2475 13.4375 22.5 C10.21876586 23.16025316 7.27722861 23.17875792 4 23 C3.01 22.34 2.02 21.68 1 21 C0.50745483 16.63745704 0.28022387 14.22961755 2.5 10.4375 C6.27141235 8.2689379 8.79214512 9.15842902 13 10 C12.009245 8.33358994 12.009245 8.33358994 10 7 C7.28153765 6.72654521 4.74322801 6.86508715 2 7 C2 6.34 2 5.68 2 5 C1.34 5 0.68 5 0 5 C0 3.35 0 1.7 0 0 Z " fill="#FBB9D7" transform="translate(63,63)"/>
<path d="M0 0 C0.99 0.33 1.98 0.66 3 1 C3.30260773 4.85824861 3.3752043 7.31212545 1.5 10.75 C-0.95255294 12.95729765 -2.14866109 13.49365955 -5.1875 14.4375 C-7.27211146 15.03654662 -7.27211146 15.03654662 -9 16 C-10.14031566 19.07797583 -10.14031566 19.07797583 -10 22 C-10.66 22 -11.32 22 -12 22 C-13.03789581 20.35666496 -14.03567924 18.68756133 -15 17 C-16.82703227 14.7508092 -16.82703227 14.7508092 -19.5 14.75 C-22.17296773 14.7508092 -22.17296773 14.7508092 -24 17 C-24.70710678 18.64991582 -25.37943989 20.31562256 -26 22 C-26.66 22 -27.32 22 -28 22 C-28 20.02 -28 18.04 -28 16 C-30.97 15.67 -33.94 15.34 -37 15 C-37.33 13.35 -37.66 11.7 -38 10 C-31.73 10 -25.46 10 -19 10 C-19 7.69 -19 5.38 -19 3 C-16.525 3.495 -16.525 3.495 -14 4 C-13.67 5.65 -13.34 7.3 -13 9 C-12.01 9 -11.02 9 -10 9 C-9.34 6.69 -8.68 4.38 -8 2 C-6.35 2 -4.7 2 -3 2 C-3 4.97 -3 7.94 -3 11 C-0.39665076 8.28817788 -0.00543309 7.10866187 0.1875 3.25 C0.125625 2.1775 0.06375 1.105 0 0 Z " fill="#FB483A" transform="translate(90,33)"/>
<path d="M0 0 C1.65 0.33 3.3 0.66 5 1 C5.33 3.31 5.66 5.62 6 8 C6.99 7.67 7.98 7.34 9 7 C8.67 10.63 8.34 14.26 8 18 C8.66 18 9.32 18 10 18 C9.55724318 20.47943821 9.14965819 21.82896207 7.46875 23.75 C5.5262553 26.72573657 5.69775871 28.73126711 5.8125 32.25 C5.83957031 33.32765625 5.86664063 34.4053125 5.89453125 35.515625 C5.92933594 36.33546875 5.96414062 37.1553125 6 38 C2.535 38.495 2.535 38.495 -1 39 C-1 32.4 -1 25.8 -1 19 C-1.66 19 -2.32 19 -3 19 C-3.33872513 17.58461283 -3.67074624 16.16762037 -4 14.75 C-4.185625 13.96109375 -4.37125 13.1721875 -4.5625 12.359375 C-5 10 -5 10 -5 6 C-3.68 6 -2.36 6 -1 6 C-0.67 4.02 -0.34 2.04 0 0 Z " fill="#FBD3E5" transform="translate(55,50)"/>
<path d="M0 0 C0.99 0 1.98 0 3 0 C3.556875 1.11375 4.11375 2.2275 4.6875 3.375 C6.63376736 6.80512368 8.13518401 7.9099237 12 9 C12.99 9.66 13.98 10.32 15 11 C15.44140625 13.49609375 15.44140625 13.49609375 15.5625 16.4375 C15.76180361 21.00118369 15.76180361 21.00118369 18 25 C17.625 28.1875 17.625 28.1875 17 31 C12.81717647 26.81717647 12.71089533 22.04422807 12.44140625 16.40234375 C11.92304135 13.58115423 10.85849763 12.14594526 9 10 C8.91087781 13.83225427 9.12132271 17.26562152 10 21 C8.68 21 7.36 21 6 21 C6 20.01 6 19.02 6 18 C4.72125 18.103125 3.4425 18.20625 2.125 18.3125 C1.40570313 18.37050781 0.68640625 18.42851563 -0.0546875 18.48828125 C-2.39519216 18.87393036 -2.39519216 18.87393036 -4 22 C-4.99 22 -5.98 22 -7 22 C-6.5079597 17.96526955 -5.51436911 14.64148336 -3.83203125 10.9453125 C-2.30954045 7.38568611 -1.17821699 3.68506166 0 0 Z " fill="#FF3995" transform="translate(27,45)"/>
<path d="M0 0 C2 2 2 2 2.125 4.625 C2.08375 5.40875 2.0425 6.1925 2 7 C2.66 7 3.32 7 4 7 C3.67 8.65 3.34 10.3 3 12 C-1.75 11.125 -1.75 11.125 -4 10 C-4 9.01 -4 8.02 -4 7 C-4.99 7 -5.98 7 -7 7 C-6.88693303 8.95894361 -6.88693303 8.95894361 -6 11 C-3.57616923 12.16953416 -3.57616923 12.16953416 -1 13 C1.40346379 15.40346379 1.32083747 16.13900195 1.375 19.4375 C1.27301905 23.66631005 1.27301905 23.66631005 -0.6875 26.0625 C-3.36302119 27.14717075 -5.13976624 27.37634655 -8 27 C-8.66 26.34 -9.32 25.68 -10 25 C-9.625 22.375 -9.625 22.375 -9 20 C-7.35 20 -5.7 20 -4 20 C-4 19.34 -4 18.68 -4 18 C-4.78375 17.731875 -5.5675 17.46375 -6.375 17.1875 C-9 16 -9 16 -11 13 C-11.87450873 6.22255735 -11.87450873 6.22255735 -9.83203125 3.3671875 C-6.70727752 0.55571242 -4.16831585 -0.81050586 0 0 Z " fill="#FF1F87" transform="translate(131,41)"/>
<path d="M0 0 C2 2 2 2 2.1953125 3.9453125 C2.13020833 5.96354167 2.06510417 7.98177083 2 10 C1.34 10 0.68 10 0 10 C-0.66 8.02 -1.32 6.04 -2 4 C-6.64608858 4.39629124 -6.64608858 4.39629124 -10.9375 6.0625 C-12.66006721 9.20365197 -12.36723033 12.49718763 -12 16 C-11.67 16.99 -11.34 17.98 -11 19 C-8.49552484 20.21869929 -8.49552484 20.21869929 -6 21 C-6 21.66 -6 22.32 -6 23 C-7.65 23.33 -9.3 23.66 -11 24 C-10.67 25.65 -10.34 27.3 -10 29 C-5.65815798 28.81535634 -5.65815798 28.81535634 -2 27 C-1.80058132 24.93227266 -1.80058132 24.93227266 -1.8125 22.5625 C-1.79832031 21.75941406 -1.78414062 20.95632812 -1.76953125 20.12890625 C-1.79837644 17.78369367 -1.79837644 17.78369367 -4 16 C-5.64991582 15.29289322 -7.31562256 14.62056011 -9 14 C-9 12.68 -9 11.36 -9 10 C-8.01 10 -7.02 10 -6 10 C-6 10.99 -6 11.98 -6 13 C-3.36 13.66 -0.72 14.32 2 15 C2.0810206 17.10353495 2.13919907 19.20795952 2.1875 21.3125 C2.23970703 23.07013672 2.23970703 23.07013672 2.29296875 24.86328125 C2 28 2 28 0.67578125 29.85546875 C-3.06294843 32.40896011 -6.63022225 32.08244864 -11 32 C-11.495 30.515 -11.495 30.515 -12 29 C-12.99 28.67 -13.98 28.34 -15 28 C-15 26.02 -15 24.04 -15 22 C-14.01 22 -13.02 22 -12 22 C-12.45375 21.360625 -12.9075 20.72125 -13.375 20.0625 C-15.45467942 16.14310418 -16.94463106 12.48488448 -17 8 C-12.67553716 0.92360626 -8.15132114 -1.99938066 0 0 Z " fill="#FBCFE3" transform="translate(133,38)"/>
<path d="M0 0 C0.99 0 1.98 0 3 0 C3.33 1.98 3.66 3.96 4 6 C4.86625 5.505 4.86625 5.505 5.75 5 C8 4 8 4 12 4 C11.67 5.32 11.34 6.64 11 8 C12.32 8 13.64 8 15 8 C15 9.32 15 10.64 15 12 C15.99 12 16.98 12 18 12 C18 10.35 18 8.7 18 7 C19.32 6.34 20.64 5.68 22 5 C22.10655578 11.44070471 21.96205088 17.62641289 21 24 C20.34 24 19.68 24 19 24 C19 21.03 19 18.06 19 15 C17.68 15.33 16.36 15.66 15 16 C14.67 14.68 14.34 13.36 14 12 C9.71 11.67 5.42 11.34 1 11 C1 11.66 1 12.32 1 13 C-3.95 14.485 -3.95 14.485 -9 16 C-8.67 14.68 -8.34 13.36 -8 12 C-7.78918149 8.10540926 -7.78918149 8.10540926 -9 5 C-3.25 4.875 -3.25 4.875 -1 6 C-0.67 4.02 -0.34 2.04 0 0 Z " fill="#5FA755" transform="translate(51,4)"/>
<path d="M0 0 C1.6026782 -0.10824843 3.20745748 -0.18570645 4.8125 -0.25 C5.70582031 -0.29640625 6.59914063 -0.3428125 7.51953125 -0.390625 C10 0 10 0 11.7890625 1.8515625 C13.55053296 4.97675203 13.59698631 6.41808217 13 10 C11.59750292 12.6755971 10.05589028 15.19767241 8.41015625 17.73046875 C6.86266851 20.02519641 6.86266851 20.02519641 6 23 C8.31 23 10.62 23 13 23 C12.67 24.65 12.34 26.3 12 28 C10.20866022 28.05391993 8.41686101 28.09275571 6.625 28.125 C5.62726562 28.14820312 4.62953125 28.17140625 3.6015625 28.1953125 C1 28 1 28 -1 26 C-1.13062417 19.73003986 1.69852716 16.1273535 5.40625 11.234375 C7.16140584 9.0048712 7.16140584 9.0048712 8 6 C6.2984375 6.0309375 6.2984375 6.0309375 4.5625 6.0625 C1 6 1 6 0 5 C-0.04063832 3.33382885 -0.042721 1.66611905 0 0 Z " fill="#FF258B" transform="translate(4,41)"/>
<path d="M0 0 C2.5 -0.4375 2.5 -0.4375 5 0 C5.680625 0.7425 5.680625 0.7425 6.375 1.5 C8.95201872 3.87878651 11.63845981 3.12450149 15 3 C15.33 3.33 15.66 3.66 16 4 C21.2528884 4.41199125 24.46141895 3.65673037 29 1 C29.3475632 4.12806884 29.26933948 5.59599079 27.5 8.25 C23.93049041 10.74865672 21.34908201 10.79290086 17 11 C16.01 10.67 15.02 10.34 14 10 C14 9.34 14 8.68 14 8 C13.01 8.66 12.02 9.32 11 10 C8.4375 9.875 8.4375 9.875 6 9 C4.6875 6.9375 4.6875 6.9375 4 5 C2.68 5 1.36 5 0 5 C-0.061875 5.61875 -0.12375 6.2375 -0.1875 6.875 C-1 9 -1 9 -3.125 10.1875 C-6.40184691 11.11356543 -9.62094717 11.60246437 -13 12 C-13 11.01 -13 10.02 -13 9 C-12.34 9 -11.68 9 -11 9 C-11 7.68 -11 6.36 -11 5 C-9.1128125 4.87625 -9.1128125 4.87625 -7.1875 4.75 C-3.71988281 4.40659875 -3.71988281 4.40659875 -1.3125 1.9375 C-0.6628125 0.9784375 -0.6628125 0.9784375 0 0 Z " fill="#B80857" transform="translate(106,65)"/>
<path d="M0 0 C2.31 0 4.62 0 7 0 C10.19380734 6.38761468 10.19380734 6.38761468 9.33984375 9.0859375 C7.76137712 11.34088983 6.37299638 12.12852091 3.9375 13.375 C0.40786456 15.39457055 0.40786456 15.39457055 -1 19.3125 C-1 20.199375 -1 21.08625 -1 22 C-2.43267304 22.27632268 -3.87163335 22.52019671 -5.3125 22.75 C-6.11300781 22.88921875 -6.91351563 23.0284375 -7.73828125 23.171875 C-10 23 -10 23 -11.78125 21.5 C-13.44513598 18.08690055 -13.32407283 14.95497586 -13.1875 11.25 C-13.17396484 10.55261719 -13.16042969 9.85523438 -13.14648438 9.13671875 C-13.1112945 7.42414459 -13.05749155 5.71197059 -13 4 C-12.34 4 -11.68 4 -11 4 C-10.67 3.01 -10.34 2.02 -10 1 C-10 1.66 -10 2.32 -10 3 C-9.01 3 -8.02 3 -7 3 C-7.62759865 5.92879371 -8.58622659 8.36095629 -10 11 C-7.525 11.99 -7.525 11.99 -5 13 C-5 14.32 -5 15.64 -5 17 C-4.01 17 -3.02 17 -2 17 C-2 16.01 -2 15.02 -2 14 C-1.34 14 -0.68 14 0 14 C0.144375 13.38125 0.28875 12.7625 0.4375 12.125 C1 10 1 10 2 8 C4.97 8.495 4.97 8.495 8 9 C7.505 8.54625 7.01 8.0925 6.5 7.625 C5 6 5 6 5 4 C3.35 4 1.7 4 0 4 C0 2.68 0 1.36 0 0 Z " fill="#FFAC12" transform="translate(58,21)"/>
<path d="M0 0 C1.98 0 3.96 0 6 0 C6.33 0.99 6.66 1.98 7 3 C9.50447516 4.21869929 9.50447516 4.21869929 12 5 C12.125 10.75 12.125 10.75 11 13 C10.01 13 9.02 13 8 13 C8 11.35 8 9.7 8 8 C7.01 8 6.02 8 5 8 C4.67 7.01 4.34 6.02 4 5 C3.34 4.67 2.68 4.34 2 4 C2 5.65 2 7.3 2 9 C0.68 9 -0.64 9 -2 9 C-1.91621094 9.71027344 -1.83242187 10.42054687 -1.74609375 11.15234375 C-1.64425781 12.07144531 -1.54242188 12.99054687 -1.4375 13.9375 C-1.33308594 14.85402344 -1.22867188 15.77054688 -1.12109375 16.71484375 C-1.08113281 17.46894531 -1.04117188 18.22304688 -1 19 C-1.33 19.33 -1.66 19.66 -2 20 C-2.23427778 22.01594582 -2.41336124 24.038474 -2.5625 26.0625 C-2.64628906 27.16722656 -2.73007813 28.27195312 -2.81640625 29.41015625 C-2.87699219 30.26480469 -2.93757813 31.11945312 -3 32 C-4.98 31.67 -6.96 31.34 -9 31 C-9.17015625 30.39671875 -9.3403125 29.7934375 -9.515625 29.171875 C-10.96189671 24.40225553 -12.13127043 21.33511169 -16 18 C-16 17.34 -16 16.68 -16 16 C-14.68 16 -13.36 16 -12 16 C-11.67 16.99 -11.34 17.98 -11 19 C-10.01 19.33 -9.02 19.66 -8 20 C-6.64560332 22.70879335 -6.93498549 25.00933268 -7 28 C-6.34 28 -5.68 28 -5 28 C-5.02094727 27.39003174 -5.04189453 26.78006348 -5.06347656 26.15161133 C-5.14692861 23.37207706 -5.19875011 20.5928068 -5.25 17.8125 C-5.28351563 16.85279297 -5.31703125 15.89308594 -5.3515625 14.90429688 C-5.45120966 7.70478949 -5.45120966 7.70478949 -3.046875 3.94921875 C-2.03367187 2.98435547 -2.03367187 2.98435547 -1 2 C-0.67 1.34 -0.34 0.68 0 0 Z " fill="#EAD6CB" transform="translate(77,0)"/>
<path d="M0 0 C2.35546875 0.12109375 2.35546875 0.12109375 5 1 C8.64056737 5.49345517 11.385503 10.82682676 11.375 16.6875 C11.25125 17.780625 11.1275 18.87375 11 20 C10.01 20 9.02 20 8 20 C7.67 19.01 7.34 18.02 7 17 C4.03 16.67 1.06 16.34 -2 16 C-2.33 17.65 -2.66 19.3 -3 21 C-3.99 21 -4.98 21 -6 21 C-6 19.02 -6 17.04 -6 15 C-5.34 15 -4.68 15 -4 15 C-3.87625 13.989375 -3.7525 12.97875 -3.625 11.9375 C-2.05660377 2.05660377 -2.05660377 2.05660377 0 0 Z " fill="#FF1681" transform="translate(106,46)"/>
<path d="M0 0 C0.66 0.99 1.32 1.98 2 3 C2.68578125 3.24492188 3.3715625 3.48984375 4.078125 3.7421875 C4.71234375 4.15726563 5.3465625 4.57234375 6 5 C6.609375 8.2578125 6.609375 8.2578125 6.75 12.125 C6.80671875 13.40632813 6.8634375 14.68765625 6.921875 16.0078125 C6.96054687 17.48894531 6.96054687 17.48894531 7 19 C7.99 18.67 8.98 18.34 10 18 C10 13.71 10 9.42 10 5 C11.65 5 13.3 5 15 5 C15 3.35 15 1.7 15 0 C15.99 0.33 16.98 0.66 18 1 C17.67 4.63 17.34 8.26 17 12 C16.67 12 16.34 12 16 12 C16 10.35 16 8.7 16 7 C14.68 7 13.36 7 12 7 C12.66 11.29 13.32 15.58 14 20 C14.66 20 15.32 20 16 20 C15.34 21.32 14.68 22.64 14 24 C13.67 23.34 13.34 22.68 13 22 C12.01 22 11.02 22 10 22 C9.34 26.29 8.68 30.58 8 35 C6.02 35.495 6.02 35.495 4 36 C2 34 2 34 1.8046875 30.9609375 C1.83949219 29.18589844 1.83949219 29.18589844 1.875 27.375 C1.89304688 26.18648437 1.91109375 24.99796875 1.9296875 23.7734375 C1.96449219 22.40058594 1.96449219 22.40058594 2 21 C4 22 4 22 6 25 C5.34414811 21.39007621 5.34414811 21.39007621 4 18 C3.92966231 16.12620395 3.9156978 14.24998898 3.9375 12.375 C3.94652344 11.37210938 3.95554687 10.36921875 3.96484375 9.3359375 C3.98224609 8.17964844 3.98224609 8.17964844 4 7 C3.38125 6.71125 2.7625 6.4225 2.125 6.125 C0 5 0 5 -2 3 C-1.34 3 -0.68 3 0 3 C0 2.01 0 1.02 0 0 Z " fill="#F9DAE8" transform="translate(38,49)"/>
<path d="M0 0 C3 1 3 1 4.1875 3.375 C5.28707097 8.28077818 5.16030864 12.99480813 5 18 C4.34 18 3.68 18 3 18 C2.9175 18.721875 2.835 19.44375 2.75 20.1875 C1.82300796 23.66372017 0.53791915 25.46208085 -2 28 C-4.625 28.9375 -4.625 28.9375 -7 29 C-7.66 28.34 -8.32 27.68 -9 27 C-8.67030844 23.6761708 -7.39955444 22.14919967 -5.0625 19.875 C-0.11353003 14.35636442 0.37842693 7.19011163 0 0 Z " fill="#FED538" transform="translate(27,67)"/>
<path d="M0 0 C0.99 0 1.98 0 3 0 C2.93966291 2.39839917 2.85255482 4.7908385 2.75 7.1875 C2.72873047 8.19780273 2.72873047 8.19780273 2.70703125 9.22851562 C2.4724009 14.03843773 1.48304336 16.66314276 -2 20 C-5 20.625 -5 20.625 -8 20 C-10.97067646 17.15221124 -11.93627689 15.57924304 -12.390625 11.44921875 C-12.34421875 10.20785156 -12.2978125 8.96648437 -12.25 7.6875 C-12.21390625 6.43324219 -12.1778125 5.17898437 -12.140625 3.88671875 C-12.07101563 2.45779297 -12.07101563 2.45779297 -12 1 C-10.68 1.33 -9.36 1.66 -8 2 C-7.67 5.63 -7.34 9.26 -7 13 C-5.68 13.33 -4.36 13.66 -3 14 C-2.86722656 13.07316406 -2.73445313 12.14632812 -2.59765625 11.19140625 C-2.42105469 9.99386719 -2.24445312 8.79632813 -2.0625 7.5625 C-1.88847656 6.36753906 -1.71445312 5.17257813 -1.53515625 3.94140625 C-1 1 -1 1 0 0 Z " fill="#FF298A" transform="translate(48,70)"/>
<path d="M0 0 C3.3125 0.5625 3.3125 0.5625 6.3125 2.5625 C6.3125 3.2225 6.3125 3.8825 6.3125 4.5625 C4.4253125 4.4696875 4.4253125 4.4696875 2.5 4.375 C-0.01863951 4.39728885 -1.41745606 4.42747803 -3.6875 5.5625 C-5.32733879 8.84217758 -4.86595638 11.93388689 -4.6875 15.5625 C-2.04291621 16.88479189 -0.00988699 16.65927194 2.9375 16.625 C3.94039062 16.61597656 4.94328125 16.60695313 5.9765625 16.59765625 C7.13285156 16.58025391 7.13285156 16.58025391 8.3125 16.5625 C8.3125 17.8825 8.3125 19.2025 8.3125 20.5625 C4.7705666 22.92378893 2.7735646 23.16846972 -1.390625 23.06640625 C-4.94229759 22.28721277 -6.56147485 20.51910637 -8.64453125 17.625 C-10.41376964 14.12628138 -10.78735568 11.34186985 -9.6875 7.5625 C-7.25454359 3.05512813 -5.13851027 0.78384055 0 0 Z " fill="#FF2387" transform="translate(69.6875,68.4375)"/>
<path d="M0 0 C2.99001613 0.32324499 4.56420205 0.54806138 6.6875 2.75 C8.05927518 5.1016146 9.03777077 7.4569656 10 10 C10.33 10.33 10.66 10.66 11 11 C11.04080783 12.99958364 11.04254356 15.00045254 11 17 C10.01 16.67 9.02 16.34 8 16 C7.67 15.34 7.34 14.68 7 14 C5.72125 13.938125 4.4425 13.87625 3.125 13.8125 C2.40570313 13.77769531 1.68640625 13.74289063 0.9453125 13.70703125 C0.30335937 13.80371094 -0.33859375 13.90039062 -1 14 C-1.99 15.485 -1.99 15.485 -3 17 C-3.66 17 -4.32 17 -5 17 C-4.42918111 10.49266466 -2.92319435 5.8463887 0 0 Z " fill="#FF0B7B" transform="translate(69,50)"/>
<path d="M0 0 C0 0.99 0 1.98 0 3 C-1.98 3 -3.96 3 -6 3 C-6 4.65 -6 6.3 -6 8 C-3.69 8 -1.38 8 1 8 C0.67 9.32 0.34 10.64 0 12 C-1.98 12 -3.96 12 -6 12 C-6 12.99 -6 13.98 -6 15 C-3.69 15 -1.38 15 1 15 C1 16.32 1 17.64 1 19 C-2.45245824 21.30163882 -3.94738713 21.34490322 -8 21 C-10 19 -10 19 -10.23046875 16.8984375 C-10.13889527 11.52057694 -9.78848574 6.32227877 -9 1 C-5.92677456 0.08941469 -3.19902639 -0.08886184 0 0 Z " fill="#FF4499" transform="translate(91,70)"/>
<path d="M0 0 C2.97 0.33 5.94 0.66 9 1 C9.17942163 4.94727588 9.09350689 7.5980513 7 11 C7.99 11.66 8.98 12.32 10 13 C10 13.99 10 14.98 10 16 C6.28400809 16.20086443 5.22791555 16.1519437 2 14 C2 13.34 2 12.68 2 12 C1.01 12 0.02 12 -1 12 C-1 13.65 -1 15.3 -1 17 C-1.99 16.67 -2.98 16.34 -4 16 C-4 11.05 -4 6.1 -4 1 C-3.01 1 -2.02 1 -1 1 C-1 2.98 -1 4.96 -1 7 C0.98 6.34 2.96 5.68 5 5 C5 3.68 5 2.36 5 1 C3.35 1 1.7 1 0 1 C0 0.67 0 0.34 0 0 Z " fill="#FF1782" transform="translate(87,51)"/>
<path d="M0 0 C0.78375 0.66 1.5675 1.32 2.375 2 C7.37063146 5.31474841 12.96907372 4.52828553 18.64453125 3.5390625 C20.77980493 3.07501877 22.89097824 2.57055661 25 2 C25 3.65 25 5.3 25 7 C18.17923146 9.89365938 11.39468054 11.09154474 4 10 C1.66015625 8.70703125 1.66015625 8.70703125 0 7 C-0.25 3.3125 -0.25 3.3125 0 0 Z " fill="#B80C59" transform="translate(0,67)"/>
<path d="M0 0 C4.95 0 9.9 0 15 0 C15 0.33 15 0.66 15 1 C19.29 1 23.58 1 28 1 C28 1.66 28 2.32 28 3 C27.34 3 26.68 3 26 3 C26 3.66 26 4.32 26 5 C25.34 5 24.68 5 24 5 C23.67 5.66 23.34 6.32 23 7 C22.34 6.34 21.68 5.68 21 5 C18.5 4.66666667 18.5 4.66666667 16 5 C13.77810176 7.22189824 13.07401108 9.08482708 12 12 C11.34 12 10.68 12 10 12 C10 10.02 10 8.04 10 6 C7.03 5.67 4.06 5.34 1 5 C0.67 3.35 0.34 1.7 0 0 Z " fill="#F35D41" transform="translate(52,43)"/>
<path d="M0 0 C1.093125 0.0825 2.18625 0.165 3.3125 0.25 C3.498125 0.889375 3.68375 1.52875 3.875 2.1875 C5.25496056 4.67126213 5.25496056 4.67126213 8.9375 5 C10.05125 5.0825 11.165 5.165 12.3125 5.25 C12.6425 6.9 12.9725 8.55 13.3125 10.25 C13.9725 10.25 14.6325 10.25 15.3125 10.25 C15.3125 12.23 15.3125 14.21 15.3125 16.25 C14.3225 16.25 13.3325 16.25 12.3125 16.25 C12.3125 14.93 12.3125 13.61 12.3125 12.25 C10.9925 12.25 9.6725 12.25 8.3125 12.25 C8.6425 10.93 8.9725 9.61 9.3125 8.25 C8.549375 8.58 7.78625 8.91 7 9.25 C4.3125 10.25 4.3125 10.25 1.3125 10.25 C0.9825 8.27 0.6525 6.29 0.3125 4.25 C-1.3375 4.91 -2.9875 5.57 -4.6875 6.25 C-5.3475 5.59 -6.0075 4.93 -6.6875 4.25 C-4.79150483 0.68106792 -4.16790733 0.28256999 0 0 Z " fill="#F2F7F0" transform="translate(53.6875,-0.25)"/>
<path d="M0 0 C2.20914 3.31371 2.22481553 4.3446021 2.125 8.1875 C2.10695313 9.08855469 2.08890625 9.98960938 2.0703125 10.91796875 C2.03550781 11.94857422 2.03550781 11.94857422 2 13 C3.11375 13.103125 4.2275 13.20625 5.375 13.3125 C7.169375 13.6528125 7.169375 13.6528125 9 14 C9.99 15.485 9.99 15.485 11 17 C10.34 17 9.68 17 9 17 C9.4021875 18.5778125 9.4021875 18.5778125 9.8125 20.1875 C10 24 10 24 7.5625 26.9375 C6.2940625 27.9584375 6.2940625 27.9584375 5 29 C5.33 25.7 5.66 22.4 6 19 C3.54775306 19.10613836 3.54775306 19.10613836 1 20 C-0.37466625 22.47636012 -0.37466625 22.47636012 -1 25 C-1.66 25 -2.32 25 -3 25 C-3.1875 21.6875 -3.1875 21.6875 -3 18 C-2.505 17.5875 -2.01 17.175 -1.5 16.75 C0.88788649 13.96413243 0.31434952 10.79598289 0.1875 7.3125 C0.17396484 6.61060547 0.16042969 5.90871094 0.14648438 5.18554688 C0.11120182 3.45670171 0.05739583 1.72825235 0 0 Z " fill="#E0E2A3" transform="translate(81,16)"/>
<path d="M0 0 C1.95825873 -0.02694851 3.91662226 -0.04637218 5.875 -0.0625 C6.96554688 -0.07410156 8.05609375 -0.08570313 9.1796875 -0.09765625 C12 0 12 0 14 1 C14 2.32 14 3.64 14 5 C12.35 5 10.7 5 9 5 C9.33 9.29 9.66 13.58 10 18 C8.68 18.33 7.36 18.66 6 19 C4.27683169 15.55366338 4.70692514 11.55730063 4.57421875 7.75 C4.30454335 4.85966586 4.30454335 4.85966586 1.95703125 3.625 C1.31121094 3.41875 0.66539063 3.2125 0 3 C0 2.01 0 1.02 0 0 Z " fill="#FF318F" transform="translate(39,49)"/>
<path d="M0 0 C1.66666667 1.66666667 3.33333333 3.33333333 5 5 C6.7634375 5.7115625 6.7634375 5.7115625 8.5625 6.4375 C10.453125 7.4609375 10.453125 7.4609375 12 9 C12.67306073 11.87345158 12.81203221 14.49354804 12.83203125 17.44140625 C12.80231407 20.24405758 12.80231407 20.24405758 15 23 C14.625 26.1875 14.625 26.1875 14 29 C9.81717647 24.81717647 9.71089533 20.04422807 9.44140625 14.40234375 C8.92304135 11.58115423 7.85849763 10.14594526 6 8 C5.34 8.66 4.68 9.32 4 10 C4 9.01 4 8.02 4 7 C3.34 7 2.68 7 2 7 C1.67 8.32 1.34 9.64 1 11 C-0.32 11 -1.64 11 -3 11 C-3.36923077 3.49230769 -3.36923077 3.49230769 -1.5 1 C-1.005 0.67 -0.51 0.34 0 0 Z " fill="#FA6FAF" transform="translate(30,47)"/>
<path d="M0 0 C2 1.8125 2 1.8125 4 4 C4 4.99 4 5.98 4 7 C3.01 7.495 3.01 7.495 2 8 C2.34444881 10.47266765 2.34444881 10.47266765 3 13 C3.66 13.33 4.32 13.66 5 14 C4.97679687 15.19238281 4.95359375 16.38476562 4.9296875 17.61328125 C4.91092822 19.17968124 4.89272819 20.746088 4.875 22.3125 C4.85824219 23.09818359 4.84148438 23.88386719 4.82421875 24.69335938 C4.81777344 25.45068359 4.81132813 26.20800781 4.8046875 26.98828125 C4.79421387 27.68477783 4.78374023 28.38127441 4.77294922 29.09887695 C4.89425405 31.331173 4.89425405 31.331173 7 34 C7 34.99 7 35.98 7 37 C3.125 36.125 3.125 36.125 2 35 C2.00752273 31.81412274 2.07890749 28.64166587 2.21484375 25.45898438 C2.29518574 23.20176111 2.29518574 23.20176111 2 20 C1.01 19.34 0.02 18.68 -1 18 C-1.24905022 15.24858808 -1.32673572 12.74330188 -1.25 10 C-1.24484375 9.26265625 -1.2396875 8.5253125 -1.234375 7.765625 C-1.15472274 2.30944549 -1.15472274 2.30944549 0 0 Z " fill="#B70F55" transform="translate(38,9)"/>
<path d="M0 0 C0.33 0 0.66 0 1 0 C1 2.31 1 4.62 1 7 C0.01 7 -0.98 7 -2 7 C-1.01 8.485 -1.01 8.485 0 10 C0.99 7.03 1.98 4.06 3 1 C4.423125 0.773125 5.84625 0.54625 7.3125 0.3125 C8.11300781 0.18488281 8.91351563 0.05726562 9.73828125 -0.07421875 C12 0 12 0 13.79296875 1.48046875 C14.19128906 1.98191406 14.58960937 2.48335937 15 3 C14.01 3 13.02 3 12 3 C12 4.32 12 5.64 12 7 C9 9 9 9 6 9 C6 7.02 6 5.04 6 3 C5.01 3 4.02 3 3 3 C3 7.95 3 12.9 3 18 C1.02 18.33 -0.96 18.66 -3 19 C-2.67 18.34 -2.34 17.68 -2 17 C-1.34 17.33 -0.68 17.66 0 18 C-0.8604139 13.66770285 -0.8604139 13.66770285 -3 10 C-3.04092937 7.66702567 -3.04241723 5.33294775 -3 3 C-2.67 3.99 -2.34 4.98 -2 6 C-1.34 6 -0.68 6 0 6 C0 4.02 0 2.04 0 0 Z " fill="#FEADCD" transform="translate(80,49)"/>
<path d="M0 0 C0.99 0 1.98 0 3 0 C3 5.94 3 11.88 3 18 C4.32 18 5.64 18 7 18 C6.67 18.99 6.34 19.98 6 21 C4.35 20.67 2.7 20.34 1 20 C1 19.34 1 18.68 1 18 C0.01 18 -0.98 18 -2 18 C-2.33 18.99 -2.66 19.98 -3 21 C-5.64 21 -8.28 21 -11 21 C-11.33 20.34 -11.66 19.68 -12 19 C-10.906875 18.9175 -9.81375 18.835 -8.6875 18.75 C-5.0765174 18.35851212 -5.0765174 18.35851212 -3.34375 16.40625 C-1.56126913 13.21436564 -1.2481523 10.36926524 -0.8125 6.75 C-0.57466797 4.85507813 -0.57466797 4.85507813 -0.33203125 2.921875 C-0.22246094 1.95765625 -0.11289062 0.9934375 0 0 Z " fill="#F7C7DD" transform="translate(51,71)"/>
<path d="M0 0 C0.33 0.99 0.66 1.98 1 3 C1.66 3 2.32 3 3 3 C4.125 8.75 4.125 8.75 3 11 C3.721875 11.061875 4.44375 11.12375 5.1875 11.1875 C8.8589027 12.24812745 10.47702938 14.19669931 13 17 C13.33 17.33 13.66 17.66 14 18 C14.07179964 19.51928038 14.08392007 21.04167482 14.0625 22.5625 C14.05347656 23.38878906 14.04445313 24.21507813 14.03515625 25.06640625 C14.02355469 25.70449219 14.01195313 26.34257813 14 27 C13.01 27 12.02 27 11 27 C10.54427083 25.01432292 10.08854167 23.02864583 9.6328125 21.04296875 C9.01992277 18.72257026 9.01992277 18.72257026 7 16 C3.44327821 14.7811879 3.44327821 14.7811879 0 14 C-0.19393875 11.85473901 -0.37998676 9.70876323 -0.5625 7.5625 C-0.71912109 5.77005859 -0.71912109 5.77005859 -0.87890625 3.94140625 C-0.91886719 2.97074219 -0.95882812 2.00007813 -1 1 C-0.67 0.67 -0.34 0.34 0 0 Z " fill="#F9F9F7" transform="translate(83,15)"/>
<path d="M0 0 C0.99 0.33 1.98 0.66 3 1 C3 1.99 3 2.98 3 4 C3.99 4 4.98 4 6 4 C6 5.65 6 7.3 6 9 C6.99 9.33 7.98 9.66 9 10 C8.34 11.32 7.68 12.64 7 14 C6.34 14 5.68 14 5 14 C4.67 13.34 4.34 12.68 4 12 C3.34 12 2.68 12 2 12 C2 12.66 2 13.32 2 14 C0.35 14 -1.3 14 -3 14 C-3.33 11.03 -3.66 8.06 -4 5 C-2.68 5 -1.36 5 0 5 C0 3.35 0 1.7 0 0 Z " fill="#91C163" transform="translate(79,4)"/>
<path d="M0 0 C1.2065625 0.0309375 1.2065625 0.0309375 2.4375 0.0625 C3.72754296 2.64258592 3.64160224 4.61991574 3.6875 7.5 C3.71328125 8.46808594 3.7390625 9.43617187 3.765625 10.43359375 C3.4375 13.0625 3.4375 13.0625 2.171875 14.91015625 C0.4375 16.0625 0.4375 16.0625 -3.5625 16.0625 C-3.58935095 13.58326199 -3.60926547 11.1043116 -3.625 8.625 C-3.63756836 7.56442383 -3.63756836 7.56442383 -3.65039062 6.48242188 C-3.65903588 4.67556441 -3.61470011 2.86862397 -3.5625 1.0625 C-2.5625 0.0625 -2.5625 0.0625 0 0 Z " fill="#F58344" transform="translate(78.5625,17.9375)"/>
<path d="M0 0 C1.98 0 3.96 0 6 0 C6.33 0.99 6.66 1.98 7 3 C9.50447516 4.21869929 9.50447516 4.21869929 12 5 C12.125 10.75 12.125 10.75 11 13 C10.01 13 9.02 13 8 13 C8 11.35 8 9.7 8 8 C7.01 8 6.02 8 5 8 C4.67 7.01 4.34 6.02 4 5 C3.34 5 2.68 5 2 5 C1.67 5.99 1.34 6.98 1 8 C-0.32 8 -1.64 8 -3 8 C-3.33 8.66 -3.66 9.32 -4 10 C-4.33 9.01 -4.66 8.02 -5 7 C-3.125 4.4375 -3.125 4.4375 -1 2 C-0.67 1.34 -0.34 0.68 0 0 Z " fill="#F9FBF7" transform="translate(77,0)"/>
<path d="M0 0 C2.31 0 4.62 0 7 0 C7 0.99 7 1.98 7 3 C8.32 3.33 9.64 3.66 11 4 C11 7.96 11 11.92 11 16 C10.01 15.67 9.02 15.34 8 15 C7.67 14.01 7.34 13.02 7 12 C4.69 11.67 2.38 11.34 0 11 C0 10.01 0 9.02 0 8 C1.98 7.67 3.96 7.34 6 7 C6.33 6.01 6.66 5.02 7 4 C4.69 4 2.38 4 0 4 C0 2.68 0 1.36 0 0 Z " fill="#F5D0E0" transform="translate(85,74)"/>
<path d="M0 0 C2 2 2 2 2.1953125 3.9453125 C2.13020833 5.96354167 2.06510417 7.98177083 2 10 C1.34 10 0.68 10 0 10 C-0.66 8.02 -1.32 6.04 -2 4 C-7.28031812 4.27067214 -7.28031812 4.27067214 -11.3125 7.4375 C-11.869375 8.283125 -12.42625 9.12875 -13 10 C-13.66 10.66 -14.32 11.32 -15 12 C-15.66 10.68 -16.32 9.36 -17 8 C-11.96920918 1.53184038 -8.7103824 -2.13650889 0 0 Z " fill="#FEF8FB" transform="translate(133,38)"/>
<path d="M0 0 C0.33 0 0.66 0 1 0 C1.33 1.65 1.66 3.3 2 5 C3.65 5 5.3 5 7 5 C7 4.67 7 4.34 7 4 C8.65 4 10.3 4 12 4 C12.33 2.68 12.66 1.36 13 0 C13.33 0 13.66 0 14 0 C14 4.62 14 9.24 14 14 C13.34 14 12.68 14 12 14 C12 12.35 12 10.7 12 9 C11.484375 9.165 10.96875 9.33 10.4375 9.5 C7.19723486 10.16466977 4.2972667 10.24424198 1 10 C-1.29404844 6.55892734 -1.26293056 5.03160191 -1 1 C-0.67 0.67 -0.34 0.34 0 0 Z " fill="#FBE4EE" transform="translate(66,76)"/>
<path d="M0 0 C2.475 0.495 2.475 0.495 5 1 C4.97679687 2.19238281 4.95359375 3.38476562 4.9296875 4.61328125 C4.91092822 6.17968124 4.89272819 7.746088 4.875 9.3125 C4.85824219 10.09818359 4.84148438 10.88386719 4.82421875 11.69335938 C4.81777344 12.45068359 4.81132813 13.20800781 4.8046875 13.98828125 C4.79421387 14.68477783 4.78374023 15.38127441 4.77294922 16.09887695 C4.89425405 18.331173 4.89425405 18.331173 7 21 C8.32 21 9.64 21 11 21 C11 22.32 11 23.64 11 25 C8.525 24.01 8.525 24.01 6 23 C6 23.66 6 24.32 6 25 C4.35 25 2.7 25 1 25 C1.99 24.67 2.98 24.34 4 24 C3.51015625 23.15824219 3.0203125 22.31648438 2.515625 21.44921875 C0.82002314 17.59041349 0.66020509 15.00143256 0.75 10.8125 C0.76546875 9.60207031 0.7809375 8.39164063 0.796875 7.14453125 C1 4 1 4 2 1 C1.34 0.67 0.68 0.34 0 0 Z " fill="#F1C9C7" transform="translate(41,22)"/>
<path d="M0 0 C0.33 0 0.66 0 1 0 C1 4.29 1 8.58 1 13 C-3.95 14.485 -3.95 14.485 -9 16 C-8.67 14.68 -8.34 13.36 -8 12 C-7.78918149 8.10540926 -7.78918149 8.10540926 -9 5 C-3.25 4.875 -3.25 4.875 -1 6 C-0.67 4.02 -0.34 2.04 0 0 Z " fill="#83BD78" transform="translate(51,4)"/>
<path d="M0 0 C0.185625 0.639375 0.37125 1.27875 0.5625 1.9375 C1.94246056 4.42126213 1.94246056 4.42126213 5.625 4.75 C6.73875 4.8325 7.8525 4.915 9 5 C8.44299928 8.23060419 7.70784878 10.0658223 5 12 C1.25150923 12.46856135 0.23253796 12.15502531 -3 10 C-3.40843923 7.28796348 -3.13336867 4.7562858 -3 2 C-2.34 2 -1.68 2 -1 2 C-0.67 1.34 -0.34 0.68 0 0 Z " fill="#F3C5D9" transform="translate(3,42)"/>
<path d="M0 0 C2.31 0 4.62 0 7 0 C10.12765957 6.25531915 10.12765957 6.25531915 9.625 9.1875 C7.08374668 12.02197486 4.45175501 13.36495815 1 15 C0.01 14.67 -0.98 14.34 -2 14 C-1.34 14 -0.68 14 0 14 C0.2165625 13.071875 0.2165625 13.071875 0.4375 12.125 C1 10 1 10 2 8 C4.97 8.495 4.97 8.495 8 9 C7.505 8.54625 7.01 8.0925 6.5 7.625 C5 6 5 6 5 4 C3.35 4 1.7 4 0 4 C0 2.68 0 1.36 0 0 Z " fill="#FEC823" transform="translate(58,21)"/>
<path d="M0 0 C0.66 0.33 1.32 0.66 2 1 C2 2.98 2 4.96 2 7 C4.37429296 7.25069913 4.37429296 7.25069913 7 7 C8.6644122 5.54429413 8.6644122 5.54429413 10 4 C8.83348574 9.92863717 7.24480642 15.38798394 5 21 C4.31292445 18.50935112 4 16.62113708 4 14 C3.319375 14.99 3.319375 14.99 2.625 16 C2.08875 16.66 1.5525 17.32 1 18 C0.34 18 -0.32 18 -1 18 C-0.9278125 17.3709375 -0.855625 16.741875 -0.78125 16.09375 C-0.19534084 10.69036555 0.10062919 5.43397617 0 0 Z " fill="#F692C0" transform="translate(16,43)"/>
<path d="M0 0 C0.66 0 1.32 0 2 0 C2.10655578 6.44070471 1.96205088 12.62641289 1 19 C0.34 19 -0.32 19 -1 19 C-1 16.03 -1 13.06 -1 10 C-2.32 10.33 -3.64 10.66 -5 11 C-5.103125 10.360625 -5.20625 9.72125 -5.3125 9.0625 C-5.539375 8.381875 -5.76625 7.70125 -6 7 C-6.99 6.67 -7.98 6.34 -9 6 C-8.01 6 -7.02 6 -6 6 C-6 5.34 -6 4.68 -6 4 C-7.32 4 -8.64 4 -10 4 C-9.67 3.01 -9.34 2.02 -9 1 C-9 1.66 -9 2.32 -9 3 C-7.68 3 -6.36 3 -5 3 C-5 4.32 -5 5.64 -5 7 C-4.01 7 -3.02 7 -2 7 C-2.04125 6.21625 -2.0825 5.4325 -2.125 4.625 C-2 2 -2 2 0 0 Z " fill="#BE3567" transform="translate(71,9)"/>
<path d="M0 0 C2.64 0 5.28 0 8 0 C8.33 1.65 8.66 3.3 9 5 C8.34 5 7.68 5 7 5 C7.33 5.99 7.66 6.98 8 8 C8.66 8.33 9.32 8.66 10 9 C10 12.96 10 16.92 10 21 C9.01 21.33 8.02 21.66 7 22 C6.95101563 21.29875 6.90203125 20.5975 6.8515625 19.875 C6.39116058 14.03265841 5.59596049 8.63906038 4 3 C2.68 2.67 1.36 2.34 0 2 C0 1.34 0 0.68 0 0 Z " fill="#FDF0E0" transform="translate(25,63)"/>
<path d="M0 0 C1.32 0.33 2.64 0.66 4 1 C4 6.61 4 12.22 4 18 C2.68 18.33 1.36 18.66 0 19 C0 12.73 0 6.46 0 0 Z " fill="#FF2285" transform="translate(54,70)"/>
<path d="M0 0 C0.33 0 0.66 0 1 0 C1.3475632 3.12806884 1.26933948 4.59599079 -0.5 7.25 C-4.06950959 9.74865672 -6.65091799 9.79290086 -11 10 C-11.99 9.67 -12.98 9.34 -14 9 C-14 8.34 -14 7.68 -14 7 C-14.66 6.67 -15.32 6.34 -16 6 C-15.67 5.34 -15.34 4.68 -15 4 C-13.87851563 4.06960937 -13.87851563 4.06960937 -12.734375 4.140625 C-6.63828729 4.57149512 -6.63828729 4.57149512 -1.375 2 C-0.92125 1.34 -0.4675 0.68 0 0 Z " fill="#B70656" transform="translate(134,66)"/>
<path d="M0 0 C0.33 0 0.66 0 1 0 C1 1.98 1 3.96 1 6 C1.66 6.33 2.32 6.66 3 7 C2.125 9.3125 2.125 9.3125 0 12 C-3.25503832 13.34185155 -6.57339945 14.20924603 -10 15 C-10.66 17.97 -11.32 20.94 -12 24 C-12.99 23.34 -13.98 22.68 -15 22 C-15 21.34 -15 20.68 -15 20 C-14.01 20 -13.02 20 -12 20 C-12 17.36 -12 14.72 -12 12 C-11.18595703 11.74476562 -11.18595703 11.74476562 -10.35546875 11.484375 C-4.62592687 9.61313165 -4.62592687 9.61313165 -1 5 C-0.28566879 2.35065178 -0.28566879 2.35065178 0 0 Z " fill="#F5E6E6" transform="translate(93,36)"/>
<path d="M0 0 C3.465 1.485 3.465 1.485 7 3 C6.67 3.66 6.34 4.32 6 5 C4.35 5 2.7 5 1 5 C1 6.32 1 7.64 1 9 C1.66 9 2.32 9 3 9 C3 9.99 3 10.98 3 12 C1.35 12 -0.3 12 -2 12 C-1.67 10.35 -1.34 8.7 -1 7 C-1.66 6.67 -2.32 6.34 -3 6 C-3 6.66 -3 7.32 -3 8 C-4.32 8 -5.64 8 -7 8 C-7 9.32 -7 10.64 -7 12 C-7.66 12 -8.32 12 -9 12 C-8.875 9.75 -8.875 9.75 -8 7 C-5.0625 4.875 -5.0625 4.875 -2 3 C-1.34 2.01 -0.68 1.02 0 0 Z " fill="#9AB93B" transform="translate(67,30)"/>
<path d="M0 0 C2.3125 0.1875 2.3125 0.1875 5 1 C8 5.03448276 8 5.03448276 8 8 C7.34 8 6.68 8 6 8 C6 9.32 6 10.64 6 12 C4.02 12 2.04 12 0 12 C0.33 9.03 0.66 6.06 1 3 C0.01 3.33 -0.98 3.66 -2 4 C-1.34 2.68 -0.68 1.36 0 0 Z " fill="#FF52A2" transform="translate(106,46)"/>
<path d="M0 0 C0.99 0.33 1.98 0.66 3 1 C3.3183515 5.0589816 3.39717586 7.3474968 1.25 10.875 C-0.96160897 12.96374181 -2.02750614 13.68151851 -5 14 C-5 11.69 -5 9.38 -5 7 C-6.65 7.33 -8.3 7.66 -10 8 C-9.34 6.02 -8.68 4.04 -8 2 C-6.35 2 -4.7 2 -3 2 C-3 4.97 -3 7.94 -3 11 C-0.39665076 8.28817788 -0.00543309 7.10866187 0.1875 3.25 C0.125625 2.1775 0.06375 1.105 0 0 Z " fill="#C66945" transform="translate(90,33)"/>
<path d="M0 0 C1.32 0.33 2.64 0.66 4 1 C4 6.61 4 12.22 4 18 C3.01 18 2.02 18 1 18 C-0.59412284 14.81175432 -0.10174735 11.37103338 -0.0625 7.875 C-0.05798828 7.12089844 -0.05347656 6.36679687 -0.04882812 5.58984375 C-0.03703499 3.72652873 -0.01909942 1.86325445 0 0 Z " fill="#FF2085" transform="translate(56,50)"/>
<path d="M0 0 C2.4375 0.3125 2.4375 0.3125 4.4375 2.3125 C4.5625 4.9375 4.5625 4.9375 4.4375 7.3125 C5.0975 7.3125 5.7575 7.3125 6.4375 7.3125 C6.1075 8.9625 5.7775 10.6125 5.4375 12.3125 C0.6875 11.4375 0.6875 11.4375 -1.5625 10.3125 C-2.1875 7.75 -2.1875 7.75 -2.5625 5.3125 C-0.9125 5.3125 0.7375 5.3125 2.4375 5.3125 C2.4375 4.3225 2.4375 3.3325 2.4375 2.3125 C-0.2025 2.6425 -2.8425 2.9725 -5.5625 3.3125 C-3.75137927 1.02476855 -2.95529457 0.36040178 0 0 Z " fill="#F991C1" transform="translate(128.5625,40.6875)"/>
<path d="M0 0 C0.66 0 1.32 0 2 0 C2.375 2.625 2.375 2.625 2 6 C0.58977915 7.68972408 -0.95630845 9.07927271 -2.59765625 10.54296875 C-4.5010505 12.52059008 -4.84135081 14.30296379 -5 17 C-6.32 16.34 -7.64 15.68 -9 15 C-8.58016074 10.10187531 -6.47121495 8.305919 -3 5 C-2.443125 4.071875 -1.88625 3.14375 -1.3125 2.1875 C-0.879375 1.465625 -0.44625 0.74375 0 0 Z " fill="#FEFAF5" transform="translate(23,79)"/>
<path d="M0 0 C0.33 0.66 0.66 1.32 1 2 C3.32156597 2.40729228 5.6568787 2.74438677 8 3 C7.1875 5.4375 7.1875 5.4375 6 8 C5.01 8.33 4.02 8.66 3 9 C3.66 10.65 4.32 12.3 5 14 C4.01 14 3.02 14 2 14 C2 12.68 2 11.36 2 10 C-0.475 9.01 -0.475 9.01 -3 8 C-2.37240135 5.07120629 -1.41377341 2.63904371 0 0 Z " fill="#FFD039" transform="translate(51,24)"/>
<path d="M0 0 C3.4375 0.5 3.4375 0.5 6.4375 2.5 C6.4375 3.16 6.4375 3.82 6.4375 4.5 C4.5503125 4.4071875 4.5503125 4.4071875 2.625 4.3125 C-0.58491325 4.32910116 -0.58491325 4.32910116 -3.5 5.5625 C-5.07418665 8.43307565 -5.25823087 11.2747472 -5.5625 14.5 C-6.5525 14.5 -7.5425 14.5 -8.5625 14.5 C-7.6364157 1.07177764 -7.6364157 1.07177764 0 0 Z " fill="#FF0B7A" transform="translate(69.5625,68.5)"/>
<path d="M0 0 C1.65 0.33 3.3 0.66 5 1 C5.66 3.31 6.32 5.62 7 8 C3.16275828 8.90413673 -0.37502274 9.10576898 -4.3125 9.0625 C-5.38113281 9.05347656 -6.44976562 9.04445313 -7.55078125 9.03515625 C-8.35902344 9.02355469 -9.16726562 9.01195312 -10 9 C-10 8.67 -10 8.34 -10 8 C-6.7 7.67 -3.4 7.34 0 7 C0 4.69 0 2.38 0 0 Z " fill="#F24B3C" transform="translate(71,36)"/>
<path d="M0 0 C0.99 0 1.98 0 3 0 C3 0.99 3 1.98 3 3 C5.64 3.66 8.28 4.32 11 5 C11 9.29 11 13.58 11 18 C10.34 18 9.68 18 9 18 C8.96261719 17.38511719 8.92523438 16.77023438 8.88671875 16.13671875 C8.78810547 14.92435547 8.78810547 14.92435547 8.6875 13.6875 C8.62949219 12.88699219 8.57148438 12.08648437 8.51171875 11.26171875 C7.90608771 8.58492201 7.13250778 7.68140037 5 6 C2.40084462 4.80972016 2.40084462 4.80972016 0 4 C0 2.68 0 1.36 0 0 Z " fill="#FDECF4" transform="translate(124,48)"/>
<path d="M0 0 C0.66 0.33 1.32 0.66 2 1 C2.74118205 3.31074405 3.40206327 5.64811553 4 8 C4.309375 9.2065625 4.309375 9.2065625 4.625 10.4375 C4.74875 10.953125 4.8725 11.46875 5 12 C4.01 12 3.02 12 2 12 C2.44703986 16.47883696 2.44703986 16.47883696 5 20 C3.02 19.67 1.04 19.34 -1 19 C-0.34 18.67 0.32 18.34 1 18 C0.68991116 16.39536551 0.37683713 14.79130769 0.0625 13.1875 C-0.11152344 12.29417969 -0.28554687 11.40085937 -0.46484375 10.48046875 C-0.97741153 7.88602829 -0.97741153 7.88602829 -2 5 C-1.0625 2.3125 -1.0625 2.3125 0 0 Z " fill="#F9B6D5" transform="translate(116,48)"/>
<path d="M0 0 C0 0.99 0 1.98 0 3 C-1.65 3 -3.3 3 -5 3 C-5 3.66 -5 4.32 -5 5 C-5.99 5.66 -6.98 6.32 -8 7 C-8 8.32 -8 9.64 -8 11 C-8.99 11 -9.98 11 -11 11 C-11.42969812 5.75768289 -11.42969812 5.75768289 -11 3 C-7.58538355 -0.21375666 -4.554237 -0.31773746 0 0 Z " fill="#FF1882" transform="translate(131,43)"/>
<path d="M0 0 C1.32 0 2.64 0 4 0 C4.33 0.99 4.66 1.98 5 3 C5.99 3.33 6.98 3.66 8 4 C9.35439668 6.70879335 9.06501451 9.00933268 9 12 C9.99 12 10.98 12 12 12 C11.67 12.99 11.34 13.98 11 15 C9.12890625 14.7734375 9.12890625 14.7734375 7 14 C5.83984375 12.0390625 5.83984375 12.0390625 4.9375 9.625 C3.68839038 6.3333549 2.51473883 4.43637586 0 2 C0 1.34 0 0.68 0 0 Z " fill="#F3D7DB" transform="translate(61,16)"/>
<path d="M0 0 C1.23556641 0.01740234 1.23556641 0.01740234 2.49609375 0.03515625 C3.32238281 0.04417969 4.14867188 0.05320312 5 0.0625 C5.63808594 0.07410156 6.27617188 0.08570312 6.93359375 0.09765625 C6.93359375 1.74765625 6.93359375 3.39765625 6.93359375 5.09765625 C3.30359375 5.42765625 -0.32640625 5.75765625 -4.06640625 6.09765625 C-2.87403984 0.13582419 -2.87403984 0.13582419 0 0 Z " fill="#BA225D" transform="translate(71.06640625,74.90234375)"/>
<path d="M0 0 C1.32 0.33 2.64 0.66 4 1 C4.04898438 1.75925781 4.09796875 2.51851562 4.1484375 3.30078125 C4.22320312 4.29464844 4.29796875 5.28851563 4.375 6.3125 C4.44460937 7.29863281 4.51421875 8.28476562 4.5859375 9.30078125 C4.83865472 12.21528433 4.83865472 12.21528433 7 15 C6.625 18.1875 6.625 18.1875 6 21 C1.84967043 16.84967043 1.66885716 12.00180201 1.24609375 6.40234375 C1.01821338 4.17779732 0.60081471 2.15002289 0 0 Z " fill="#C7507D" transform="translate(38,55)"/>
<path d="M0 0 C0.33 0.66 0.66 1.32 1 2 C0.01 2 -0.98 2 -2 2 C-2 3.32 -2 4.64 -2 6 C-5 8 -5 8 -8 8 C-8 6.02 -8 4.04 -8 2 C-8.99 2 -9.98 2 -11 2 C-11 1.34 -11 0.68 -11 0 C-7.17907588 -1.37553268 -3.91765889 -0.81309902 0 0 Z " fill="#FF499E" transform="translate(94,50)"/>
<path d="M0 0 C0.99 0 1.98 0 3 0 C2.67 4.95 2.34 9.9 2 15 C1.67 15 1.34 15 1 15 C0.67 13.35 0.34 11.7 0 10 C-0.66 11.98 -1.32 13.96 -2 16 C-3.32 15.67 -4.64 15.34 -6 15 C-5.01 14.67 -4.02 14.34 -3 14 C-2.86722656 13.07316406 -2.73445313 12.14632812 -2.59765625 11.19140625 C-2.42105469 9.99386719 -2.24445312 8.79632813 -2.0625 7.5625 C-1.88847656 6.36753906 -1.71445312 5.17257813 -1.53515625 3.94140625 C-1 1 -1 1 0 0 Z " fill="#FF4097" transform="translate(48,70)"/>
<path d="M0 0 C0.99 0.33 1.98 0.66 3 1 C2.34 1 1.68 1 1 1 C1 2.32 1 3.64 1 5 C1.763125 5.144375 2.52625 5.28875 3.3125 5.4375 C6 6 6 6 9 7 C9 8.32 9 9.64 9 11 C8.34 11 7.68 11 7 11 C6.67 11.99 6.34 12.98 6 14 C6 13.01 6 12.02 6 11 C3.69 11 1.38 11 -1 11 C-1 10.67 -1 10.34 -1 10 C0.98 10 2.96 10 5 10 C5 9.01 5 8.02 5 7 C0.545 7.495 0.545 7.495 -4 8 C-3.34 6.68 -2.68 5.36 -2 4 C-1.34 4.33 -0.68 4.66 0 5 C0 3.35 0 1.7 0 0 Z " fill="#FF7CB7" transform="translate(86,63)"/>
<path d="M0 0 C0.33 0.66 0.66 1.32 1 2 C1.66 2 2.32 2 3 2 C3.50559908 3.43554025 4.0042749 4.8735202 4.5 6.3125 C4.7784375 7.11300781 5.056875 7.91351563 5.34375 8.73828125 C6 11 6 11 6 14 C5.01 14 4.02 14 3 14 C3 12.68 3 11.36 3 10 C0.03 9.67 -2.94 9.34 -6 9 C-5.67 8.34 -5.34 7.68 -5 7 C-3.02 7 -1.04 7 1 7 C0.67 4.69 0.34 2.38 0 0 Z " fill="#FF0779" transform="translate(31,52)"/>
<path d="M0 0 C1.98 0 3.96 0 6 0 C6 0.66 6 1.32 6 2 C6.99 2.33 7.98 2.66 9 3 C9 3.66 9 4.32 9 5 C6.03 4.505 6.03 4.505 3 4 C2.7525 4.94875 2.505 5.8975 2.25 6.875 C1 10 1 10 -1.125 11.375 C-1.74375 11.58125 -2.3625 11.7875 -3 12 C-3 10.68 -3 9.36 -3 8 C-3.66 7.67 -4.32 7.34 -5 7 C-3.35 7 -1.7 7 0 7 C1.00217064 3.41672247 1.00217064 3.41672247 0 0 Z " fill="#FFD958" transform="translate(57,25)"/>
<path d="M0 0 C0.33 0.99 0.66 1.98 1 3 C-1.47955597 5.2888209 -2.62595004 5.98473265 -6.0625 6.125 C-7.031875 6.08375 -8.00125 6.0425 -9 6 C-9.99 6.33 -10.98 6.66 -12 7 C-12 6.01 -12 5.02 -12 4 C-11.34 4 -10.68 4 -10 4 C-10 3.01 -10 2.02 -10 1 C-9.36191406 1.01160156 -8.72382812 1.02320312 -8.06640625 1.03515625 C-7.24011719 1.04417969 -6.41382812 1.05320312 -5.5625 1.0625 C-4.32693359 1.07990234 -4.32693359 1.07990234 -3.06640625 1.09765625 C-1.00836062 1.23267348 -1.00836062 1.23267348 0 0 Z " fill="#B70955" transform="translate(105,70)"/>
<path d="M0 0 C0.33 0 0.66 0 1 0 C1 4.62 1 9.24 1 14 C1.99 14 2.98 14 4 14 C4 16.31 4 18.62 4 21 C4.66 21.33 5.32 21.66 6 22 C5.01 22 4.02 22 3 22 C2.7525 21.195625 2.505 20.39125 2.25 19.5625 C1.27761141 16.828919 1.27761141 16.828919 -1.125 16.1875 C-2.053125 16.0946875 -2.053125 16.0946875 -3 16 C-3 16.99 -3 17.98 -3 19 C-3.99 19 -4.98 19 -6 19 C-6 17.68 -6 16.36 -6 15 C-4.35 14.67 -2.7 14.34 -1 14 C-0.67 9.38 -0.34 4.76 0 0 Z " fill="#D2AF70" transform="translate(74,20)"/>
<path d="M0 0 C1.32 1.32 2.64 2.64 4 4 C3.5359375 4.8971875 3.5359375 4.8971875 3.0625 5.8125 C1.89790296 8.08956772 1.89790296 8.08956772 1 11 C1.99 10.34 2.98 9.68 4 9 C4.99 9 5.98 9 7 9 C6.34 10.65 5.68 12.3 5 14 C2.69 13.34 0.38 12.68 -2 12 C-1.67 10.35 -1.34 8.7 -1 7 C-0.34 7 0.32 7 1 7 C0.67 4.69 0.34 2.38 0 0 Z " fill="#ECE7E2" transform="translate(41,9)"/>
<path d="M0 0 C0.33 0 0.66 0 1 0 C1.33 3.63 1.66 7.26 2 11 C4.31 11 6.62 11 9 11 C9 11.66 9 12.32 9 13 C8.01 13 7.02 13 6 13 C6 13.66 6 14.32 6 15 C4.00045254 15.04254356 1.99958364 15.04080783 0 15 C-1 14 -1 14 -1.1328125 11.85546875 C-1.13023438 10.97503906 -1.12765625 10.09460938 -1.125 9.1875 C-1.12757812 8.31480469 -1.13015625 7.44210938 -1.1328125 6.54296875 C-1.01114834 4.21345785 -0.65514709 2.23061985 0 0 Z " fill="#FF0B79" transform="translate(82,75)"/>
<path d="M0 0 C1.32 0 2.64 0 4 0 C3.67 0.66 3.34 1.32 3 2 C2.34 1.67 1.68 1.34 1 1 C1.309375 2.175625 1.309375 2.175625 1.625 3.375 C2.12252501 8.18440843 1.11607929 12.33275932 0 17 C-0.33 15.68 -0.66 14.36 -1 13 C-1.66 13 -2.32 13 -3 13 C-2.33333333 9.66666667 -1.66666667 6.33333333 -1 3 C-1.66 2.67 -2.32 2.34 -3 2 C-2.01 2 -1.02 2 0 2 C0 1.34 0 0.68 0 0 Z " fill="#ECD2C9" transform="translate(26,66)"/>
<path d="M0 0 C0.66 0.99 1.32 1.98 2 3 C3.32 3.66 4.64 4.32 6 5 C6 9.95 6 14.9 6 20 C4 18 4 18 3.8046875 15.3984375 C3.82789063 14.40070312 3.85109375 13.40296875 3.875 12.375 C3.89304687 11.37210938 3.91109375 10.36921875 3.9296875 9.3359375 C3.95289063 8.56507812 3.97609375 7.79421875 4 7 C3.38125 6.71125 2.7625 6.4225 2.125 6.125 C0 5 0 5 -2 3 C-1.34 3 -0.68 3 0 3 C0 2.01 0 1.02 0 0 Z " fill="#F5CADE" transform="translate(38,49)"/>
<path d="M0 0 C0 3.92896395 -1.00299863 7.19893228 -2 11 C-1.14148437 11.21462891 -1.14148437 11.21462891 -0.265625 11.43359375 C0.48203125 11.62050781 1.2296875 11.80742188 2 12 C2.70640625 12.17660156 3.4128125 12.35320312 4.140625 12.53515625 C6.09375 13.0234375 8.046875 13.51171875 10 14 C10 14.33 10 14.66 10 15 C7.69 15 5.38 15 3 15 C2.67 15.66 2.34 16.32 2 17 C-2.73038036 13.21569571 -2.73038036 13.21569571 -3.4375 10.02734375 C-3.53752011 6.68292122 -3.2268384 4.37806401 -1.5 1.5 C-1.005 1.005 -0.51 0.51 0 0 Z " fill="#FF3391" transform="translate(63,72)"/>
<path d="M0 0 C0.33 0.99 0.66 1.98 1 3 C4.3 2.67 7.6 2.34 11 2 C11 3.32 11 4.64 11 6 C7.37 6 3.74 6 0 6 C0 4.02 0 2.04 0 0 Z " fill="#FF117F" transform="translate(5,63)"/>
<path d="M0 0 C1.62463842 -0.05395478 3.24978541 -0.09277195 4.875 -0.125 C5.77992187 -0.14820313 6.68484375 -0.17140625 7.6171875 -0.1953125 C10 0 10 0 12 2 C11.34 2.66 10.68 3.32 10 4 C9.29289322 5.64991582 8.62056011 7.31562256 8 9 C7.34 9 6.68 9 6 9 C6 7.02 6 5.04 6 3 C4.02 2.34 2.04 1.68 0 1 C0 0.67 0 0.34 0 0 Z " fill="#FA755F" transform="translate(56,46)"/>
<path d="M0 0 C0.33 0.66 0.66 1.32 1 2 C-0.21484375 4.6015625 -0.21484375 4.6015625 -1.9375 7.625 C-2.50339844 8.62789062 -3.06929688 9.63078125 -3.65234375 10.6640625 C-4.09707031 11.43492188 -4.54179688 12.20578125 -5 13 C-5.66 13 -6.32 13 -7 13 C-7.50227431 7.72611976 -6.32894202 5.08984305 -3 1 C-2.01 0.67 -1.02 0.34 0 0 Z " fill="#FEF5F9" transform="translate(7,53)"/>
<path d="M0 0 C0.66 0 1.32 0 2 0 C1.67 1.98 1.34 3.96 1 6 C-3.10791365 7.54046762 -6.78566579 6.75996191 -11 6 C-11.33 5.34 -11.66 4.68 -12 4 C-10.95199219 3.81824219 -10.95199219 3.81824219 -9.8828125 3.6328125 C-8.51769531 3.38144531 -8.51769531 3.38144531 -7.125 3.125 C-5.76761719 2.88136719 -5.76761719 2.88136719 -4.3828125 2.6328125 C-1.83494012 2.16955297 -1.83494012 2.16955297 0 0 Z " fill="#B70A55" transform="translate(93,90)"/>
<path d="M0 0 C0.33 0 0.66 0 1 0 C1.34751969 2.91916538 1.53280018 5.13195476 -0.04296875 7.69921875 C-1.84637235 9.88339965 -3.44412384 11.72206192 -6 13 C-7.99960012 13.039992 -10.00047242 13.04346799 -12 13 C-11.67 11.68 -11.34 10.36 -11 9 C-10.443125 9.268125 -9.88625 9.53625 -9.3125 9.8125 C-6.7395017 10.2887894 -6.7395017 10.2887894 -4.375 7.875 C-2.18980372 5.22976239 -1.01828632 3.24000193 0 0 Z " fill="#F9E7CF" transform="translate(30,85)"/>
<path d="M0 0 C0 0.99 0 1.98 0 3 C-1.093125 2.979375 -2.18625 2.95875 -3.3125 2.9375 C-6.94384191 2.81455548 -6.94384191 2.81455548 -10 4 C-10.20970559 8.14093698 -10.20970559 8.14093698 -9 12 C-9.99 11.67 -10.98 11.34 -12 11 C-12.47880299 3.81795511 -12.47880299 3.81795511 -10.5 0.4375 C-6.72858765 -1.7310621 -4.20785488 -0.84157098 0 0 Z " fill="#F9A3CB" transform="translate(76,73)"/>
<path d="M0 0 C0.66 0.33 1.32 0.66 2 1 C2 1.66 2 2.32 2 3 C3.98 2.67 5.96 2.34 8 2 C7.37240135 4.92879371 6.41377341 7.36095629 5 10 C5 8.35 5 6.7 5 5 C4.34 5 3.68 5 3 5 C2.67 6.65 2.34 8.3 2 10 C1.01 9.67 0.02 9.34 -1 9 C-0.34 9 0.32 9 1 9 C0.649375 8.071875 0.29875 7.14375 -0.0625 6.1875 C-1 3 -1 3 0 0 Z " fill="#FBE8F1" transform="translate(75,65)"/>
<path d="M0 0 C0.66 0.33 1.32 0.66 2 1 C1.67 2.98 1.34 4.96 1 7 C-3.455 7.495 -3.455 7.495 -8 8 C-9 3.25 -9 3.25 -9 1 C-6.525 1.495 -6.525 1.495 -4 2 C-4 2.66 -4 3.32 -4 4 C-2.68 4.66 -1.36 5.32 0 6 C0 4.02 0 2.04 0 0 Z " fill="#F6A90E" transform="translate(56,36)"/>
<path d="M0 0 C0.33 0 0.66 0 1 0 C1.45892351 7.95467422 1.45892351 7.95467422 -0.125 11.5625 C-2.76621719 13.58743318 -4.76578783 13.28748553 -8 13 C-8.33 12.01 -8.66 11.02 -9 10 C-6.69 10 -4.38 10 -2 10 C-1.34 6.7 -0.68 3.4 0 0 Z " fill="#FF0F7C" transform="translate(48,77)"/>
<path d="M0 0 C0.33 0 0.66 0 1 0 C1.33 3.3 1.66 6.6 2 10 C-2.10457614 12.98514628 -4.97745369 13.2954439 -10 13 C-10.33 11.68 -10.66 10.36 -11 9 C-9.906875 9.20625 -8.81375 9.4125 -7.6875 9.625 C-3.9161599 10.40346525 -3.9161599 10.40346525 -1 8 C-0.42251197 6.03638136 -0.42251197 6.03638136 -0.3125 3.875 C-0.209375 2.59625 -0.10625 1.3175 0 0 Z " fill="#F9C0DA" transform="translate(132,57)"/>
<path d="M0 0 C2.20914 3.31371 2.22481553 4.3446021 2.125 8.1875 C2.10695313 9.08855469 2.08890625 9.98960938 2.0703125 10.91796875 C2.03550781 11.94857422 2.03550781 11.94857422 2 13 C3.11375 13.103125 4.2275 13.20625 5.375 13.3125 C7.169375 13.6528125 7.169375 13.6528125 9 14 C9.99 15.485 9.99 15.485 11 17 C10.01 17.33 9.02 17.66 8 18 C7.34 17.34 6.68 16.68 6 16 C2.40320934 16.32326553 2.40320934 16.32326553 -1 17 C-0.67 16.34 -0.34 15.68 0 15 C0.0716735 12.44842345 0.09308442 9.92527029 0.0625 7.375 C0.05573242 6.31539062 0.05573242 6.31539062 0.04882812 5.234375 C0.03703875 3.48954725 0.01910324 1.744763 0 0 Z " fill="#C6CF99" transform="translate(81,16)"/>
<path d="M0 0 C0.28875 0.61875 0.5775 1.2375 0.875 1.875 C1.93720042 4.13325765 1.93720042 4.13325765 4 6 C6.89223503 6.46396693 6.89223503 6.46396693 10.125 6.625 C11.76855469 6.73714844 11.76855469 6.73714844 13.4453125 6.8515625 C14.28835937 6.90054688 15.13140625 6.94953125 16 7 C13.54006058 9.45993942 12.64998115 9.34992473 9.25 9.4375 C5.44188971 9.387829 3.30231215 8.97210811 0.375 6.5 C-0.40875 5.675 -1.1925 4.85 -2 4 C-1.34 3.67 -0.68 3.34 0 3 C0 2.01 0 1.02 0 0 Z " fill="#EDC6D7" transform="translate(2,63)"/>
<path d="M0 0 C4.7857794 3.82862352 4.7857794 3.82862352 5.3671875 7.0078125 C5.37907431 10.22913879 5.01888175 12.94335474 4 16 C2.68 16 1.36 16 0 16 C0 15.34 0 14.68 0 14 C0.66 13.67 1.32 13.34 2 13 C2.18319769 8.96965088 1.94065076 6.51742949 0 3 C0 2.01 0 1.02 0 0 Z " fill="#F7E1EB" transform="translate(35,54)"/>
<path d="M0 0 C1.32 0 2.64 0 4 0 C4 3.96 4 7.92 4 12 C3.01 11.67 2.02 11.34 1 11 C0.67 7.37 0.34 3.74 0 0 Z " fill="#CA5984" transform="translate(50,56)"/>
<path d="M0 0 C0.33 0 0.66 0 1 0 C1.33 5.94 1.66 11.88 2 18 C2.99 18.33 3.98 18.66 5 19 C2.125 19.625 2.125 19.625 -1 20 C-1.66 19.34 -2.32 18.68 -3 18 C-2.34 18 -1.68 18 -1 18 C-0.505 9.09 -0.505 9.09 0 0 Z " fill="#FABFDB" transform="translate(55,50)"/>
<path d="M0 0 C1.98 0.99 1.98 0.99 4 2 C4 2.66 4 3.32 4 4 C6.64 3.67 9.28 3.34 12 3 C11.67 3.99 11.34 4.98 11 6 C9.02 6 7.04 6 5 6 C5 6.33 5 6.66 5 7 C3.35 7 1.7 7 0 7 C0 4.69 0 2.38 0 0 Z " fill="#BE2068" transform="translate(14,94)"/>
<path d="M0 0 C0.66 0 1.32 0 2 0 C1.67 3.63 1.34 7.26 1 11 C1.66 11 2.32 11 3 11 C3 11.99 3 12.98 3 14 C2.34 14 1.68 14 1 14 C1 13.34 1 12.68 1 12 C0.01 12 -0.98 12 -2 12 C-1.85962479 10.18706911 -1.71255111 8.3746557 -1.5625 6.5625 C-1.48128906 5.55316406 -1.40007813 4.54382812 -1.31640625 3.50390625 C-1 1 -1 1 0 0 Z " fill="#FEE9F3" transform="translate(62,57)"/>
<path d="M0 0 C3.465 1.98 3.465 1.98 7 4 C6.67 5.32 6.34 6.64 6 8 C2 8 2 8 0 7 C0 4.69 0 2.38 0 0 Z " fill="#BA155B" transform="translate(0,45)"/>
<path d="M0 0 C0.04063832 1.66617115 0.042721 3.33388095 0 5 C-0.66 4.01 -1.32 3.02 -2 2 C-4.72134847 1.49604658 -7.25075862 1.20126845 -10 1 C-11.05445313 0.90847656 -12.10890625 0.81695312 -13.1953125 0.72265625 C-16.12937394 0.46948074 -19.06404353 0.22998326 -22 0 C-22 -0.33 -22 -0.66 -22 -1 C-19.25034772 -1.19511725 -16.50057868 -1.38136433 -13.75 -1.5625 C-12.97269531 -1.61857422 -12.19539063 -1.67464844 -11.39453125 -1.73242188 C-10.64042969 -1.78076172 -9.88632812 -1.82910156 -9.109375 -1.87890625 C-8.41811523 -1.9260376 -7.72685547 -1.97316895 -7.01464844 -2.02172852 C-4.44992262 -1.99406727 -1.8798656 -1.8798656 0 0 Z " fill="#FECCDD" transform="translate(61,49)"/>
<path d="M0 0 C1.98 0.495 1.98 0.495 4 1 C3.67 6.61 3.34 12.22 3 18 C2.67 18 2.34 18 2 18 C1.92652344 16.86111328 1.92652344 16.86111328 1.8515625 15.69921875 C1.77679688 14.70535156 1.70203125 13.71148437 1.625 12.6875 C1.55539063 11.70136719 1.48578125 10.71523437 1.4140625 9.69921875 C1.16134528 6.78471567 1.16134528 6.78471567 -1 4 C-0.625 1.8125 -0.625 1.8125 0 0 Z " fill="#F490BD" transform="translate(78,70)"/>
<path d="M0 0 C0.99 0 1.98 0 3 0 C3 5.61 3 11.22 3 17 C2.67 17 2.34 17 2 17 C1.67 13.7 1.34 10.4 1 7 C0.67 8.65 0.34 10.3 0 12 C-0.33 12 -0.66 12 -1 12 C-0.67 8.04 -0.34 4.08 0 0 Z " fill="#FF98C8" transform="translate(51,71)"/>
<path d="M0 0 C0.33 0.66 0.66 1.32 1 2 C2.32 2 3.64 2 5 2 C5 3.32 5 4.64 5 6 C5.99 6 6.98 6 8 6 C8 4.35 8 2.7 8 1 C8.33 1 8.66 1 9 1 C8.67 3.97 8.34 6.94 8 10 C6.68 9.67 5.36 9.34 4 9 C4 8.01 4 7.02 4 6 C3.01 5.67 2.02 5.34 1 5 C1.99 5 2.98 5 4 5 C4 4.34 4 3.68 4 3 C2.68 3 1.36 3 0 3 C0 2.01 0 1.02 0 0 Z " fill="#C5919A" transform="translate(61,10)"/>
<path d="M0 0 C3.875 1.875 3.875 1.875 5 3 C6.84891946 3.23363881 8.70488031 3.41303635 10.5625 3.5625 C11.57441406 3.64628906 12.58632812 3.73007813 13.62890625 3.81640625 C14.80259766 3.90728516 14.80259766 3.90728516 16 4 C16 4.33 16 4.66 16 5 C13.89590361 5.02701408 11.79170822 5.04640223 9.6875 5.0625 C8.51574219 5.07410156 7.34398438 5.08570312 6.13671875 5.09765625 C3 5 3 5 0 4 C-1.66621616 3.96125079 -3.33394172 3.9549714 -5 4 C-3.35 2.68 -1.7 1.36 0 0 Z " fill="#C54278" transform="translate(59,89)"/>
<path d="M0 0 C0.99 0.33 1.98 0.66 3 1 C3.33292585 5.24480464 3.43885872 7.35542625 1 10.9375 C0.34 11.618125 -0.32 12.29875 -1 13 C-1.99 12.67 -2.98 12.34 -4 12 C-3.34 11.319375 -2.68 10.63875 -2 9.9375 C0.43885872 6.35542625 0.33292585 4.24480464 0 0 Z " fill="#6CA85F" transform="translate(90,33)"/>
<path d="M0 0 C5 2 5 2 10 4 C10 4.66 10 5.32 10 6 C9.01 6 8.02 6 7 6 C6.67 6.99 6.34 7.98 6 9 C5.62875 8.0409375 5.62875 8.0409375 5.25 7.0625 C4.18437567 4.81258459 4.18437567 4.81258459 1.875 4.25 C1.25625 4.1675 0.6375 4.085 0 4 C0 2.68 0 1.36 0 0 Z " fill="#FDEBF3" transform="translate(87,64)"/>
<path d="M0 0 C2 1.8125 2 1.8125 4 4 C4 4.99 4 5.98 4 7 C3.01 7.495 3.01 7.495 2 8 C0.86649466 10.01669827 0.86649466 10.01669827 0 12 C-0.19477739 10.37585622 -0.38059458 8.75063577 -0.5625 7.125 C-0.66691406 6.22007813 -0.77132812 5.31515625 -0.87890625 4.3828125 C-1 2 -1 2 0 0 Z " fill="#BD2463" transform="translate(38,9)"/>
<path d="M0 0 C0.33 0.99 0.66 1.98 1 3 C1.99 3 2.98 3 4 3 C4 4.65 4 6.3 4 8 C4.99 8.33 5.98 8.66 7 9 C6.34 10.32 5.68 11.64 5 13 C4.34 13 3.68 13 3 13 C1.5393715 10.35261084 1 9.10551666 1 6 C0.67 6 0.34 6 0 6 C0 4.02 0 2.04 0 0 Z " fill="#CEBEAC" transform="translate(81,5)"/>
<path d="M0 0 C0.75 1.6875 0.75 1.6875 1 4 C-0.94547207 7.2175115 -2.10182081 8.73462887 -5.75 9.8125 C-6.4925 9.874375 -7.235 9.93625 -8 10 C-8.33 8.68 -8.66 7.36 -9 6 C-8.2575 6.12375 -7.515 6.2475 -6.75 6.375 C-3.65688967 6.28106653 -3.65688967 6.28106653 -1.6875 3 C-1.130625 2.01 -0.57375 1.02 0 0 Z " fill="#FDCC2B" transform="translate(28,86)"/>
<path d="M0 0 C0.33 0 0.66 0 1 0 C1 1.98 1 3.96 1 6 C1.66 6.33 2.32 6.66 3 7 C1.625 9.5 1.625 9.5 0 12 C-0.66 12 -1.32 12 -2 12 C-2 11.34 -2 10.68 -2 10 C-2.66 9.67 -3.32 9.34 -4 9 C-3.525625 8.443125 -3.05125 7.88625 -2.5625 7.3125 C-0.87604004 4.81653926 -0.41046893 2.9553763 0 0 Z " fill="#D9B4BF" transform="translate(93,36)"/>
<path d="M0 0 C0.33 0 0.66 0 1 0 C0.30834212 5.41798672 -0.75799248 10.6822785 -2 16 C-2.99 16 -3.98 16 -5 16 C-4.39363767 10.23955788 -2.24341721 5.27985631 0 0 Z " fill="#FF107B" transform="translate(25,51)"/>
<path d="M0 0 C3.3 0 6.6 0 10 0 C10.66 1.32 11.32 2.64 12 4 C10.35 4.33 8.7 4.66 7 5 C7.33 4.34 7.66 3.68 8 3 C5.69 2.34 3.38 1.68 1 1 C0.67 2.32 0.34 3.64 0 5 C0 3.35 0 1.7 0 0 Z " fill="#FF3994" transform="translate(4,41)"/>
<path d="M0 0 C0.33 0.99 0.66 1.98 1 3 C1.66 3 2.32 3 3 3 C2.67 4.65 2.34 6.3 2 8 C0.68 8 -0.64 8 -2 8 C-2 5.69 -2 3.38 -2 1 C-1.34 0.67 -0.68 0.34 0 0 Z " fill="#7EAC3D" transform="translate(79,10)"/>
<path d="M0 0 C0.99 0.33 1.98 0.66 3 1 C3 4.96 3 8.92 3 13 C2.01 13.33 1.02 13.66 0 14 C0 9.38 0 4.76 0 0 Z " fill="#FDF9FA" transform="translate(32,71)"/>
<path d="M0 0 C0.66 0.33 1.32 0.66 2 1 C2 2.98 2 4.96 2 7 C1.01 6.67 0.02 6.34 -1 6 C-1.33 5.34 -1.66 4.68 -2 4 C-4.97 4 -7.94 4 -11 4 C-11 3.34 -11 2.68 -11 2 C-7.37 2 -3.74 2 0 2 C0 1.34 0 0.68 0 0 Z " fill="#FF1B84" transform="translate(78,60)"/>
<path d="M0 0 C0 0.66 0 1.32 0 2 C-0.66 2 -1.32 2 -2 2 C-2 2.66 -2 3.32 -2 4 C-2.66 4 -3.32 4 -4 4 C-4.33 4.66 -4.66 5.32 -5 6 C-5.66 5.34 -6.32 4.68 -7 4 C-9.57061311 3.35232207 -9.57061311 3.35232207 -12 3 C-12 2.67 -12 2.34 -12 2 C-7.8803623 0.70756464 -4.33168317 -0.26252625 0 0 Z " fill="#FC8369" transform="translate(80,44)"/>
<path d="M0 0 C1.32 0.33 2.64 0.66 4 1 C4 1.99 4 2.98 4 4 C1.6875 5.75 1.6875 5.75 -1 7 C-1.99 6.67 -2.98 6.34 -4 6 C-3.34 6 -2.68 6 -2 6 C-1.7834375 5.071875 -1.7834375 5.071875 -1.5625 4.125 C-1 2 -1 2 0 0 Z " fill="#FDC312" transform="translate(60,29)"/>
<path d="M0 0 C0.66 0 1.32 0 2 0 C2 0.66 2 1.32 2 2 C2.66 2 3.32 2 4 2 C4 3.98 4 5.96 4 8 C2.68 7.67 1.36 7.34 0 7 C0 4.69 0 2.38 0 0 Z " fill="#FEF4F9" transform="translate(41,77)"/>
<path d="M0 0 C0.66 0.33 1.32 0.66 2 1 C2.74118205 3.31074405 3.40206327 5.64811553 4 8 C4.309375 9.2065625 4.309375 9.2065625 4.625 10.4375 C4.74875 10.953125 4.8725 11.46875 5 12 C4.01 11.67 3.02 11.34 2 11 C1.05078125 8.71484375 1.05078125 8.71484375 0.3125 5.9375 C0.06113281 5.01839844 -0.19023438 4.09929688 -0.44921875 3.15234375 C-0.63097656 2.44207031 -0.81273438 1.73179688 -1 1 C-0.67 0.67 -0.34 0.34 0 0 Z " fill="#DF9AB6" transform="translate(116,48)"/>
<path d="M0 0 C3.3309303 -0.37010337 4.62731223 -0.27461204 7.375 1.75 C9 4 9 4 8.75 6.25 C8.5025 6.8275 8.255 7.405 8 8 C7.443125 7.195625 6.88625 6.39125 6.3125 5.5625 C3.78135513 2.75771784 2.67420866 2.30618405 -1 2 C-0.67 1.34 -0.34 0.68 0 0 Z " fill="#FDDDDF" transform="translate(68,47)"/>
<path d="M0 0 C2.33944736 0.28730055 4.6739143 0.61936779 7 1 C6.071875 1.3403125 6.071875 1.3403125 5.125 1.6875 C2.38589791 3.37929835 1.94975528 4.99244161 1 8 C0.34 8 -0.32 8 -1 8 C-1.04241723 5.66705225 -1.04092937 3.33297433 -1 1 C-0.67 0.67 -0.34 0.34 0 0 Z " fill="#DDDFA1" transform="translate(79,33)"/>
<path d="M0 0 C2.97 0.495 2.97 0.495 6 1 C5.34 2.32 4.68 3.64 4 5 C2.35 5 0.7 5 -1 5 C-0.67 3.35 -0.34 1.7 0 0 Z " fill="#FFC109" transform="translate(53,26)"/>
<path d="M0 0 C3 1 3 1 5 4 C4.625 7.1875 4.625 7.1875 4 10 C1.7448078 7.7448078 1.02276532 5.9952413 0 3 C0 2.01 0 1.02 0 0 Z " fill="#C44473" transform="translate(40,66)"/>
<path d="M0 0 C0.99 0 1.98 0 3 0 C3.66 1.98 4.32 3.96 5 6 C3.02 6 1.04 6 -1 6 C-0.67 4.02 -0.34 2.04 0 0 Z " fill="#FF2088" transform="translate(112,54)"/>
<path d="M0 0 C1.32 0.33 2.64 0.66 4 1 C4.33 2.65 4.66 4.3 5 6 C3.35 6 1.7 6 0 6 C0 4.02 0 2.04 0 0 Z " fill="#FF7FBA" transform="translate(69,54)"/>
<path d="M0 0 C0.99 0 1.98 0 3 0 C2.125 3.875 2.125 3.875 1 5 C0.76924918 6.34747084 0.58846937 7.70377565 0.4375 9.0625 C0.2209375 11.0115625 0.2209375 11.0115625 0 13 C-0.33 13 -0.66 13 -1 13 C-1.2236337 11.58566794 -1.42826476 10.16832382 -1.625 8.75 C-1.74101562 7.96109375 -1.85703125 7.1721875 -1.9765625 6.359375 C-2.00319395 3.67847541 -1.36592084 2.27305911 0 0 Z " fill="#FF2B8B" transform="translate(27,45)"/>
<path d="M0 0 C2.97 0.33 5.94 0.66 9 1 C6 4 6 4 2.8125 4.1875 C1.4203125 4.0946875 1.4203125 4.0946875 0 4 C0 2.68 0 1.36 0 0 Z " fill="#FF0678" transform="translate(5,42)"/>
<path d="M0 0 C2.6875 -0.25 2.6875 -0.25 5 0 C4.38125 0.061875 3.7625 0.12375 3.125 0.1875 C0.72882071 0.81740446 0.72882071 0.81740446 -0.125 3.5 C-0.558125 4.7375 -0.558125 4.7375 -1 6 C-4.2830098 7.6415049 -7.42545033 6.51888624 -11 6 C-11 5.67 -11 5.34 -11 5 C-9.1128125 4.87625 -9.1128125 4.87625 -7.1875 4.75 C-3.71988281 4.40659875 -3.71988281 4.40659875 -1.3125 1.9375 C-0.6628125 0.9784375 -0.6628125 0.9784375 0 0 Z " fill="#C53F77" transform="translate(106,65)"/>
<path d="M0 0 C2.475 0.495 2.475 0.495 5 1 C5 2.65 5 4.3 5 6 C3.35 6 1.7 6 0 6 C0 5.34 0 4.68 0 4 C0.66 4 1.32 4 2 4 C2 3.34 2 2.68 2 2 C1.34 2 0.68 2 0 2 C0 1.34 0 0.68 0 0 Z " fill="#F43838" transform="translate(72,37)"/>
<path d="M0 0 C1.32 0 2.64 0 4 0 C4.33 1.65 4.66 3.3 5 5 C5.66 5 6.32 5 7 5 C7 6.65 7 8.3 7 10 C6.401875 9.236875 5.80375 8.47375 5.1875 7.6875 C3.15995888 5.08664741 3.15995888 5.08664741 1.25 3.3125 C0 2 0 2 0 0 Z " fill="#FAF1E3" transform="translate(61,16)"/>
<path d="M0 0 C0.33 0 0.66 0 1 0 C1 3.63 1 7.26 1 11 C0.34 11 -0.32 11 -1 11 C-1.33 11.99 -1.66 12.98 -2 14 C-3.0625 12.125 -3.0625 12.125 -4 10 C-3.67 9.34 -3.34 8.68 -3 8 C-2.34 8 -1.68 8 -1 8 C-0.67 5.36 -0.34 2.72 0 0 Z " fill="#FEDA53" transform="translate(31,74)"/>
<path d="M0 0 C2.97 0.495 2.97 0.495 6 1 C6 2.32 6 3.64 6 5 C3.525 4.01 3.525 4.01 1 3 C1 3.66 1 4.32 1 5 C-0.65 5 -2.3 5 -4 5 C-3.01 4.67 -2.02 4.34 -1 4 C-0.26676204 1.98491642 -0.26676204 1.98491642 0 0 Z " fill="#D1C390" transform="translate(46,42)"/>
<path d="M0 0 C0.99 0.33 1.98 0.66 3 1 C3 2.32 3 3.64 3 5 C3.99 5 4.98 5 6 5 C6 6.32 6 7.64 6 9 C4.35 8.67 2.7 8.34 1 8 C1.33 6.35 1.66 4.7 2 3 C1.34 3 0.68 3 0 3 C0 2.01 0 1.02 0 0 Z " fill="#FFBF0A" transform="translate(50,33)"/>
<path d="M0 0 C2.6875 0.3125 2.6875 0.3125 5 1 C5.33 2.32 5.66 3.64 6 5 C1.545 4.01 1.545 4.01 -3 3 C-2.01 2.01 -1.02 1.02 0 0 Z " fill="#F1F4B7" transform="translate(83,31)"/>
<path d="M0 0 C1.65 1.65 3.3 3.3 5 5 C2.33333333 5.66666667 -0.33333333 6.33333333 -3 7 C-3 6.34 -3 5.68 -3 5 C-2.34 5 -1.68 5 -1 5 C-0.67 3.35 -0.34 1.7 0 0 Z " fill="#C02F6C" transform="translate(33,86)"/>
<path d="M0 0 C2.5 1.3125 2.5 1.3125 5 3 C5 3.99 5 4.98 5 6 C1.84915995 6 0.66128684 5.54526333 -2 4 C-2.66 3.34 -3.32 2.68 -4 2 C-2.68 2 -1.36 2 0 2 C0 1.34 0 0.68 0 0 Z " fill="#F2AECD" transform="translate(61,86)"/>
<path d="M0 0 C0.33 0 0.66 0 1 0 C1 3.3 1 6.6 1 10 C0.01 10 -0.98 10 -2 10 C-1.85950482 8.52031676 -1.71245174 7.04125484 -1.5625 5.5625 C-1.48128906 4.73878906 -1.40007813 3.91507812 -1.31640625 3.06640625 C-1 1 -1 1 0 0 Z " fill="#FFE7F2" transform="translate(52,77)"/>
<path d="M0 0 C0.99 0.33 1.98 0.66 3 1 C3.05399736 2.45792884 3.09279177 3.91642712 3.125 5.375 C3.14820313 6.18710938 3.17140625 6.99921875 3.1953125 7.8359375 C3 10 3 10 1 12 C0.67 8.04 0.34 4.08 0 0 Z " fill="#E4C92D" transform="translate(27,67)"/>
<path d="M0 0 C0 0.99 0 1.98 0 3 C-2.64 3.33 -5.28 3.66 -8 4 C-8 3.01 -8 2.02 -8 1 C-5.07175348 0.02391783 -3.04386724 -0.08226668 0 0 Z " fill="#FF0977" transform="translate(91,70)"/>
<path d="M0 0 C2.38142167 0.58672708 4.45790934 0.62975501 6.90625 0.59375 C8.10507813 0.58021484 8.10507813 0.58021484 9.328125 0.56640625 C10.23304688 0.54900391 10.23304688 0.54900391 11.15625 0.53125 C10.82625 1.19125 10.49625 1.85125 10.15625 2.53125 C8.23989783 2.58548638 6.32310075 2.62414963 4.40625 2.65625 C2.80523437 2.69105469 2.80523437 2.69105469 1.171875 2.7265625 C-1.76845106 2.53612687 -3.36736878 2.05795104 -5.84375 0.53125 C-3.65860557 -0.17111785 -2.25295309 -0.57278468 0 0 Z " fill="#CA5183" transform="translate(119.84375,68.46875)"/>
<path d="M0 0 C0 0.99 0 1.98 0 3 C-0.66 3.66 -1.32 4.32 -2 5 C-1.01 6.485 -1.01 6.485 0 8 C-1.98 8.33 -3.96 8.66 -6 9 C-5.52797514 4.75177626 -3.03344482 2.80010291 0 0 Z " fill="#FED84C" transform="translate(24,85)"/>
<path d="M0 0 C6.625 -0.25 6.625 -0.25 10 2 C10 2.66 10 3.32 10 4 C9.484375 3.855625 8.96875 3.71125 8.4375 3.5625 C5.31490429 2.84190099 2.17449308 2.42733561 -1 2 C-0.67 1.34 -0.34 0.68 0 0 Z " fill="#FF2D88" transform="translate(66,69)"/>
<path d="M0 0 C0.66 0 1.32 0 2 0 C1.67 2.97 1.34 5.94 1 9 C0.34 9 -0.32 9 -1 9 C-2.1875 7.3125 -2.1875 7.3125 -3 5 C-1.75 2.25 -1.75 2.25 0 0 Z " fill="#F7BCD7" transform="translate(15,53)"/>
<path d="M0 0 C0 2.64 0 5.28 0 8 C-0.66 8 -1.32 8 -2 8 C-3.4606285 5.35261084 -4 4.10551666 -4 1 C-1 0 -1 0 0 0 Z " fill="#F85C4A" transform="translate(80,47)"/>
<path d="M0 0 C2.31 0 4.62 0 7 0 C7 0.99 7 1.98 7 3 C4.69 3 2.38 3 0 3 C0 2.01 0 1.02 0 0 Z " fill="#FEEFF6" transform="translate(85,82)"/>
<path d="M0 0 C2.31 0 4.62 0 7 0 C7 0.99 7 1.98 7 3 C4.69 3 2.38 3 0 3 C0 2.01 0 1.02 0 0 Z " fill="#FEEBF4" transform="translate(85,74)"/>
<path d="M0 0 C0.99 0 1.98 0 3 0 C3 0.99 3 1.98 3 3 C4.32 3.66 5.64 4.32 7 5 C6.01 5.495 6.01 5.495 5 6 C2.375 5.0625 2.375 5.0625 0 4 C0 2.68 0 1.36 0 0 Z " fill="#FBCAE1" transform="translate(124,48)"/>
<path d="M0 0 C1.98 0 3.96 0 6 0 C6.33 0.99 6.66 1.98 7 3 C5.1875 3.625 5.1875 3.625 3 4 C2.01 3.34 1.02 2.68 0 2 C0 1.34 0 0.68 0 0 Z " fill="#CA5383" transform="translate(128,49)"/>
<path d="M0 0 C1.4540625 0.0309375 1.4540625 0.0309375 2.9375 0.0625 C1.9475 0.3925 0.9575 0.7225 -0.0625 1.0625 C-1.28119929 3.56697516 -1.28119929 3.56697516 -2.0625 6.0625 C-2.7225 6.0625 -3.3825 6.0625 -4.0625 6.0625 C-4.105221 4.39638095 -4.10313832 2.72867115 -4.0625 1.0625 C-3.0625 0.0625 -3.0625 0.0625 0 0 Z " fill="#FFB9D5" transform="translate(69.0625,48.9375)"/>
<path d="M0 0 C1.62463842 -0.05395478 3.24978541 -0.09277195 4.875 -0.125 C5.77992187 -0.14820313 6.68484375 -0.17140625 7.6171875 -0.1953125 C10 0 10 0 12 2 C11.01 2.66 10.02 3.32 9 4 C8.67 3.34 8.34 2.68 8 2 C7.01 1.67 6.02 1.34 5 1 C4.67 1.66 4.34 2.32 4 3 C2.68 2.01 1.36 1.02 0 0 Z " fill="#FD866C" transform="translate(56,46)"/>
<path d="M0 0 C0.99 0 1.98 0 3 0 C3 1.32 3 2.64 3 4 C2.34 4 1.68 4 1 4 C0.67 4.99 0.34 5.98 0 7 C0 6.01 0 5.02 0 4 C-2.31 4 -4.62 4 -7 4 C-7 3.67 -7 3.34 -7 3 C-4.69 3 -2.38 3 0 3 C0 2.01 0 1.02 0 0 Z " fill="#F39CC4" transform="translate(92,70)"/>
<path d="M0 0 C1.5 1.3125 1.5 1.3125 3 3 C3 3.99 3 4.98 3 6 C1.0625 5.6875 1.0625 5.6875 -1 5 C-1.33 4.01 -1.66 3.02 -2 2 C-1.34 2 -0.68 2 0 2 C0 1.34 0 0.68 0 0 Z " fill="#BB2660" transform="translate(42,40)"/>
<path d="M0 0 C1.65 0 3.3 0 5 0 C4.67 1.32 4.34 2.64 4 4 C2.35 3.67 0.7 3.34 -1 3 C-0.67 2.01 -0.34 1.02 0 0 Z " fill="#FFC51C" transform="translate(50,19)"/>
<path d="M0 0 C2.31 0 4.62 0 7 0 C7 0.99 7 1.98 7 3 C4.69 2.67 2.38 2.34 0 2 C0 1.34 0 0.68 0 0 Z " fill="#D0BB21" transform="translate(52,15)"/>
<path d="M0 0 C5.75 0.75 5.75 0.75 8 3 C8 3.99 8 4.98 8 6 C6 6 6 6 4 4.125 C3.34 3.42375 2.68 2.7225 2 2 C1.34 1.34 0.68 0.68 0 0 Z " fill="#519F48" transform="translate(43,10)"/>
<path d="M0 0 C2.31 0.33 4.62 0.66 7 1 C6.67 1.99 6.34 2.98 6 4 C4.02 4 2.04 4 0 4 C0 2.68 0 1.36 0 0 Z " fill="#F5DBD4" transform="translate(18,94)"/>
<path d="M0 0 C0.33 0.66 0.66 1.32 1 2 C2.32 1.67 3.64 1.34 5 1 C5 1.66 5 2.32 5 3 C5.66 3.33 6.32 3.66 7 4 C5.35 4.66 3.7 5.32 2 6 C2 5.34 2 4.68 2 4 C1.34 4 0.68 4 0 4 C0 2.68 0 1.36 0 0 Z " fill="#FDD7E9" transform="translate(44,66)"/>
<path d="M0 0 C0.99 0.33 1.98 0.66 3 1 C3 2.98 3 4.96 3 7 C2.01 6.67 1.02 6.34 0 6 C0 4.02 0 2.04 0 0 Z " fill="#FEE7F2" transform="translate(118,60)"/>
<path d="M0 0 C1.65 0 3.3 0 5 0 C5 0.99 5 1.98 5 3 C3.35 3.33 1.7 3.66 0 4 C0 2.68 0 1.36 0 0 Z " fill="#FFD2E6" transform="translate(87,53)"/>
<path d="M0 0 C1.65 1.65 3.3 3.3 5 5 C4.67 5.66 4.34 6.32 4 7 C3.01 7 2.02 7 1 7 C-0.6875 5 -0.6875 5 -2 3 C-1.34 2.67 -0.68 2.34 0 2 C0 1.34 0 0.68 0 0 Z " fill="#FF3290" transform="translate(72,50)"/>
<path d="M0 0 C0.33 0.66 0.66 1.32 1 2 C1.99 2 2.98 2 4 2 C3.625 3.9375 3.625 3.9375 3 6 C2.01 6.495 2.01 6.495 1 7 C-0.0625 5.1875 -0.0625 5.1875 -1 3 C-0.67 2.01 -0.34 1.02 0 0 Z " fill="#FFB409" transform="translate(47,22)"/>
<path d="M0 0 C0.66 0 1.32 0 2 0 C1.1875 3.4375 1.1875 3.4375 0 7 C-0.99 7.33 -1.98 7.66 -3 8 C-2.45276317 4.62537285 -1.9451 2.91765 0 0 Z " fill="#F1C241" transform="translate(49,17)"/>
<path d="M0 0 C0 1.65 0 3.3 0 5 C-0.99 5.495 -0.99 5.495 -2 6 C-2.33 5.01 -2.66 4.02 -3 3 C-5.00016466 1.79117904 -5.00016466 1.79117904 -7 1 C-2.25 0 -2.25 0 0 0 Z " fill="#C23A6E" transform="translate(25,69)"/>
<path d="M0 0 C1.33333333 2.66666667 2.66666667 5.33333333 4 8 C0.83884224 6.63016497 0.0072908 6.0109362 -2 3 C-1.34 3 -0.68 3 0 3 C0 2.01 0 1.02 0 0 Z " fill="#F6D6E4" transform="translate(2,63)"/>
<path d="M0 0 C1.16945792 0.80847729 2.33550461 1.62189112 3.5 2.4375 C4.47453125 3.11619141 4.47453125 3.11619141 5.46875 3.80859375 C5.9740625 4.20175781 6.479375 4.59492187 7 5 C7 5.33 7 5.66 7 6 C4.625 6.125 4.625 6.125 2 6 C1.34 5.34 0.68 4.68 0 4 C0 2.68 0 1.36 0 0 Z " fill="#FF3F98" transform="translate(121,62)"/>
<path d="M0 0 C0.33 0 0.66 0 1 0 C1 1.65 1 3.3 1 5 C1.66 5 2.32 5 3 5 C3 5.99 3 6.98 3 8 C1.35 7.67 -0.3 7.34 -2 7 C-1.34 4.69 -0.68 2.38 0 0 Z " fill="#F3AECC" transform="translate(96,53)"/>
<path d="M0 0 C1.2077558 3.62326739 0.54311128 4.64146369 -1 8 C-1.66 8 -2.32 8 -3 8 C-2.45276317 4.62537285 -1.9451 2.91765 0 0 Z " fill="#C7457A" transform="translate(18,53)"/>
<path d="M0 0 C2.31 0 4.62 0 7 0 C7 0.99 7 1.98 7 3 C5.68 3.33 4.36 3.66 3 4 C3 3.34 3 2.68 3 2 C2.01 2 1.02 2 0 2 C0 1.34 0 0.68 0 0 Z " fill="#FFD958" transform="translate(49,22)"/>
</svg>
